%TF.GenerationSoftware,KiCad,Pcbnew,9.0.7*%
%TF.CreationDate,2026-02-09T10:13:43+02:00*%
%TF.ProjectId,DoorLock PCB,446f6f72-4c6f-4636-9b20-5043422e6b69,rev?*%
%TF.SameCoordinates,Original*%
%TF.FileFunction,Legend,Top*%
%TF.FilePolarity,Positive*%
%FSLAX46Y46*%
G04 Gerber Fmt 4.6, Leading zero omitted, Abs format (unit mm)*
G04 Created by KiCad (PCBNEW 9.0.7) date 2026-02-09 10:13:43*
%MOMM*%
%LPD*%
G01*
G04 APERTURE LIST*
%ADD10C,0.250000*%
%ADD11C,0.200000*%
%ADD12C,0.100000*%
%ADD13C,0.600000*%
%ADD14C,0.150000*%
%ADD15C,0.400000*%
%ADD16C,0.875000*%
%ADD17C,0.120000*%
%ADD18C,0.127000*%
G04 APERTURE END LIST*
D10*
X172259711Y-134254675D02*
X172831139Y-134254675D01*
X172545425Y-135254675D02*
X172545425Y-134254675D01*
X173069235Y-134588008D02*
X173307330Y-135254675D01*
X173545425Y-134588008D02*
X173307330Y-135254675D01*
X173307330Y-135254675D02*
X173212092Y-135492770D01*
X173212092Y-135492770D02*
X173164473Y-135540389D01*
X173164473Y-135540389D02*
X173069235Y-135588008D01*
X173926378Y-134588008D02*
X173926378Y-135588008D01*
X173926378Y-134635627D02*
X174021616Y-134588008D01*
X174021616Y-134588008D02*
X174212092Y-134588008D01*
X174212092Y-134588008D02*
X174307330Y-134635627D01*
X174307330Y-134635627D02*
X174354949Y-134683246D01*
X174354949Y-134683246D02*
X174402568Y-134778484D01*
X174402568Y-134778484D02*
X174402568Y-135064198D01*
X174402568Y-135064198D02*
X174354949Y-135159436D01*
X174354949Y-135159436D02*
X174307330Y-135207056D01*
X174307330Y-135207056D02*
X174212092Y-135254675D01*
X174212092Y-135254675D02*
X174021616Y-135254675D01*
X174021616Y-135254675D02*
X173926378Y-135207056D01*
X175212092Y-135207056D02*
X175116854Y-135254675D01*
X175116854Y-135254675D02*
X174926378Y-135254675D01*
X174926378Y-135254675D02*
X174831140Y-135207056D01*
X174831140Y-135207056D02*
X174783521Y-135111817D01*
X174783521Y-135111817D02*
X174783521Y-134730865D01*
X174783521Y-134730865D02*
X174831140Y-134635627D01*
X174831140Y-134635627D02*
X174926378Y-134588008D01*
X174926378Y-134588008D02*
X175116854Y-134588008D01*
X175116854Y-134588008D02*
X175212092Y-134635627D01*
X175212092Y-134635627D02*
X175259711Y-134730865D01*
X175259711Y-134730865D02*
X175259711Y-134826103D01*
X175259711Y-134826103D02*
X174783521Y-134921341D01*
X177021616Y-135159436D02*
X176973997Y-135207056D01*
X176973997Y-135207056D02*
X176831140Y-135254675D01*
X176831140Y-135254675D02*
X176735902Y-135254675D01*
X176735902Y-135254675D02*
X176593045Y-135207056D01*
X176593045Y-135207056D02*
X176497807Y-135111817D01*
X176497807Y-135111817D02*
X176450188Y-135016579D01*
X176450188Y-135016579D02*
X176402569Y-134826103D01*
X176402569Y-134826103D02*
X176402569Y-134683246D01*
X176402569Y-134683246D02*
X176450188Y-134492770D01*
X176450188Y-134492770D02*
X176497807Y-134397532D01*
X176497807Y-134397532D02*
X176593045Y-134302294D01*
X176593045Y-134302294D02*
X176735902Y-134254675D01*
X176735902Y-134254675D02*
X176831140Y-134254675D01*
X176831140Y-134254675D02*
X176973997Y-134302294D01*
X176973997Y-134302294D02*
X177021616Y-134349913D01*
X177450188Y-134873722D02*
X178212093Y-134873722D01*
D11*
X163322054Y-131069600D02*
X163464911Y-131117219D01*
X163464911Y-131117219D02*
X163703006Y-131117219D01*
X163703006Y-131117219D02*
X163798244Y-131069600D01*
X163798244Y-131069600D02*
X163845863Y-131021980D01*
X163845863Y-131021980D02*
X163893482Y-130926742D01*
X163893482Y-130926742D02*
X163893482Y-130831504D01*
X163893482Y-130831504D02*
X163845863Y-130736266D01*
X163845863Y-130736266D02*
X163798244Y-130688647D01*
X163798244Y-130688647D02*
X163703006Y-130641028D01*
X163703006Y-130641028D02*
X163512530Y-130593409D01*
X163512530Y-130593409D02*
X163417292Y-130545790D01*
X163417292Y-130545790D02*
X163369673Y-130498171D01*
X163369673Y-130498171D02*
X163322054Y-130402933D01*
X163322054Y-130402933D02*
X163322054Y-130307695D01*
X163322054Y-130307695D02*
X163369673Y-130212457D01*
X163369673Y-130212457D02*
X163417292Y-130164838D01*
X163417292Y-130164838D02*
X163512530Y-130117219D01*
X163512530Y-130117219D02*
X163750625Y-130117219D01*
X163750625Y-130117219D02*
X163893482Y-130164838D01*
X164226816Y-130450552D02*
X164417292Y-131117219D01*
X164417292Y-131117219D02*
X164607768Y-130641028D01*
X164607768Y-130641028D02*
X164798244Y-131117219D01*
X164798244Y-131117219D02*
X164988720Y-130450552D01*
X165369673Y-131117219D02*
X165369673Y-130450552D01*
X165369673Y-130117219D02*
X165322054Y-130164838D01*
X165322054Y-130164838D02*
X165369673Y-130212457D01*
X165369673Y-130212457D02*
X165417292Y-130164838D01*
X165417292Y-130164838D02*
X165369673Y-130117219D01*
X165369673Y-130117219D02*
X165369673Y-130212457D01*
X165703006Y-130450552D02*
X166083958Y-130450552D01*
X165845863Y-130117219D02*
X165845863Y-130974361D01*
X165845863Y-130974361D02*
X165893482Y-131069600D01*
X165893482Y-131069600D02*
X165988720Y-131117219D01*
X165988720Y-131117219D02*
X166083958Y-131117219D01*
X166845863Y-131069600D02*
X166750625Y-131117219D01*
X166750625Y-131117219D02*
X166560149Y-131117219D01*
X166560149Y-131117219D02*
X166464911Y-131069600D01*
X166464911Y-131069600D02*
X166417292Y-131021980D01*
X166417292Y-131021980D02*
X166369673Y-130926742D01*
X166369673Y-130926742D02*
X166369673Y-130641028D01*
X166369673Y-130641028D02*
X166417292Y-130545790D01*
X166417292Y-130545790D02*
X166464911Y-130498171D01*
X166464911Y-130498171D02*
X166560149Y-130450552D01*
X166560149Y-130450552D02*
X166750625Y-130450552D01*
X166750625Y-130450552D02*
X166845863Y-130498171D01*
X167274435Y-131117219D02*
X167274435Y-130117219D01*
X167703006Y-131117219D02*
X167703006Y-130593409D01*
X167703006Y-130593409D02*
X167655387Y-130498171D01*
X167655387Y-130498171D02*
X167560149Y-130450552D01*
X167560149Y-130450552D02*
X167417292Y-130450552D01*
X167417292Y-130450552D02*
X167322054Y-130498171D01*
X167322054Y-130498171D02*
X167274435Y-130545790D01*
X168941102Y-130736266D02*
X169703007Y-130736266D01*
X169322054Y-131117219D02*
X169322054Y-130355314D01*
X148072054Y-131069600D02*
X148214911Y-131117219D01*
X148214911Y-131117219D02*
X148453006Y-131117219D01*
X148453006Y-131117219D02*
X148548244Y-131069600D01*
X148548244Y-131069600D02*
X148595863Y-131021980D01*
X148595863Y-131021980D02*
X148643482Y-130926742D01*
X148643482Y-130926742D02*
X148643482Y-130831504D01*
X148643482Y-130831504D02*
X148595863Y-130736266D01*
X148595863Y-130736266D02*
X148548244Y-130688647D01*
X148548244Y-130688647D02*
X148453006Y-130641028D01*
X148453006Y-130641028D02*
X148262530Y-130593409D01*
X148262530Y-130593409D02*
X148167292Y-130545790D01*
X148167292Y-130545790D02*
X148119673Y-130498171D01*
X148119673Y-130498171D02*
X148072054Y-130402933D01*
X148072054Y-130402933D02*
X148072054Y-130307695D01*
X148072054Y-130307695D02*
X148119673Y-130212457D01*
X148119673Y-130212457D02*
X148167292Y-130164838D01*
X148167292Y-130164838D02*
X148262530Y-130117219D01*
X148262530Y-130117219D02*
X148500625Y-130117219D01*
X148500625Y-130117219D02*
X148643482Y-130164838D01*
X148976816Y-130450552D02*
X149167292Y-131117219D01*
X149167292Y-131117219D02*
X149357768Y-130641028D01*
X149357768Y-130641028D02*
X149548244Y-131117219D01*
X149548244Y-131117219D02*
X149738720Y-130450552D01*
X150119673Y-131117219D02*
X150119673Y-130450552D01*
X150119673Y-130117219D02*
X150072054Y-130164838D01*
X150072054Y-130164838D02*
X150119673Y-130212457D01*
X150119673Y-130212457D02*
X150167292Y-130164838D01*
X150167292Y-130164838D02*
X150119673Y-130117219D01*
X150119673Y-130117219D02*
X150119673Y-130212457D01*
X150453006Y-130450552D02*
X150833958Y-130450552D01*
X150595863Y-130117219D02*
X150595863Y-130974361D01*
X150595863Y-130974361D02*
X150643482Y-131069600D01*
X150643482Y-131069600D02*
X150738720Y-131117219D01*
X150738720Y-131117219D02*
X150833958Y-131117219D01*
X151595863Y-131069600D02*
X151500625Y-131117219D01*
X151500625Y-131117219D02*
X151310149Y-131117219D01*
X151310149Y-131117219D02*
X151214911Y-131069600D01*
X151214911Y-131069600D02*
X151167292Y-131021980D01*
X151167292Y-131021980D02*
X151119673Y-130926742D01*
X151119673Y-130926742D02*
X151119673Y-130641028D01*
X151119673Y-130641028D02*
X151167292Y-130545790D01*
X151167292Y-130545790D02*
X151214911Y-130498171D01*
X151214911Y-130498171D02*
X151310149Y-130450552D01*
X151310149Y-130450552D02*
X151500625Y-130450552D01*
X151500625Y-130450552D02*
X151595863Y-130498171D01*
X152024435Y-131117219D02*
X152024435Y-130117219D01*
X152453006Y-131117219D02*
X152453006Y-130593409D01*
X152453006Y-130593409D02*
X152405387Y-130498171D01*
X152405387Y-130498171D02*
X152310149Y-130450552D01*
X152310149Y-130450552D02*
X152167292Y-130450552D01*
X152167292Y-130450552D02*
X152072054Y-130498171D01*
X152072054Y-130498171D02*
X152024435Y-130545790D01*
X153691102Y-130736266D02*
X154453007Y-130736266D01*
D10*
X144402568Y-126733666D02*
X145164473Y-126733666D01*
X152152568Y-126733666D02*
X152914473Y-126733666D01*
X152533520Y-127114619D02*
X152533520Y-126352714D01*
D12*
X144053884Y-123122419D02*
X144053884Y-122122419D01*
X144053884Y-122122419D02*
X144434836Y-122122419D01*
X144434836Y-122122419D02*
X144530074Y-122170038D01*
X144530074Y-122170038D02*
X144577693Y-122217657D01*
X144577693Y-122217657D02*
X144625312Y-122312895D01*
X144625312Y-122312895D02*
X144625312Y-122455752D01*
X144625312Y-122455752D02*
X144577693Y-122550990D01*
X144577693Y-122550990D02*
X144530074Y-122598609D01*
X144530074Y-122598609D02*
X144434836Y-122646228D01*
X144434836Y-122646228D02*
X144053884Y-122646228D01*
X145196741Y-123122419D02*
X145101503Y-123074800D01*
X145101503Y-123074800D02*
X145053884Y-123027180D01*
X145053884Y-123027180D02*
X145006265Y-122931942D01*
X145006265Y-122931942D02*
X145006265Y-122646228D01*
X145006265Y-122646228D02*
X145053884Y-122550990D01*
X145053884Y-122550990D02*
X145101503Y-122503371D01*
X145101503Y-122503371D02*
X145196741Y-122455752D01*
X145196741Y-122455752D02*
X145339598Y-122455752D01*
X145339598Y-122455752D02*
X145434836Y-122503371D01*
X145434836Y-122503371D02*
X145482455Y-122550990D01*
X145482455Y-122550990D02*
X145530074Y-122646228D01*
X145530074Y-122646228D02*
X145530074Y-122931942D01*
X145530074Y-122931942D02*
X145482455Y-123027180D01*
X145482455Y-123027180D02*
X145434836Y-123074800D01*
X145434836Y-123074800D02*
X145339598Y-123122419D01*
X145339598Y-123122419D02*
X145196741Y-123122419D01*
X145863408Y-122455752D02*
X146053884Y-123122419D01*
X146053884Y-123122419D02*
X146244360Y-122646228D01*
X146244360Y-122646228D02*
X146434836Y-123122419D01*
X146434836Y-123122419D02*
X146625312Y-122455752D01*
X147387217Y-123074800D02*
X147291979Y-123122419D01*
X147291979Y-123122419D02*
X147101503Y-123122419D01*
X147101503Y-123122419D02*
X147006265Y-123074800D01*
X147006265Y-123074800D02*
X146958646Y-122979561D01*
X146958646Y-122979561D02*
X146958646Y-122598609D01*
X146958646Y-122598609D02*
X147006265Y-122503371D01*
X147006265Y-122503371D02*
X147101503Y-122455752D01*
X147101503Y-122455752D02*
X147291979Y-122455752D01*
X147291979Y-122455752D02*
X147387217Y-122503371D01*
X147387217Y-122503371D02*
X147434836Y-122598609D01*
X147434836Y-122598609D02*
X147434836Y-122693847D01*
X147434836Y-122693847D02*
X146958646Y-122789085D01*
X147863408Y-123122419D02*
X147863408Y-122455752D01*
X147863408Y-122646228D02*
X147911027Y-122550990D01*
X147911027Y-122550990D02*
X147958646Y-122503371D01*
X147958646Y-122503371D02*
X148053884Y-122455752D01*
X148053884Y-122455752D02*
X148149122Y-122455752D01*
X149196742Y-123074800D02*
X149339599Y-123122419D01*
X149339599Y-123122419D02*
X149577694Y-123122419D01*
X149577694Y-123122419D02*
X149672932Y-123074800D01*
X149672932Y-123074800D02*
X149720551Y-123027180D01*
X149720551Y-123027180D02*
X149768170Y-122931942D01*
X149768170Y-122931942D02*
X149768170Y-122836704D01*
X149768170Y-122836704D02*
X149720551Y-122741466D01*
X149720551Y-122741466D02*
X149672932Y-122693847D01*
X149672932Y-122693847D02*
X149577694Y-122646228D01*
X149577694Y-122646228D02*
X149387218Y-122598609D01*
X149387218Y-122598609D02*
X149291980Y-122550990D01*
X149291980Y-122550990D02*
X149244361Y-122503371D01*
X149244361Y-122503371D02*
X149196742Y-122408133D01*
X149196742Y-122408133D02*
X149196742Y-122312895D01*
X149196742Y-122312895D02*
X149244361Y-122217657D01*
X149244361Y-122217657D02*
X149291980Y-122170038D01*
X149291980Y-122170038D02*
X149387218Y-122122419D01*
X149387218Y-122122419D02*
X149625313Y-122122419D01*
X149625313Y-122122419D02*
X149768170Y-122170038D01*
X150053885Y-122455752D02*
X150434837Y-122455752D01*
X150196742Y-122122419D02*
X150196742Y-122979561D01*
X150196742Y-122979561D02*
X150244361Y-123074800D01*
X150244361Y-123074800D02*
X150339599Y-123122419D01*
X150339599Y-123122419D02*
X150434837Y-123122419D01*
X151196742Y-123122419D02*
X151196742Y-122598609D01*
X151196742Y-122598609D02*
X151149123Y-122503371D01*
X151149123Y-122503371D02*
X151053885Y-122455752D01*
X151053885Y-122455752D02*
X150863409Y-122455752D01*
X150863409Y-122455752D02*
X150768171Y-122503371D01*
X151196742Y-123074800D02*
X151101504Y-123122419D01*
X151101504Y-123122419D02*
X150863409Y-123122419D01*
X150863409Y-123122419D02*
X150768171Y-123074800D01*
X150768171Y-123074800D02*
X150720552Y-122979561D01*
X150720552Y-122979561D02*
X150720552Y-122884323D01*
X150720552Y-122884323D02*
X150768171Y-122789085D01*
X150768171Y-122789085D02*
X150863409Y-122741466D01*
X150863409Y-122741466D02*
X151101504Y-122741466D01*
X151101504Y-122741466D02*
X151196742Y-122693847D01*
X151530076Y-122455752D02*
X151911028Y-122455752D01*
X151672933Y-122122419D02*
X151672933Y-122979561D01*
X151672933Y-122979561D02*
X151720552Y-123074800D01*
X151720552Y-123074800D02*
X151815790Y-123122419D01*
X151815790Y-123122419D02*
X151911028Y-123122419D01*
X152672933Y-122455752D02*
X152672933Y-123122419D01*
X152244362Y-122455752D02*
X152244362Y-122979561D01*
X152244362Y-122979561D02*
X152291981Y-123074800D01*
X152291981Y-123074800D02*
X152387219Y-123122419D01*
X152387219Y-123122419D02*
X152530076Y-123122419D01*
X152530076Y-123122419D02*
X152625314Y-123074800D01*
X152625314Y-123074800D02*
X152672933Y-123027180D01*
X153101505Y-123074800D02*
X153196743Y-123122419D01*
X153196743Y-123122419D02*
X153387219Y-123122419D01*
X153387219Y-123122419D02*
X153482457Y-123074800D01*
X153482457Y-123074800D02*
X153530076Y-122979561D01*
X153530076Y-122979561D02*
X153530076Y-122931942D01*
X153530076Y-122931942D02*
X153482457Y-122836704D01*
X153482457Y-122836704D02*
X153387219Y-122789085D01*
X153387219Y-122789085D02*
X153244362Y-122789085D01*
X153244362Y-122789085D02*
X153149124Y-122741466D01*
X153149124Y-122741466D02*
X153101505Y-122646228D01*
X153101505Y-122646228D02*
X153101505Y-122598609D01*
X153101505Y-122598609D02*
X153149124Y-122503371D01*
X153149124Y-122503371D02*
X153244362Y-122455752D01*
X153244362Y-122455752D02*
X153387219Y-122455752D01*
X153387219Y-122455752D02*
X153482457Y-122503371D01*
D11*
X121940475Y-119319600D02*
X122083332Y-119367219D01*
X122083332Y-119367219D02*
X122321427Y-119367219D01*
X122321427Y-119367219D02*
X122416665Y-119319600D01*
X122416665Y-119319600D02*
X122464284Y-119271980D01*
X122464284Y-119271980D02*
X122511903Y-119176742D01*
X122511903Y-119176742D02*
X122511903Y-119081504D01*
X122511903Y-119081504D02*
X122464284Y-118986266D01*
X122464284Y-118986266D02*
X122416665Y-118938647D01*
X122416665Y-118938647D02*
X122321427Y-118891028D01*
X122321427Y-118891028D02*
X122130951Y-118843409D01*
X122130951Y-118843409D02*
X122035713Y-118795790D01*
X122035713Y-118795790D02*
X121988094Y-118748171D01*
X121988094Y-118748171D02*
X121940475Y-118652933D01*
X121940475Y-118652933D02*
X121940475Y-118557695D01*
X121940475Y-118557695D02*
X121988094Y-118462457D01*
X121988094Y-118462457D02*
X122035713Y-118414838D01*
X122035713Y-118414838D02*
X122130951Y-118367219D01*
X122130951Y-118367219D02*
X122369046Y-118367219D01*
X122369046Y-118367219D02*
X122511903Y-118414838D01*
X123321427Y-119319600D02*
X123226189Y-119367219D01*
X123226189Y-119367219D02*
X123035713Y-119367219D01*
X123035713Y-119367219D02*
X122940475Y-119319600D01*
X122940475Y-119319600D02*
X122892856Y-119224361D01*
X122892856Y-119224361D02*
X122892856Y-118843409D01*
X122892856Y-118843409D02*
X122940475Y-118748171D01*
X122940475Y-118748171D02*
X123035713Y-118700552D01*
X123035713Y-118700552D02*
X123226189Y-118700552D01*
X123226189Y-118700552D02*
X123321427Y-118748171D01*
X123321427Y-118748171D02*
X123369046Y-118843409D01*
X123369046Y-118843409D02*
X123369046Y-118938647D01*
X123369046Y-118938647D02*
X122892856Y-119033885D01*
X123797618Y-119367219D02*
X123797618Y-118700552D01*
X123797618Y-118891028D02*
X123845237Y-118795790D01*
X123845237Y-118795790D02*
X123892856Y-118748171D01*
X123892856Y-118748171D02*
X123988094Y-118700552D01*
X123988094Y-118700552D02*
X124083332Y-118700552D01*
X124321428Y-118700552D02*
X124559523Y-119367219D01*
X124559523Y-119367219D02*
X124797618Y-118700552D01*
X125321428Y-119367219D02*
X125226190Y-119319600D01*
X125226190Y-119319600D02*
X125178571Y-119271980D01*
X125178571Y-119271980D02*
X125130952Y-119176742D01*
X125130952Y-119176742D02*
X125130952Y-118891028D01*
X125130952Y-118891028D02*
X125178571Y-118795790D01*
X125178571Y-118795790D02*
X125226190Y-118748171D01*
X125226190Y-118748171D02*
X125321428Y-118700552D01*
X125321428Y-118700552D02*
X125464285Y-118700552D01*
X125464285Y-118700552D02*
X125559523Y-118748171D01*
X125559523Y-118748171D02*
X125607142Y-118795790D01*
X125607142Y-118795790D02*
X125654761Y-118891028D01*
X125654761Y-118891028D02*
X125654761Y-119176742D01*
X125654761Y-119176742D02*
X125607142Y-119271980D01*
X125607142Y-119271980D02*
X125559523Y-119319600D01*
X125559523Y-119319600D02*
X125464285Y-119367219D01*
X125464285Y-119367219D02*
X125321428Y-119367219D01*
X126845238Y-119367219D02*
X126845238Y-118367219D01*
X126845238Y-118367219D02*
X127178571Y-119081504D01*
X127178571Y-119081504D02*
X127511904Y-118367219D01*
X127511904Y-118367219D02*
X127511904Y-119367219D01*
X128130952Y-119367219D02*
X128035714Y-119319600D01*
X128035714Y-119319600D02*
X127988095Y-119271980D01*
X127988095Y-119271980D02*
X127940476Y-119176742D01*
X127940476Y-119176742D02*
X127940476Y-118891028D01*
X127940476Y-118891028D02*
X127988095Y-118795790D01*
X127988095Y-118795790D02*
X128035714Y-118748171D01*
X128035714Y-118748171D02*
X128130952Y-118700552D01*
X128130952Y-118700552D02*
X128273809Y-118700552D01*
X128273809Y-118700552D02*
X128369047Y-118748171D01*
X128369047Y-118748171D02*
X128416666Y-118795790D01*
X128416666Y-118795790D02*
X128464285Y-118891028D01*
X128464285Y-118891028D02*
X128464285Y-119176742D01*
X128464285Y-119176742D02*
X128416666Y-119271980D01*
X128416666Y-119271980D02*
X128369047Y-119319600D01*
X128369047Y-119319600D02*
X128273809Y-119367219D01*
X128273809Y-119367219D02*
X128130952Y-119367219D01*
X128750000Y-118700552D02*
X129130952Y-118700552D01*
X128892857Y-118367219D02*
X128892857Y-119224361D01*
X128892857Y-119224361D02*
X128940476Y-119319600D01*
X128940476Y-119319600D02*
X129035714Y-119367219D01*
X129035714Y-119367219D02*
X129130952Y-119367219D01*
X129607143Y-119367219D02*
X129511905Y-119319600D01*
X129511905Y-119319600D02*
X129464286Y-119271980D01*
X129464286Y-119271980D02*
X129416667Y-119176742D01*
X129416667Y-119176742D02*
X129416667Y-118891028D01*
X129416667Y-118891028D02*
X129464286Y-118795790D01*
X129464286Y-118795790D02*
X129511905Y-118748171D01*
X129511905Y-118748171D02*
X129607143Y-118700552D01*
X129607143Y-118700552D02*
X129750000Y-118700552D01*
X129750000Y-118700552D02*
X129845238Y-118748171D01*
X129845238Y-118748171D02*
X129892857Y-118795790D01*
X129892857Y-118795790D02*
X129940476Y-118891028D01*
X129940476Y-118891028D02*
X129940476Y-119176742D01*
X129940476Y-119176742D02*
X129892857Y-119271980D01*
X129892857Y-119271980D02*
X129845238Y-119319600D01*
X129845238Y-119319600D02*
X129750000Y-119367219D01*
X129750000Y-119367219D02*
X129607143Y-119367219D01*
X130369048Y-119367219D02*
X130369048Y-118700552D01*
X130369048Y-118891028D02*
X130416667Y-118795790D01*
X130416667Y-118795790D02*
X130464286Y-118748171D01*
X130464286Y-118748171D02*
X130559524Y-118700552D01*
X130559524Y-118700552D02*
X130654762Y-118700552D01*
D12*
X121074800Y-123743734D02*
X121122419Y-123600877D01*
X121122419Y-123600877D02*
X121122419Y-123362782D01*
X121122419Y-123362782D02*
X121074800Y-123267544D01*
X121074800Y-123267544D02*
X121027180Y-123219925D01*
X121027180Y-123219925D02*
X120931942Y-123172306D01*
X120931942Y-123172306D02*
X120836704Y-123172306D01*
X120836704Y-123172306D02*
X120741466Y-123219925D01*
X120741466Y-123219925D02*
X120693847Y-123267544D01*
X120693847Y-123267544D02*
X120646228Y-123362782D01*
X120646228Y-123362782D02*
X120598609Y-123553258D01*
X120598609Y-123553258D02*
X120550990Y-123648496D01*
X120550990Y-123648496D02*
X120503371Y-123696115D01*
X120503371Y-123696115D02*
X120408133Y-123743734D01*
X120408133Y-123743734D02*
X120312895Y-123743734D01*
X120312895Y-123743734D02*
X120217657Y-123696115D01*
X120217657Y-123696115D02*
X120170038Y-123648496D01*
X120170038Y-123648496D02*
X120122419Y-123553258D01*
X120122419Y-123553258D02*
X120122419Y-123315163D01*
X120122419Y-123315163D02*
X120170038Y-123172306D01*
X121122419Y-122743734D02*
X120455752Y-122743734D01*
X120122419Y-122743734D02*
X120170038Y-122791353D01*
X120170038Y-122791353D02*
X120217657Y-122743734D01*
X120217657Y-122743734D02*
X120170038Y-122696115D01*
X120170038Y-122696115D02*
X120122419Y-122743734D01*
X120122419Y-122743734D02*
X120217657Y-122743734D01*
X120455752Y-121838973D02*
X121265276Y-121838973D01*
X121265276Y-121838973D02*
X121360514Y-121886592D01*
X121360514Y-121886592D02*
X121408133Y-121934211D01*
X121408133Y-121934211D02*
X121455752Y-122029449D01*
X121455752Y-122029449D02*
X121455752Y-122172306D01*
X121455752Y-122172306D02*
X121408133Y-122267544D01*
X121074800Y-121838973D02*
X121122419Y-121934211D01*
X121122419Y-121934211D02*
X121122419Y-122124687D01*
X121122419Y-122124687D02*
X121074800Y-122219925D01*
X121074800Y-122219925D02*
X121027180Y-122267544D01*
X121027180Y-122267544D02*
X120931942Y-122315163D01*
X120931942Y-122315163D02*
X120646228Y-122315163D01*
X120646228Y-122315163D02*
X120550990Y-122267544D01*
X120550990Y-122267544D02*
X120503371Y-122219925D01*
X120503371Y-122219925D02*
X120455752Y-122124687D01*
X120455752Y-122124687D02*
X120455752Y-121934211D01*
X120455752Y-121934211D02*
X120503371Y-121838973D01*
X120455752Y-121362782D02*
X121122419Y-121362782D01*
X120550990Y-121362782D02*
X120503371Y-121315163D01*
X120503371Y-121315163D02*
X120455752Y-121219925D01*
X120455752Y-121219925D02*
X120455752Y-121077068D01*
X120455752Y-121077068D02*
X120503371Y-120981830D01*
X120503371Y-120981830D02*
X120598609Y-120934211D01*
X120598609Y-120934211D02*
X121122419Y-120934211D01*
X121122419Y-120029449D02*
X120598609Y-120029449D01*
X120598609Y-120029449D02*
X120503371Y-120077068D01*
X120503371Y-120077068D02*
X120455752Y-120172306D01*
X120455752Y-120172306D02*
X120455752Y-120362782D01*
X120455752Y-120362782D02*
X120503371Y-120458020D01*
X121074800Y-120029449D02*
X121122419Y-120124687D01*
X121122419Y-120124687D02*
X121122419Y-120362782D01*
X121122419Y-120362782D02*
X121074800Y-120458020D01*
X121074800Y-120458020D02*
X120979561Y-120505639D01*
X120979561Y-120505639D02*
X120884323Y-120505639D01*
X120884323Y-120505639D02*
X120789085Y-120458020D01*
X120789085Y-120458020D02*
X120741466Y-120362782D01*
X120741466Y-120362782D02*
X120741466Y-120124687D01*
X120741466Y-120124687D02*
X120693847Y-120029449D01*
X121122419Y-119410401D02*
X121074800Y-119505639D01*
X121074800Y-119505639D02*
X120979561Y-119553258D01*
X120979561Y-119553258D02*
X120122419Y-119553258D01*
D10*
X155759711Y-130114619D02*
X156331139Y-130114619D01*
X156045425Y-131114619D02*
X156045425Y-130114619D01*
X156569235Y-130447952D02*
X156807330Y-131114619D01*
X157045425Y-130447952D02*
X156807330Y-131114619D01*
X156807330Y-131114619D02*
X156712092Y-131352714D01*
X156712092Y-131352714D02*
X156664473Y-131400333D01*
X156664473Y-131400333D02*
X156569235Y-131447952D01*
X157426378Y-130447952D02*
X157426378Y-131447952D01*
X157426378Y-130495571D02*
X157521616Y-130447952D01*
X157521616Y-130447952D02*
X157712092Y-130447952D01*
X157712092Y-130447952D02*
X157807330Y-130495571D01*
X157807330Y-130495571D02*
X157854949Y-130543190D01*
X157854949Y-130543190D02*
X157902568Y-130638428D01*
X157902568Y-130638428D02*
X157902568Y-130924142D01*
X157902568Y-130924142D02*
X157854949Y-131019380D01*
X157854949Y-131019380D02*
X157807330Y-131067000D01*
X157807330Y-131067000D02*
X157712092Y-131114619D01*
X157712092Y-131114619D02*
X157521616Y-131114619D01*
X157521616Y-131114619D02*
X157426378Y-131067000D01*
X158712092Y-131067000D02*
X158616854Y-131114619D01*
X158616854Y-131114619D02*
X158426378Y-131114619D01*
X158426378Y-131114619D02*
X158331140Y-131067000D01*
X158331140Y-131067000D02*
X158283521Y-130971761D01*
X158283521Y-130971761D02*
X158283521Y-130590809D01*
X158283521Y-130590809D02*
X158331140Y-130495571D01*
X158331140Y-130495571D02*
X158426378Y-130447952D01*
X158426378Y-130447952D02*
X158616854Y-130447952D01*
X158616854Y-130447952D02*
X158712092Y-130495571D01*
X158712092Y-130495571D02*
X158759711Y-130590809D01*
X158759711Y-130590809D02*
X158759711Y-130686047D01*
X158759711Y-130686047D02*
X158283521Y-130781285D01*
X160521616Y-131019380D02*
X160473997Y-131067000D01*
X160473997Y-131067000D02*
X160331140Y-131114619D01*
X160331140Y-131114619D02*
X160235902Y-131114619D01*
X160235902Y-131114619D02*
X160093045Y-131067000D01*
X160093045Y-131067000D02*
X159997807Y-130971761D01*
X159997807Y-130971761D02*
X159950188Y-130876523D01*
X159950188Y-130876523D02*
X159902569Y-130686047D01*
X159902569Y-130686047D02*
X159902569Y-130543190D01*
X159902569Y-130543190D02*
X159950188Y-130352714D01*
X159950188Y-130352714D02*
X159997807Y-130257476D01*
X159997807Y-130257476D02*
X160093045Y-130162238D01*
X160093045Y-130162238D02*
X160235902Y-130114619D01*
X160235902Y-130114619D02*
X160331140Y-130114619D01*
X160331140Y-130114619D02*
X160473997Y-130162238D01*
X160473997Y-130162238D02*
X160521616Y-130209857D01*
X161712093Y-130733666D02*
X162473998Y-130733666D01*
X162093045Y-131114619D02*
X162093045Y-130352714D01*
X154597431Y-45361333D02*
X153835527Y-45361333D01*
X154216479Y-44980380D02*
X154216479Y-45742285D01*
X151835526Y-45361333D02*
X151073622Y-45361333D01*
D13*
X169458800Y-107128835D02*
X169601657Y-106700264D01*
X169601657Y-106700264D02*
X169601657Y-105985978D01*
X169601657Y-105985978D02*
X169458800Y-105700264D01*
X169458800Y-105700264D02*
X169315942Y-105557406D01*
X169315942Y-105557406D02*
X169030228Y-105414549D01*
X169030228Y-105414549D02*
X168744514Y-105414549D01*
X168744514Y-105414549D02*
X168458800Y-105557406D01*
X168458800Y-105557406D02*
X168315942Y-105700264D01*
X168315942Y-105700264D02*
X168173085Y-105985978D01*
X168173085Y-105985978D02*
X168030228Y-106557406D01*
X168030228Y-106557406D02*
X167887371Y-106843121D01*
X167887371Y-106843121D02*
X167744514Y-106985978D01*
X167744514Y-106985978D02*
X167458800Y-107128835D01*
X167458800Y-107128835D02*
X167173085Y-107128835D01*
X167173085Y-107128835D02*
X166887371Y-106985978D01*
X166887371Y-106985978D02*
X166744514Y-106843121D01*
X166744514Y-106843121D02*
X166601657Y-106557406D01*
X166601657Y-106557406D02*
X166601657Y-105843121D01*
X166601657Y-105843121D02*
X166744514Y-105414549D01*
X169601657Y-104128835D02*
X167601657Y-104128835D01*
X167887371Y-104128835D02*
X167744514Y-103985978D01*
X167744514Y-103985978D02*
X167601657Y-103700263D01*
X167601657Y-103700263D02*
X167601657Y-103271692D01*
X167601657Y-103271692D02*
X167744514Y-102985978D01*
X167744514Y-102985978D02*
X168030228Y-102843121D01*
X168030228Y-102843121D02*
X169601657Y-102843121D01*
X168030228Y-102843121D02*
X167744514Y-102700263D01*
X167744514Y-102700263D02*
X167601657Y-102414549D01*
X167601657Y-102414549D02*
X167601657Y-101985978D01*
X167601657Y-101985978D02*
X167744514Y-101700263D01*
X167744514Y-101700263D02*
X168030228Y-101557406D01*
X168030228Y-101557406D02*
X169601657Y-101557406D01*
X169601657Y-98843121D02*
X168030228Y-98843121D01*
X168030228Y-98843121D02*
X167744514Y-98985978D01*
X167744514Y-98985978D02*
X167601657Y-99271692D01*
X167601657Y-99271692D02*
X167601657Y-99843121D01*
X167601657Y-99843121D02*
X167744514Y-100128835D01*
X169458800Y-98843121D02*
X169601657Y-99128835D01*
X169601657Y-99128835D02*
X169601657Y-99843121D01*
X169601657Y-99843121D02*
X169458800Y-100128835D01*
X169458800Y-100128835D02*
X169173085Y-100271692D01*
X169173085Y-100271692D02*
X168887371Y-100271692D01*
X168887371Y-100271692D02*
X168601657Y-100128835D01*
X168601657Y-100128835D02*
X168458800Y-99843121D01*
X168458800Y-99843121D02*
X168458800Y-99128835D01*
X168458800Y-99128835D02*
X168315942Y-98843121D01*
X169601657Y-97414549D02*
X167601657Y-97414549D01*
X168173085Y-97414549D02*
X167887371Y-97271692D01*
X167887371Y-97271692D02*
X167744514Y-97128835D01*
X167744514Y-97128835D02*
X167601657Y-96843120D01*
X167601657Y-96843120D02*
X167601657Y-96557406D01*
X167601657Y-95985977D02*
X167601657Y-94843120D01*
X166601657Y-95557406D02*
X169173085Y-95557406D01*
X169173085Y-95557406D02*
X169458800Y-95414549D01*
X169458800Y-95414549D02*
X169601657Y-95128834D01*
X169601657Y-95128834D02*
X169601657Y-94843120D01*
X169601657Y-91557406D02*
X166601657Y-91557406D01*
X166601657Y-91557406D02*
X169601657Y-89843120D01*
X169601657Y-89843120D02*
X166601657Y-89843120D01*
X168030228Y-87414549D02*
X168030228Y-88414549D01*
X169601657Y-88414549D02*
X166601657Y-88414549D01*
X166601657Y-88414549D02*
X166601657Y-86985977D01*
X169315942Y-84128834D02*
X169458800Y-84271691D01*
X169458800Y-84271691D02*
X169601657Y-84700263D01*
X169601657Y-84700263D02*
X169601657Y-84985977D01*
X169601657Y-84985977D02*
X169458800Y-85414548D01*
X169458800Y-85414548D02*
X169173085Y-85700263D01*
X169173085Y-85700263D02*
X168887371Y-85843120D01*
X168887371Y-85843120D02*
X168315942Y-85985977D01*
X168315942Y-85985977D02*
X167887371Y-85985977D01*
X167887371Y-85985977D02*
X167315942Y-85843120D01*
X167315942Y-85843120D02*
X167030228Y-85700263D01*
X167030228Y-85700263D02*
X166744514Y-85414548D01*
X166744514Y-85414548D02*
X166601657Y-84985977D01*
X166601657Y-84985977D02*
X166601657Y-84700263D01*
X166601657Y-84700263D02*
X166744514Y-84271691D01*
X166744514Y-84271691D02*
X166887371Y-84128834D01*
X169601657Y-80128834D02*
X169458800Y-80414549D01*
X169458800Y-80414549D02*
X169173085Y-80557406D01*
X169173085Y-80557406D02*
X166601657Y-80557406D01*
X169601657Y-78557405D02*
X169458800Y-78843120D01*
X169458800Y-78843120D02*
X169315942Y-78985977D01*
X169315942Y-78985977D02*
X169030228Y-79128834D01*
X169030228Y-79128834D02*
X168173085Y-79128834D01*
X168173085Y-79128834D02*
X167887371Y-78985977D01*
X167887371Y-78985977D02*
X167744514Y-78843120D01*
X167744514Y-78843120D02*
X167601657Y-78557405D01*
X167601657Y-78557405D02*
X167601657Y-78128834D01*
X167601657Y-78128834D02*
X167744514Y-77843120D01*
X167744514Y-77843120D02*
X167887371Y-77700263D01*
X167887371Y-77700263D02*
X168173085Y-77557405D01*
X168173085Y-77557405D02*
X169030228Y-77557405D01*
X169030228Y-77557405D02*
X169315942Y-77700263D01*
X169315942Y-77700263D02*
X169458800Y-77843120D01*
X169458800Y-77843120D02*
X169601657Y-78128834D01*
X169601657Y-78128834D02*
X169601657Y-78557405D01*
X169458800Y-74985977D02*
X169601657Y-75271691D01*
X169601657Y-75271691D02*
X169601657Y-75843119D01*
X169601657Y-75843119D02*
X169458800Y-76128834D01*
X169458800Y-76128834D02*
X169315942Y-76271691D01*
X169315942Y-76271691D02*
X169030228Y-76414548D01*
X169030228Y-76414548D02*
X168173085Y-76414548D01*
X168173085Y-76414548D02*
X167887371Y-76271691D01*
X167887371Y-76271691D02*
X167744514Y-76128834D01*
X167744514Y-76128834D02*
X167601657Y-75843119D01*
X167601657Y-75843119D02*
X167601657Y-75271691D01*
X167601657Y-75271691D02*
X167744514Y-74985977D01*
X169601657Y-73700262D02*
X166601657Y-73700262D01*
X168458800Y-73414548D02*
X169601657Y-72557405D01*
X167601657Y-72557405D02*
X168744514Y-73700262D01*
D10*
X141347431Y-45861333D02*
X140585527Y-45861333D01*
X140966479Y-45480380D02*
X140966479Y-46242285D01*
X138585526Y-45861333D02*
X137823622Y-45861333D01*
D12*
X101803884Y-115586466D02*
X102565789Y-115586466D01*
D14*
X169836779Y-114356133D02*
X170598684Y-114356133D01*
X170217731Y-113975180D02*
X170217731Y-114737085D01*
D15*
X167984438Y-65641366D02*
X169984438Y-64974700D01*
X169984438Y-64974700D02*
X167984438Y-64308033D01*
X168651104Y-63736604D02*
X168651104Y-62308033D01*
X167793961Y-63165176D02*
X170365390Y-63736604D01*
X169508247Y-62498509D02*
X169508247Y-63927080D01*
X170365390Y-63069937D02*
X167793961Y-62498509D01*
X167984438Y-61260414D02*
X167984438Y-61069937D01*
X167984438Y-61069937D02*
X168079676Y-60879461D01*
X168079676Y-60879461D02*
X168174914Y-60784223D01*
X168174914Y-60784223D02*
X168365390Y-60688985D01*
X168365390Y-60688985D02*
X168746342Y-60593747D01*
X168746342Y-60593747D02*
X169222533Y-60593747D01*
X169222533Y-60593747D02*
X169603485Y-60688985D01*
X169603485Y-60688985D02*
X169793961Y-60784223D01*
X169793961Y-60784223D02*
X169889200Y-60879461D01*
X169889200Y-60879461D02*
X169984438Y-61069937D01*
X169984438Y-61069937D02*
X169984438Y-61260414D01*
X169984438Y-61260414D02*
X169889200Y-61450890D01*
X169889200Y-61450890D02*
X169793961Y-61546128D01*
X169793961Y-61546128D02*
X169603485Y-61641366D01*
X169603485Y-61641366D02*
X169222533Y-61736604D01*
X169222533Y-61736604D02*
X168746342Y-61736604D01*
X168746342Y-61736604D02*
X168365390Y-61641366D01*
X168365390Y-61641366D02*
X168174914Y-61546128D01*
X168174914Y-61546128D02*
X168079676Y-61450890D01*
X168079676Y-61450890D02*
X167984438Y-61260414D01*
X167984438Y-59355652D02*
X167984438Y-59165175D01*
X167984438Y-59165175D02*
X168079676Y-58974699D01*
X168079676Y-58974699D02*
X168174914Y-58879461D01*
X168174914Y-58879461D02*
X168365390Y-58784223D01*
X168365390Y-58784223D02*
X168746342Y-58688985D01*
X168746342Y-58688985D02*
X169222533Y-58688985D01*
X169222533Y-58688985D02*
X169603485Y-58784223D01*
X169603485Y-58784223D02*
X169793961Y-58879461D01*
X169793961Y-58879461D02*
X169889200Y-58974699D01*
X169889200Y-58974699D02*
X169984438Y-59165175D01*
X169984438Y-59165175D02*
X169984438Y-59355652D01*
X169984438Y-59355652D02*
X169889200Y-59546128D01*
X169889200Y-59546128D02*
X169793961Y-59641366D01*
X169793961Y-59641366D02*
X169603485Y-59736604D01*
X169603485Y-59736604D02*
X169222533Y-59831842D01*
X169222533Y-59831842D02*
X168746342Y-59831842D01*
X168746342Y-59831842D02*
X168365390Y-59736604D01*
X168365390Y-59736604D02*
X168174914Y-59641366D01*
X168174914Y-59641366D02*
X168079676Y-59546128D01*
X168079676Y-59546128D02*
X167984438Y-59355652D01*
X169984438Y-56784223D02*
X169984438Y-57927080D01*
X169984438Y-57355652D02*
X167984438Y-57355652D01*
X167984438Y-57355652D02*
X168270152Y-57546128D01*
X168270152Y-57546128D02*
X168460628Y-57736604D01*
X168460628Y-57736604D02*
X168555866Y-57927080D01*
D12*
X178196115Y-114103533D02*
X177434211Y-114103533D01*
D11*
X125381578Y-124331266D02*
X126143483Y-124331266D01*
X125762530Y-124712219D02*
X125762530Y-123950314D01*
X128143483Y-124331266D02*
X128905388Y-124331266D01*
D13*
X173609021Y-69553800D02*
X175894736Y-69553800D01*
X174751878Y-70696657D02*
X174751878Y-68410942D01*
X176859021Y-69553800D02*
X179144736Y-69553800D01*
D16*
X158681167Y-108261665D02*
X158681167Y-105928332D01*
X162347834Y-104928332D02*
X162347834Y-108261665D01*
X162347834Y-108261665D02*
X155347834Y-108261665D01*
X155347834Y-108261665D02*
X155347834Y-104928332D01*
X157681167Y-101928332D02*
X162347834Y-101928332D01*
X158347834Y-101928332D02*
X158014501Y-101594999D01*
X158014501Y-101594999D02*
X157681167Y-100928332D01*
X157681167Y-100928332D02*
X157681167Y-99928332D01*
X157681167Y-99928332D02*
X158014501Y-99261665D01*
X158014501Y-99261665D02*
X158681167Y-98928332D01*
X158681167Y-98928332D02*
X162347834Y-98928332D01*
X157681167Y-92594999D02*
X163347834Y-92594999D01*
X163347834Y-92594999D02*
X164014501Y-92928332D01*
X164014501Y-92928332D02*
X164347834Y-93261666D01*
X164347834Y-93261666D02*
X164681167Y-93928332D01*
X164681167Y-93928332D02*
X164681167Y-94928332D01*
X164681167Y-94928332D02*
X164347834Y-95594999D01*
X162014501Y-92594999D02*
X162347834Y-93261666D01*
X162347834Y-93261666D02*
X162347834Y-94594999D01*
X162347834Y-94594999D02*
X162014501Y-95261666D01*
X162014501Y-95261666D02*
X161681167Y-95594999D01*
X161681167Y-95594999D02*
X161014501Y-95928332D01*
X161014501Y-95928332D02*
X159014501Y-95928332D01*
X159014501Y-95928332D02*
X158347834Y-95594999D01*
X158347834Y-95594999D02*
X158014501Y-95261666D01*
X158014501Y-95261666D02*
X157681167Y-94594999D01*
X157681167Y-94594999D02*
X157681167Y-93261666D01*
X157681167Y-93261666D02*
X158014501Y-92594999D01*
X158681167Y-83928333D02*
X158681167Y-81595000D01*
X162347834Y-80595000D02*
X162347834Y-83928333D01*
X162347834Y-83928333D02*
X155347834Y-83928333D01*
X155347834Y-83928333D02*
X155347834Y-80595000D01*
X157681167Y-78261667D02*
X157681167Y-74595000D01*
X157681167Y-74595000D02*
X162347834Y-78261667D01*
X162347834Y-78261667D02*
X162347834Y-74595000D01*
X157681167Y-72595000D02*
X157681167Y-68928333D01*
X157681167Y-68928333D02*
X162347834Y-72595000D01*
X162347834Y-72595000D02*
X162347834Y-68928333D01*
X162347834Y-66261666D02*
X155347834Y-66261666D01*
X155347834Y-66261666D02*
X162347834Y-62261666D01*
X162347834Y-62261666D02*
X155347834Y-62261666D01*
X162347834Y-55928333D02*
X158681167Y-55928333D01*
X158681167Y-55928333D02*
X158014501Y-56261666D01*
X158014501Y-56261666D02*
X157681167Y-56928333D01*
X157681167Y-56928333D02*
X157681167Y-58261666D01*
X157681167Y-58261666D02*
X158014501Y-58928333D01*
X162014501Y-55928333D02*
X162347834Y-56595000D01*
X162347834Y-56595000D02*
X162347834Y-58261666D01*
X162347834Y-58261666D02*
X162014501Y-58928333D01*
X162014501Y-58928333D02*
X161347834Y-59261666D01*
X161347834Y-59261666D02*
X160681167Y-59261666D01*
X160681167Y-59261666D02*
X160014501Y-58928333D01*
X160014501Y-58928333D02*
X159681167Y-58261666D01*
X159681167Y-58261666D02*
X159681167Y-56595000D01*
X159681167Y-56595000D02*
X159347834Y-55928333D01*
X162014501Y-52928333D02*
X162347834Y-52261667D01*
X162347834Y-52261667D02*
X162347834Y-50928333D01*
X162347834Y-50928333D02*
X162014501Y-50261667D01*
X162014501Y-50261667D02*
X161347834Y-49928333D01*
X161347834Y-49928333D02*
X161014501Y-49928333D01*
X161014501Y-49928333D02*
X160347834Y-50261667D01*
X160347834Y-50261667D02*
X160014501Y-50928333D01*
X160014501Y-50928333D02*
X160014501Y-51928333D01*
X160014501Y-51928333D02*
X159681167Y-52595000D01*
X159681167Y-52595000D02*
X159014501Y-52928333D01*
X159014501Y-52928333D02*
X158681167Y-52928333D01*
X158681167Y-52928333D02*
X158014501Y-52595000D01*
X158014501Y-52595000D02*
X157681167Y-51928333D01*
X157681167Y-51928333D02*
X157681167Y-50928333D01*
X157681167Y-50928333D02*
X158014501Y-50261667D01*
X162347834Y-46928333D02*
X157681167Y-46928333D01*
X159014501Y-46928333D02*
X158347834Y-46595000D01*
X158347834Y-46595000D02*
X158014501Y-46261666D01*
X158014501Y-46261666D02*
X157681167Y-45595000D01*
X157681167Y-45595000D02*
X157681167Y-44928333D01*
D10*
X124152568Y-39483666D02*
X124914473Y-39483666D01*
X124533520Y-39864619D02*
X124533520Y-39102714D01*
X126914473Y-39483666D02*
X127676378Y-39483666D01*
D14*
X156753333Y-116084819D02*
X156420000Y-115608628D01*
X156181905Y-116084819D02*
X156181905Y-115084819D01*
X156181905Y-115084819D02*
X156562857Y-115084819D01*
X156562857Y-115084819D02*
X156658095Y-115132438D01*
X156658095Y-115132438D02*
X156705714Y-115180057D01*
X156705714Y-115180057D02*
X156753333Y-115275295D01*
X156753333Y-115275295D02*
X156753333Y-115418152D01*
X156753333Y-115418152D02*
X156705714Y-115513390D01*
X156705714Y-115513390D02*
X156658095Y-115561009D01*
X156658095Y-115561009D02*
X156562857Y-115608628D01*
X156562857Y-115608628D02*
X156181905Y-115608628D01*
X157658095Y-115084819D02*
X157181905Y-115084819D01*
X157181905Y-115084819D02*
X157134286Y-115561009D01*
X157134286Y-115561009D02*
X157181905Y-115513390D01*
X157181905Y-115513390D02*
X157277143Y-115465771D01*
X157277143Y-115465771D02*
X157515238Y-115465771D01*
X157515238Y-115465771D02*
X157610476Y-115513390D01*
X157610476Y-115513390D02*
X157658095Y-115561009D01*
X157658095Y-115561009D02*
X157705714Y-115656247D01*
X157705714Y-115656247D02*
X157705714Y-115894342D01*
X157705714Y-115894342D02*
X157658095Y-115989580D01*
X157658095Y-115989580D02*
X157610476Y-116037200D01*
X157610476Y-116037200D02*
X157515238Y-116084819D01*
X157515238Y-116084819D02*
X157277143Y-116084819D01*
X157277143Y-116084819D02*
X157181905Y-116037200D01*
X157181905Y-116037200D02*
X157134286Y-115989580D01*
X123431905Y-129234819D02*
X123431905Y-128234819D01*
X123431905Y-128234819D02*
X123670000Y-128234819D01*
X123670000Y-128234819D02*
X123812857Y-128282438D01*
X123812857Y-128282438D02*
X123908095Y-128377676D01*
X123908095Y-128377676D02*
X123955714Y-128472914D01*
X123955714Y-128472914D02*
X124003333Y-128663390D01*
X124003333Y-128663390D02*
X124003333Y-128806247D01*
X124003333Y-128806247D02*
X123955714Y-128996723D01*
X123955714Y-128996723D02*
X123908095Y-129091961D01*
X123908095Y-129091961D02*
X123812857Y-129187200D01*
X123812857Y-129187200D02*
X123670000Y-129234819D01*
X123670000Y-129234819D02*
X123431905Y-129234819D01*
X124860476Y-128568152D02*
X124860476Y-129234819D01*
X124622381Y-128187200D02*
X124384286Y-128901485D01*
X124384286Y-128901485D02*
X125003333Y-128901485D01*
X118828095Y-129604819D02*
X118828095Y-128604819D01*
X119399523Y-129604819D02*
X118970952Y-129033390D01*
X119399523Y-128604819D02*
X118828095Y-129176247D01*
X137804272Y-86028319D02*
X137804272Y-86837842D01*
X137804272Y-86837842D02*
X137851891Y-86933080D01*
X137851891Y-86933080D02*
X137899510Y-86980700D01*
X137899510Y-86980700D02*
X137994748Y-87028319D01*
X137994748Y-87028319D02*
X138185224Y-87028319D01*
X138185224Y-87028319D02*
X138280462Y-86980700D01*
X138280462Y-86980700D02*
X138328081Y-86933080D01*
X138328081Y-86933080D02*
X138375700Y-86837842D01*
X138375700Y-86837842D02*
X138375700Y-86028319D01*
X138804272Y-86123557D02*
X138851891Y-86075938D01*
X138851891Y-86075938D02*
X138947129Y-86028319D01*
X138947129Y-86028319D02*
X139185224Y-86028319D01*
X139185224Y-86028319D02*
X139280462Y-86075938D01*
X139280462Y-86075938D02*
X139328081Y-86123557D01*
X139328081Y-86123557D02*
X139375700Y-86218795D01*
X139375700Y-86218795D02*
X139375700Y-86314033D01*
X139375700Y-86314033D02*
X139328081Y-86456890D01*
X139328081Y-86456890D02*
X138756653Y-87028319D01*
X138756653Y-87028319D02*
X139375700Y-87028319D01*
X135399272Y-108253319D02*
X135399272Y-109062842D01*
X135399272Y-109062842D02*
X135446891Y-109158080D01*
X135446891Y-109158080D02*
X135494510Y-109205700D01*
X135494510Y-109205700D02*
X135589748Y-109253319D01*
X135589748Y-109253319D02*
X135780224Y-109253319D01*
X135780224Y-109253319D02*
X135875462Y-109205700D01*
X135875462Y-109205700D02*
X135923081Y-109158080D01*
X135923081Y-109158080D02*
X135970700Y-109062842D01*
X135970700Y-109062842D02*
X135970700Y-108253319D01*
X136399272Y-109205700D02*
X136542129Y-109253319D01*
X136542129Y-109253319D02*
X136780224Y-109253319D01*
X136780224Y-109253319D02*
X136875462Y-109205700D01*
X136875462Y-109205700D02*
X136923081Y-109158080D01*
X136923081Y-109158080D02*
X136970700Y-109062842D01*
X136970700Y-109062842D02*
X136970700Y-108967604D01*
X136970700Y-108967604D02*
X136923081Y-108872366D01*
X136923081Y-108872366D02*
X136875462Y-108824747D01*
X136875462Y-108824747D02*
X136780224Y-108777128D01*
X136780224Y-108777128D02*
X136589748Y-108729509D01*
X136589748Y-108729509D02*
X136494510Y-108681890D01*
X136494510Y-108681890D02*
X136446891Y-108634271D01*
X136446891Y-108634271D02*
X136399272Y-108539033D01*
X136399272Y-108539033D02*
X136399272Y-108443795D01*
X136399272Y-108443795D02*
X136446891Y-108348557D01*
X136446891Y-108348557D02*
X136494510Y-108300938D01*
X136494510Y-108300938D02*
X136589748Y-108253319D01*
X136589748Y-108253319D02*
X136827843Y-108253319D01*
X136827843Y-108253319D02*
X136970700Y-108300938D01*
X137732605Y-108729509D02*
X137875462Y-108777128D01*
X137875462Y-108777128D02*
X137923081Y-108824747D01*
X137923081Y-108824747D02*
X137970700Y-108919985D01*
X137970700Y-108919985D02*
X137970700Y-109062842D01*
X137970700Y-109062842D02*
X137923081Y-109158080D01*
X137923081Y-109158080D02*
X137875462Y-109205700D01*
X137875462Y-109205700D02*
X137780224Y-109253319D01*
X137780224Y-109253319D02*
X137399272Y-109253319D01*
X137399272Y-109253319D02*
X137399272Y-108253319D01*
X137399272Y-108253319D02*
X137732605Y-108253319D01*
X137732605Y-108253319D02*
X137827843Y-108300938D01*
X137827843Y-108300938D02*
X137875462Y-108348557D01*
X137875462Y-108348557D02*
X137923081Y-108443795D01*
X137923081Y-108443795D02*
X137923081Y-108539033D01*
X137923081Y-108539033D02*
X137875462Y-108634271D01*
X137875462Y-108634271D02*
X137827843Y-108681890D01*
X137827843Y-108681890D02*
X137732605Y-108729509D01*
X137732605Y-108729509D02*
X137399272Y-108729509D01*
X110324819Y-59511666D02*
X109848628Y-59844999D01*
X110324819Y-60083094D02*
X109324819Y-60083094D01*
X109324819Y-60083094D02*
X109324819Y-59702142D01*
X109324819Y-59702142D02*
X109372438Y-59606904D01*
X109372438Y-59606904D02*
X109420057Y-59559285D01*
X109420057Y-59559285D02*
X109515295Y-59511666D01*
X109515295Y-59511666D02*
X109658152Y-59511666D01*
X109658152Y-59511666D02*
X109753390Y-59559285D01*
X109753390Y-59559285D02*
X109801009Y-59606904D01*
X109801009Y-59606904D02*
X109848628Y-59702142D01*
X109848628Y-59702142D02*
X109848628Y-60083094D01*
X109420057Y-59130713D02*
X109372438Y-59083094D01*
X109372438Y-59083094D02*
X109324819Y-58987856D01*
X109324819Y-58987856D02*
X109324819Y-58749761D01*
X109324819Y-58749761D02*
X109372438Y-58654523D01*
X109372438Y-58654523D02*
X109420057Y-58606904D01*
X109420057Y-58606904D02*
X109515295Y-58559285D01*
X109515295Y-58559285D02*
X109610533Y-58559285D01*
X109610533Y-58559285D02*
X109753390Y-58606904D01*
X109753390Y-58606904D02*
X110324819Y-59178332D01*
X110324819Y-59178332D02*
X110324819Y-58559285D01*
X114824819Y-58931666D02*
X114348628Y-59264999D01*
X114824819Y-59503094D02*
X113824819Y-59503094D01*
X113824819Y-59503094D02*
X113824819Y-59122142D01*
X113824819Y-59122142D02*
X113872438Y-59026904D01*
X113872438Y-59026904D02*
X113920057Y-58979285D01*
X113920057Y-58979285D02*
X114015295Y-58931666D01*
X114015295Y-58931666D02*
X114158152Y-58931666D01*
X114158152Y-58931666D02*
X114253390Y-58979285D01*
X114253390Y-58979285D02*
X114301009Y-59026904D01*
X114301009Y-59026904D02*
X114348628Y-59122142D01*
X114348628Y-59122142D02*
X114348628Y-59503094D01*
X113824819Y-58598332D02*
X113824819Y-57979285D01*
X113824819Y-57979285D02*
X114205771Y-58312618D01*
X114205771Y-58312618D02*
X114205771Y-58169761D01*
X114205771Y-58169761D02*
X114253390Y-58074523D01*
X114253390Y-58074523D02*
X114301009Y-58026904D01*
X114301009Y-58026904D02*
X114396247Y-57979285D01*
X114396247Y-57979285D02*
X114634342Y-57979285D01*
X114634342Y-57979285D02*
X114729580Y-58026904D01*
X114729580Y-58026904D02*
X114777200Y-58074523D01*
X114777200Y-58074523D02*
X114824819Y-58169761D01*
X114824819Y-58169761D02*
X114824819Y-58455475D01*
X114824819Y-58455475D02*
X114777200Y-58550713D01*
X114777200Y-58550713D02*
X114729580Y-58598332D01*
X119324819Y-59431666D02*
X118848628Y-59764999D01*
X119324819Y-60003094D02*
X118324819Y-60003094D01*
X118324819Y-60003094D02*
X118324819Y-59622142D01*
X118324819Y-59622142D02*
X118372438Y-59526904D01*
X118372438Y-59526904D02*
X118420057Y-59479285D01*
X118420057Y-59479285D02*
X118515295Y-59431666D01*
X118515295Y-59431666D02*
X118658152Y-59431666D01*
X118658152Y-59431666D02*
X118753390Y-59479285D01*
X118753390Y-59479285D02*
X118801009Y-59526904D01*
X118801009Y-59526904D02*
X118848628Y-59622142D01*
X118848628Y-59622142D02*
X118848628Y-60003094D01*
X118658152Y-58574523D02*
X119324819Y-58574523D01*
X118277200Y-58812618D02*
X118991485Y-59050713D01*
X118991485Y-59050713D02*
X118991485Y-58431666D01*
X104488095Y-127304819D02*
X104488095Y-126304819D01*
X104488095Y-126781009D02*
X105059523Y-126781009D01*
X105059523Y-127304819D02*
X105059523Y-126304819D01*
X105964285Y-126638152D02*
X105964285Y-127304819D01*
X105726190Y-126257200D02*
X105488095Y-126971485D01*
X105488095Y-126971485D02*
X106107142Y-126971485D01*
X175988095Y-127204819D02*
X175988095Y-126204819D01*
X175988095Y-126681009D02*
X176559523Y-126681009D01*
X176559523Y-127204819D02*
X176559523Y-126204819D01*
X176940476Y-126204819D02*
X177559523Y-126204819D01*
X177559523Y-126204819D02*
X177226190Y-126585771D01*
X177226190Y-126585771D02*
X177369047Y-126585771D01*
X177369047Y-126585771D02*
X177464285Y-126633390D01*
X177464285Y-126633390D02*
X177511904Y-126681009D01*
X177511904Y-126681009D02*
X177559523Y-126776247D01*
X177559523Y-126776247D02*
X177559523Y-127014342D01*
X177559523Y-127014342D02*
X177511904Y-127109580D01*
X177511904Y-127109580D02*
X177464285Y-127157200D01*
X177464285Y-127157200D02*
X177369047Y-127204819D01*
X177369047Y-127204819D02*
X177083333Y-127204819D01*
X177083333Y-127204819D02*
X176988095Y-127157200D01*
X176988095Y-127157200D02*
X176940476Y-127109580D01*
X105988095Y-39804819D02*
X105988095Y-38804819D01*
X105988095Y-39281009D02*
X106559523Y-39281009D01*
X106559523Y-39804819D02*
X106559523Y-38804819D01*
X106988095Y-38900057D02*
X107035714Y-38852438D01*
X107035714Y-38852438D02*
X107130952Y-38804819D01*
X107130952Y-38804819D02*
X107369047Y-38804819D01*
X107369047Y-38804819D02*
X107464285Y-38852438D01*
X107464285Y-38852438D02*
X107511904Y-38900057D01*
X107511904Y-38900057D02*
X107559523Y-38995295D01*
X107559523Y-38995295D02*
X107559523Y-39090533D01*
X107559523Y-39090533D02*
X107511904Y-39233390D01*
X107511904Y-39233390D02*
X106940476Y-39804819D01*
X106940476Y-39804819D02*
X107559523Y-39804819D01*
X171488095Y-39554819D02*
X171488095Y-38554819D01*
X171488095Y-39031009D02*
X172059523Y-39031009D01*
X172059523Y-39554819D02*
X172059523Y-38554819D01*
X173059523Y-39554819D02*
X172488095Y-39554819D01*
X172773809Y-39554819D02*
X172773809Y-38554819D01*
X172773809Y-38554819D02*
X172678571Y-38697676D01*
X172678571Y-38697676D02*
X172583333Y-38792914D01*
X172583333Y-38792914D02*
X172488095Y-38840533D01*
X152126905Y-38839819D02*
X152126905Y-37839819D01*
X152126905Y-37839819D02*
X152365000Y-37839819D01*
X152365000Y-37839819D02*
X152507857Y-37887438D01*
X152507857Y-37887438D02*
X152603095Y-37982676D01*
X152603095Y-37982676D02*
X152650714Y-38077914D01*
X152650714Y-38077914D02*
X152698333Y-38268390D01*
X152698333Y-38268390D02*
X152698333Y-38411247D01*
X152698333Y-38411247D02*
X152650714Y-38601723D01*
X152650714Y-38601723D02*
X152603095Y-38696961D01*
X152603095Y-38696961D02*
X152507857Y-38792200D01*
X152507857Y-38792200D02*
X152365000Y-38839819D01*
X152365000Y-38839819D02*
X152126905Y-38839819D01*
X153031667Y-37839819D02*
X153650714Y-37839819D01*
X153650714Y-37839819D02*
X153317381Y-38220771D01*
X153317381Y-38220771D02*
X153460238Y-38220771D01*
X153460238Y-38220771D02*
X153555476Y-38268390D01*
X153555476Y-38268390D02*
X153603095Y-38316009D01*
X153603095Y-38316009D02*
X153650714Y-38411247D01*
X153650714Y-38411247D02*
X153650714Y-38649342D01*
X153650714Y-38649342D02*
X153603095Y-38744580D01*
X153603095Y-38744580D02*
X153555476Y-38792200D01*
X153555476Y-38792200D02*
X153460238Y-38839819D01*
X153460238Y-38839819D02*
X153174524Y-38839819D01*
X153174524Y-38839819D02*
X153079286Y-38792200D01*
X153079286Y-38792200D02*
X153031667Y-38744580D01*
X170009048Y-117878866D02*
X170770953Y-117878866D01*
X170390000Y-118259819D02*
X170390000Y-117497914D01*
X125261905Y-46759819D02*
X125261905Y-45759819D01*
X125261905Y-45759819D02*
X125500000Y-45759819D01*
X125500000Y-45759819D02*
X125642857Y-45807438D01*
X125642857Y-45807438D02*
X125738095Y-45902676D01*
X125738095Y-45902676D02*
X125785714Y-45997914D01*
X125785714Y-45997914D02*
X125833333Y-46188390D01*
X125833333Y-46188390D02*
X125833333Y-46331247D01*
X125833333Y-46331247D02*
X125785714Y-46521723D01*
X125785714Y-46521723D02*
X125738095Y-46616961D01*
X125738095Y-46616961D02*
X125642857Y-46712200D01*
X125642857Y-46712200D02*
X125500000Y-46759819D01*
X125500000Y-46759819D02*
X125261905Y-46759819D01*
X126785714Y-46759819D02*
X126214286Y-46759819D01*
X126500000Y-46759819D02*
X126500000Y-45759819D01*
X126500000Y-45759819D02*
X126404762Y-45902676D01*
X126404762Y-45902676D02*
X126309524Y-45997914D01*
X126309524Y-45997914D02*
X126214286Y-46045533D01*
X139031905Y-39339819D02*
X139031905Y-38339819D01*
X139031905Y-38339819D02*
X139270000Y-38339819D01*
X139270000Y-38339819D02*
X139412857Y-38387438D01*
X139412857Y-38387438D02*
X139508095Y-38482676D01*
X139508095Y-38482676D02*
X139555714Y-38577914D01*
X139555714Y-38577914D02*
X139603333Y-38768390D01*
X139603333Y-38768390D02*
X139603333Y-38911247D01*
X139603333Y-38911247D02*
X139555714Y-39101723D01*
X139555714Y-39101723D02*
X139508095Y-39196961D01*
X139508095Y-39196961D02*
X139412857Y-39292200D01*
X139412857Y-39292200D02*
X139270000Y-39339819D01*
X139270000Y-39339819D02*
X139031905Y-39339819D01*
X139984286Y-38435057D02*
X140031905Y-38387438D01*
X140031905Y-38387438D02*
X140127143Y-38339819D01*
X140127143Y-38339819D02*
X140365238Y-38339819D01*
X140365238Y-38339819D02*
X140460476Y-38387438D01*
X140460476Y-38387438D02*
X140508095Y-38435057D01*
X140508095Y-38435057D02*
X140555714Y-38530295D01*
X140555714Y-38530295D02*
X140555714Y-38625533D01*
X140555714Y-38625533D02*
X140508095Y-38768390D01*
X140508095Y-38768390D02*
X139936667Y-39339819D01*
X139936667Y-39339819D02*
X140555714Y-39339819D01*
D17*
%TO.C,J3*%
X159500000Y-133500000D02*
G75*
G02*
X156000000Y-133500000I-1750000J0D01*
G01*
X156000000Y-133500000D02*
G75*
G02*
X159500000Y-133500000I1750000J0D01*
G01*
%TO.C,Switch-1*%
X166000000Y-133750000D02*
G75*
G02*
X162500000Y-133750000I-1750000J0D01*
G01*
X162500000Y-133750000D02*
G75*
G02*
X166000000Y-133750000I1750000J0D01*
G01*
%TO.C,Switch+1*%
X152500000Y-133750000D02*
G75*
G02*
X149000000Y-133750000I-1750000J0D01*
G01*
X149000000Y-133750000D02*
G75*
G02*
X152500000Y-133750000I1750000J0D01*
G01*
%TO.C,J2*%
X172000000Y-133250000D02*
G75*
G02*
X168500000Y-133250000I-1750000J0D01*
G01*
X168500000Y-133250000D02*
G75*
G02*
X172000000Y-133250000I1750000J0D01*
G01*
%TO.C,R5*%
X152880000Y-118000000D02*
X153650000Y-118000000D01*
X160960000Y-118000000D02*
X160190000Y-118000000D01*
X153650000Y-116630000D02*
X160190000Y-116630000D01*
X160190000Y-119370000D01*
X153650000Y-119370000D01*
X153650000Y-116630000D01*
%TO.C,RED-POWER-STATUS1*%
X150973591Y-127830000D02*
G75*
G02*
X146670000Y-128148749I-2243591J1080000D01*
G01*
X150413330Y-127830000D02*
G75*
G02*
X147046670Y-127830000I-1683330J1080000D01*
G01*
X147046670Y-125670000D02*
G75*
G02*
X150413330Y-125670000I1683330J-1080000D01*
G01*
X146670000Y-125351251D02*
G75*
G02*
X150973591Y-125670000I2060000J-1398749D01*
G01*
X146670000Y-127830000D02*
X146670000Y-128149000D01*
X146670000Y-125351000D02*
X146670000Y-125670000D01*
%TO.C,D4*%
X121450000Y-129780000D02*
X126890000Y-129780000D01*
X126890000Y-132720000D01*
X121450000Y-132720000D01*
X121450000Y-129780000D01*
X127910000Y-131250000D02*
X126890000Y-131250000D01*
X122470000Y-129780000D02*
X122470000Y-132720000D01*
X122350000Y-129780000D02*
X122350000Y-132720000D01*
X122230000Y-129780000D02*
X122230000Y-132720000D01*
X120430000Y-131250000D02*
X121450000Y-131250000D01*
%TO.C,J1*%
X173580000Y-75725000D02*
X173580000Y-74345000D01*
X174960000Y-75725000D02*
X173580000Y-75725000D01*
X176230000Y-72965000D02*
X178880000Y-72965000D01*
X176230000Y-75725000D02*
X176230000Y-72965000D01*
X176230000Y-75725000D02*
X178880000Y-75725000D01*
X178880000Y-75725000D02*
X178880000Y-72965000D01*
%TO.C,M1*%
X122080000Y-123225000D02*
X122080000Y-121845000D01*
X123460000Y-123225000D02*
X122080000Y-123225000D01*
X124730000Y-120465000D02*
X129920000Y-120465000D01*
X124730000Y-123225000D02*
X124730000Y-120465000D01*
X124730000Y-123225000D02*
X129920000Y-123225000D01*
X129920000Y-123225000D02*
X129920000Y-120465000D01*
D18*
%TO.C,U2*%
X124596177Y-61173500D02*
X152536177Y-61173500D01*
X124596177Y-109433500D02*
X124596177Y-61173500D01*
X136026177Y-106893500D02*
X141106177Y-106893500D01*
X136026177Y-109433500D02*
X124596177Y-109433500D01*
X136026177Y-109433500D02*
X136026177Y-106893500D01*
X141106177Y-106893500D02*
X141106177Y-109433500D01*
X141106177Y-109433500D02*
X136026177Y-109433500D01*
X152536177Y-61173500D02*
X152536177Y-109433500D01*
X152536177Y-109433500D02*
X141106177Y-109433500D01*
D17*
%TO.C,C1*%
X112487677Y-121845000D02*
G75*
G02*
X102247677Y-121845000I-5120000J0D01*
G01*
X102247677Y-121845000D02*
G75*
G02*
X112487677Y-121845000I5120000J0D01*
G01*
X112847323Y-124720000D02*
X111847323Y-124720000D01*
X112347323Y-125220000D02*
X112347323Y-124220000D01*
X107367677Y-126925000D02*
X107367677Y-116765000D01*
X107327677Y-126925000D02*
X107327677Y-116765000D01*
X107287677Y-126924000D02*
X107287677Y-116766000D01*
X107247677Y-126924000D02*
X107247677Y-116766000D01*
X107207677Y-126922000D02*
X107207677Y-116768000D01*
X107167677Y-126921000D02*
X107167677Y-116769000D01*
X107127677Y-126919000D02*
X107127677Y-116771000D01*
X107087677Y-126917000D02*
X107087677Y-116773000D01*
X107047677Y-126915000D02*
X107047677Y-116775000D01*
X107007677Y-126912000D02*
X107007677Y-116778000D01*
X106967677Y-126909000D02*
X106967677Y-116781000D01*
X106927677Y-126906000D02*
X106927677Y-116784000D01*
X106887677Y-126902000D02*
X106887677Y-116788000D01*
X106847677Y-126899000D02*
X106847677Y-116791000D01*
X106807677Y-126894000D02*
X106807677Y-116796000D01*
X106767677Y-126890000D02*
X106767677Y-116800000D01*
X106727677Y-126885000D02*
X106727677Y-116805000D01*
X106687677Y-126880000D02*
X106687677Y-116810000D01*
X106647677Y-126874000D02*
X106647677Y-116816000D01*
X106607677Y-126868000D02*
X106607677Y-116822000D01*
X106567677Y-126862000D02*
X106567677Y-116828000D01*
X106527677Y-126856000D02*
X106527677Y-116834000D01*
X106487677Y-126849000D02*
X106487677Y-116841000D01*
X106447677Y-126842000D02*
X106447677Y-116848000D01*
X106407677Y-126834000D02*
X106407677Y-116856000D01*
X106367677Y-126826000D02*
X106367677Y-116864000D01*
X106327677Y-126818000D02*
X106327677Y-116872000D01*
X106287677Y-126810000D02*
X106287677Y-116880000D01*
X106247677Y-126801000D02*
X106247677Y-116889000D01*
X106207677Y-126792000D02*
X106207677Y-116898000D01*
X106167677Y-126782000D02*
X106167677Y-116908000D01*
X106127677Y-126773000D02*
X106127677Y-116917000D01*
X106087677Y-126762000D02*
X106087677Y-123085000D01*
X106087677Y-120605000D02*
X106087677Y-116928000D01*
X106047677Y-126752000D02*
X106047677Y-123085000D01*
X106047677Y-120605000D02*
X106047677Y-116938000D01*
X106007677Y-126741000D02*
X106007677Y-123085000D01*
X106007677Y-120605000D02*
X106007677Y-116949000D01*
X105967677Y-126730000D02*
X105967677Y-123085000D01*
X105967677Y-120605000D02*
X105967677Y-116960000D01*
X105927677Y-126718000D02*
X105927677Y-123085000D01*
X105927677Y-120605000D02*
X105927677Y-116972000D01*
X105887677Y-126706000D02*
X105887677Y-123085000D01*
X105887677Y-120605000D02*
X105887677Y-116984000D01*
X105847677Y-126694000D02*
X105847677Y-123085000D01*
X105847677Y-120605000D02*
X105847677Y-116996000D01*
X105807677Y-126682000D02*
X105807677Y-123085000D01*
X105807677Y-120605000D02*
X105807677Y-117008000D01*
X105767677Y-126669000D02*
X105767677Y-123085000D01*
X105767677Y-120605000D02*
X105767677Y-117021000D01*
X105727677Y-126655000D02*
X105727677Y-123085000D01*
X105727677Y-120605000D02*
X105727677Y-117035000D01*
X105687677Y-126642000D02*
X105687677Y-123085000D01*
X105687677Y-120605000D02*
X105687677Y-117048000D01*
X105647677Y-126627000D02*
X105647677Y-123085000D01*
X105647677Y-120605000D02*
X105647677Y-117063000D01*
X105607677Y-126613000D02*
X105607677Y-123085000D01*
X105607677Y-120605000D02*
X105607677Y-117077000D01*
X105567677Y-126598000D02*
X105567677Y-123085000D01*
X105567677Y-120605000D02*
X105567677Y-117092000D01*
X105527677Y-126583000D02*
X105527677Y-123085000D01*
X105527677Y-120605000D02*
X105527677Y-117107000D01*
X105487677Y-126567000D02*
X105487677Y-123085000D01*
X105487677Y-120605000D02*
X105487677Y-117123000D01*
X105447677Y-126551000D02*
X105447677Y-123085000D01*
X105447677Y-120605000D02*
X105447677Y-117139000D01*
X105407677Y-126535000D02*
X105407677Y-123085000D01*
X105407677Y-120605000D02*
X105407677Y-117155000D01*
X105367677Y-126518000D02*
X105367677Y-123085000D01*
X105367677Y-120605000D02*
X105367677Y-117172000D01*
X105327677Y-126501000D02*
X105327677Y-123085000D01*
X105327677Y-120605000D02*
X105327677Y-117189000D01*
X105287677Y-126483000D02*
X105287677Y-123085000D01*
X105287677Y-120605000D02*
X105287677Y-117207000D01*
X105247677Y-126465000D02*
X105247677Y-123085000D01*
X105247677Y-120605000D02*
X105247677Y-117225000D01*
X105207677Y-126447000D02*
X105207677Y-123085000D01*
X105207677Y-120605000D02*
X105207677Y-117243000D01*
X105167677Y-126428000D02*
X105167677Y-123085000D01*
X105167677Y-120605000D02*
X105167677Y-117262000D01*
X105127677Y-126409000D02*
X105127677Y-123085000D01*
X105127677Y-120605000D02*
X105127677Y-117281000D01*
X105087677Y-126389000D02*
X105087677Y-123085000D01*
X105087677Y-120605000D02*
X105087677Y-117301000D01*
X105047677Y-126369000D02*
X105047677Y-123085000D01*
X105047677Y-120605000D02*
X105047677Y-117321000D01*
X105007677Y-126349000D02*
X105007677Y-123085000D01*
X105007677Y-120605000D02*
X105007677Y-117341000D01*
X104967677Y-126328000D02*
X104967677Y-123085000D01*
X104967677Y-120605000D02*
X104967677Y-117362000D01*
X104927677Y-126306000D02*
X104927677Y-123085000D01*
X104927677Y-120605000D02*
X104927677Y-117384000D01*
X104887677Y-126284000D02*
X104887677Y-123085000D01*
X104887677Y-120605000D02*
X104887677Y-117406000D01*
X104847677Y-126262000D02*
X104847677Y-123085000D01*
X104847677Y-120605000D02*
X104847677Y-117428000D01*
X104807677Y-126239000D02*
X104807677Y-123085000D01*
X104807677Y-120605000D02*
X104807677Y-117451000D01*
X104767677Y-126216000D02*
X104767677Y-123085000D01*
X104767677Y-120605000D02*
X104767677Y-117474000D01*
X104727677Y-126192000D02*
X104727677Y-123085000D01*
X104727677Y-120605000D02*
X104727677Y-117498000D01*
X104687677Y-126168000D02*
X104687677Y-123085000D01*
X104687677Y-120605000D02*
X104687677Y-117522000D01*
X104647677Y-126143000D02*
X104647677Y-123085000D01*
X104647677Y-120605000D02*
X104647677Y-117547000D01*
X104607677Y-126117000D02*
X104607677Y-123085000D01*
X104607677Y-120605000D02*
X104607677Y-117573000D01*
X104567677Y-126092000D02*
X104567677Y-123085000D01*
X104567677Y-120605000D02*
X104567677Y-117598000D01*
X104527677Y-126065000D02*
X104527677Y-123085000D01*
X104527677Y-120605000D02*
X104527677Y-117625000D01*
X104487677Y-126038000D02*
X104487677Y-123085000D01*
X104487677Y-120605000D02*
X104487677Y-117652000D01*
X104447677Y-126011000D02*
X104447677Y-123085000D01*
X104447677Y-120605000D02*
X104447677Y-117679000D01*
X104407677Y-125983000D02*
X104407677Y-123085000D01*
X104407677Y-120605000D02*
X104407677Y-117707000D01*
X104367677Y-125954000D02*
X104367677Y-123085000D01*
X104367677Y-120605000D02*
X104367677Y-117736000D01*
X104327677Y-125925000D02*
X104327677Y-123085000D01*
X104327677Y-120605000D02*
X104327677Y-117765000D01*
X104287677Y-125895000D02*
X104287677Y-123085000D01*
X104287677Y-120605000D02*
X104287677Y-117795000D01*
X104247677Y-125865000D02*
X104247677Y-123085000D01*
X104247677Y-120605000D02*
X104247677Y-117825000D01*
X104207677Y-125833000D02*
X104207677Y-123085000D01*
X104207677Y-120605000D02*
X104207677Y-117857000D01*
X104167677Y-125802000D02*
X104167677Y-123085000D01*
X104167677Y-120605000D02*
X104167677Y-117888000D01*
X104127677Y-125769000D02*
X104127677Y-123085000D01*
X104127677Y-120605000D02*
X104127677Y-117921000D01*
X104087677Y-125736000D02*
X104087677Y-123085000D01*
X104087677Y-120605000D02*
X104087677Y-117954000D01*
X104047677Y-125703000D02*
X104047677Y-123085000D01*
X104047677Y-120605000D02*
X104047677Y-117987000D01*
X104007677Y-125668000D02*
X104007677Y-123085000D01*
X104007677Y-120605000D02*
X104007677Y-118022000D01*
X103967677Y-125633000D02*
X103967677Y-123085000D01*
X103967677Y-120605000D02*
X103967677Y-118057000D01*
X103927677Y-125597000D02*
X103927677Y-123085000D01*
X103927677Y-120605000D02*
X103927677Y-118093000D01*
X103887677Y-125561000D02*
X103887677Y-123085000D01*
X103887677Y-120605000D02*
X103887677Y-118129000D01*
X103847677Y-125523000D02*
X103847677Y-123085000D01*
X103847677Y-120605000D02*
X103847677Y-118167000D01*
X103807677Y-125485000D02*
X103807677Y-123085000D01*
X103807677Y-120605000D02*
X103807677Y-118205000D01*
X103767677Y-125446000D02*
X103767677Y-123085000D01*
X103767677Y-120605000D02*
X103767677Y-118244000D01*
X103727677Y-125406000D02*
X103727677Y-123085000D01*
X103727677Y-120605000D02*
X103727677Y-118284000D01*
X103687677Y-125365000D02*
X103687677Y-123085000D01*
X103687677Y-120605000D02*
X103687677Y-118325000D01*
X103647677Y-125323000D02*
X103647677Y-123085000D01*
X103647677Y-120605000D02*
X103647677Y-118367000D01*
X103607677Y-125280000D02*
X103607677Y-118410000D01*
X103567677Y-125236000D02*
X103567677Y-118454000D01*
X103527677Y-125192000D02*
X103527677Y-118498000D01*
X103487677Y-125146000D02*
X103487677Y-118544000D01*
X103447677Y-125099000D02*
X103447677Y-118591000D01*
X103407677Y-125050000D02*
X103407677Y-118640000D01*
X103367677Y-125001000D02*
X103367677Y-118689000D01*
X103327677Y-124950000D02*
X103327677Y-118740000D01*
X103287677Y-124898000D02*
X103287677Y-118792000D01*
X103247677Y-124845000D02*
X103247677Y-118845000D01*
X103207677Y-124790000D02*
X103207677Y-118900000D01*
X103167677Y-124733000D02*
X103167677Y-118957000D01*
X103127677Y-124675000D02*
X103127677Y-119015000D01*
X103087677Y-124615000D02*
X103087677Y-119075000D01*
X103047677Y-124553000D02*
X103047677Y-119137000D01*
X103007677Y-124489000D02*
X103007677Y-119201000D01*
X102967677Y-124423000D02*
X102967677Y-119267000D01*
X102927677Y-124355000D02*
X102927677Y-119335000D01*
X102887677Y-124284000D02*
X102887677Y-119406000D01*
X102847677Y-124210000D02*
X102847677Y-119480000D01*
X102807677Y-124133000D02*
X102807677Y-119557000D01*
X102767677Y-124053000D02*
X102767677Y-119637000D01*
X102727677Y-123969000D02*
X102727677Y-119721000D01*
X102687677Y-123882000D02*
X102687677Y-119808000D01*
X102647677Y-123789000D02*
X102647677Y-119901000D01*
X102607677Y-123691000D02*
X102607677Y-119999000D01*
X102567677Y-123587000D02*
X102567677Y-120103000D01*
X102527677Y-123475000D02*
X102527677Y-120215000D01*
X102487677Y-123354000D02*
X102487677Y-120336000D01*
X102447677Y-123222000D02*
X102447677Y-120468000D01*
X102407677Y-123075000D02*
X102407677Y-120615000D01*
X102367677Y-122907000D02*
X102367677Y-120783000D01*
X102327677Y-122707000D02*
X102327677Y-120983000D01*
X102287677Y-122444000D02*
X102287677Y-121246000D01*
%TO.C,R2*%
X107500000Y-55305000D02*
X107500000Y-56075000D01*
X107500000Y-63385000D02*
X107500000Y-62615000D01*
X108870000Y-56075000D02*
X106130000Y-56075000D01*
X106130000Y-62615000D01*
X108870000Y-62615000D01*
X108870000Y-56075000D01*
%TO.C,R3*%
X112000000Y-54725000D02*
X112000000Y-55495000D01*
X112000000Y-62805000D02*
X112000000Y-62035000D01*
X113370000Y-55495000D02*
X110630000Y-55495000D01*
X110630000Y-62035000D01*
X113370000Y-62035000D01*
X113370000Y-55495000D01*
%TO.C,R4*%
X116500000Y-55225000D02*
X116500000Y-55995000D01*
X116500000Y-63305000D02*
X116500000Y-62535000D01*
X117870000Y-55995000D02*
X115130000Y-55995000D01*
X115130000Y-62535000D01*
X117870000Y-62535000D01*
X117870000Y-55995000D01*
%TO.C,D3*%
X150805000Y-40446000D02*
X150805000Y-40765000D01*
X150805000Y-42925000D02*
X150805000Y-43244000D01*
X150805000Y-40446251D02*
G75*
G02*
X155108591Y-40765000I2060000J-1398749D01*
G01*
X151181670Y-40765000D02*
G75*
G02*
X154548330Y-40765000I1683330J-1080000D01*
G01*
X154548330Y-42925000D02*
G75*
G02*
X151181670Y-42925000I-1683330J1080000D01*
G01*
X155108591Y-42925000D02*
G75*
G02*
X150805000Y-43243749I-2243591J1080000D01*
G01*
%TO.C,BZ1*%
X180300000Y-120345000D02*
G75*
G02*
X168100000Y-120345000I-6100000J0D01*
G01*
X168100000Y-120345000D02*
G75*
G02*
X180300000Y-120345000I6100000J0D01*
G01*
%TO.C,D1*%
X128060000Y-41765000D02*
X128060000Y-41446000D01*
X128060000Y-44244000D02*
X128060000Y-43925000D01*
X123756409Y-41765000D02*
G75*
G02*
X128060000Y-41446251I2243591J-1080000D01*
G01*
X124316670Y-41765000D02*
G75*
G02*
X127683330Y-41765000I1683330J-1080000D01*
G01*
X127683330Y-43925000D02*
G75*
G02*
X124316670Y-43925000I-1683330J1080000D01*
G01*
X128060000Y-44243749D02*
G75*
G02*
X123756409Y-43925000I-2060000J1398749D01*
G01*
%TO.C,D2*%
X137710000Y-40946000D02*
X137710000Y-41265000D01*
X137710000Y-43425000D02*
X137710000Y-43744000D01*
X137710000Y-40946251D02*
G75*
G02*
X142013591Y-41265000I2060000J-1398749D01*
G01*
X138086670Y-41265000D02*
G75*
G02*
X141453330Y-41265000I1683330J-1080000D01*
G01*
X141453330Y-43425000D02*
G75*
G02*
X138086670Y-43425000I-1683330J1080000D01*
G01*
X142013591Y-43425000D02*
G75*
G02*
X137710000Y-43743749I-2243591J1080000D01*
G01*
%TD*%
M02*
