%TF.GenerationSoftware,KiCad,Pcbnew,9.0.7*%
%TF.CreationDate,2026-02-09T10:13:43+02:00*%
%TF.ProjectId,DoorLock PCB,446f6f72-4c6f-4636-9b20-5043422e6b69,rev?*%
%TF.SameCoordinates,Original*%
%TF.FileFunction,Soldermask,Top*%
%TF.FilePolarity,Negative*%
%FSLAX46Y46*%
G04 Gerber Fmt 4.6, Leading zero omitted, Abs format (unit mm)*
G04 Created by KiCad (PCBNEW 9.0.7) date 2026-02-09 10:13:43*
%MOMM*%
%LPD*%
G01*
G04 APERTURE LIST*
G04 Aperture macros list*
%AMRoundRect*
0 Rectangle with rounded corners*
0 $1 Rounding radius*
0 $2 $3 $4 $5 $6 $7 $8 $9 X,Y pos of 4 corners*
0 Add a 4 corners polygon primitive as box body*
4,1,4,$2,$3,$4,$5,$6,$7,$8,$9,$2,$3,0*
0 Add four circle primitives for the rounded corners*
1,1,$1+$1,$2,$3*
1,1,$1+$1,$4,$5*
1,1,$1+$1,$6,$7*
1,1,$1+$1,$8,$9*
0 Add four rect primitives between the rounded corners*
20,1,$1+$1,$2,$3,$4,$5,0*
20,1,$1+$1,$4,$5,$6,$7,0*
20,1,$1+$1,$6,$7,$8,$9,0*
20,1,$1+$1,$8,$9,$2,$3,0*%
G04 Aperture macros list end*
%ADD10C,3.000000*%
%ADD11C,1.600000*%
%ADD12C,1.800000*%
%ADD13R,1.800000X1.800000*%
%ADD14C,2.200000*%
%ADD15RoundRect,0.249999X-0.850001X-0.850001X0.850001X-0.850001X0.850001X0.850001X-0.850001X0.850001X0*%
%ADD16R,1.700000X1.700000*%
%ADD17C,1.700000*%
%ADD18RoundRect,0.102000X-0.679000X-0.679000X0.679000X-0.679000X0.679000X0.679000X-0.679000X0.679000X0*%
%ADD19C,1.562000*%
%ADD20C,2.000000*%
%ADD21RoundRect,0.250000X0.750000X0.750000X-0.750000X0.750000X-0.750000X-0.750000X0.750000X-0.750000X0*%
%ADD22C,0.800000*%
%ADD23C,6.400000*%
%ADD24R,2.000000X2.000000*%
G04 APERTURE END LIST*
D10*
%TO.C,J3*%
X157750000Y-133500000D03*
%TD*%
%TO.C,Switch-1*%
X164250000Y-133750000D03*
%TD*%
%TO.C,Switch+1*%
X150750000Y-133750000D03*
%TD*%
%TO.C,J2*%
X170250000Y-133250000D03*
%TD*%
D11*
%TO.C,R5*%
X151840000Y-118000000D03*
X162000000Y-118000000D03*
%TD*%
D12*
%TO.C,RED-POWER-STATUS1*%
X150000000Y-126750000D03*
D13*
X147460000Y-126750000D03*
%TD*%
D14*
%TO.C,D4*%
X129250000Y-131250000D03*
D15*
X119090000Y-131250000D03*
%TD*%
D16*
%TO.C,J1*%
X174960000Y-74345000D03*
D17*
X177500000Y-74345000D03*
%TD*%
D16*
%TO.C,M1*%
X123460000Y-121845000D03*
D17*
X126000000Y-121845000D03*
X128540000Y-121845000D03*
%TD*%
D18*
%TO.C,U2*%
X125866177Y-62443500D03*
D19*
X125866177Y-64983500D03*
X125866177Y-67523500D03*
X125866177Y-70063500D03*
X125866177Y-72603500D03*
X125866177Y-75143500D03*
X125866177Y-77683500D03*
X125866177Y-80223500D03*
X125866177Y-82763500D03*
X125866177Y-85303500D03*
X125866177Y-87843500D03*
X125866177Y-90383500D03*
X125866177Y-92923500D03*
X125866177Y-95463500D03*
X125866177Y-98003500D03*
X125866177Y-100543500D03*
X125866177Y-103083500D03*
X125866177Y-105623500D03*
X125866177Y-108163500D03*
X151266177Y-108163500D03*
X151266177Y-105623500D03*
X151266177Y-103083500D03*
X151266177Y-100543500D03*
X151266177Y-98003500D03*
X151266177Y-95463500D03*
X151266177Y-92923500D03*
X151266177Y-90383500D03*
X151266177Y-87843500D03*
X151266177Y-85303500D03*
X151266177Y-82763500D03*
X151266177Y-80223500D03*
X151266177Y-77683500D03*
X151266177Y-75143500D03*
X151266177Y-72603500D03*
X151266177Y-70063500D03*
X151266177Y-67523500D03*
X151266177Y-64983500D03*
X151266177Y-62443500D03*
%TD*%
D20*
%TO.C,C1*%
X104867677Y-121845000D03*
D21*
X109867677Y-121845000D03*
%TD*%
D11*
%TO.C,R2*%
X107500000Y-54265000D03*
X107500000Y-64425000D03*
%TD*%
%TO.C,R3*%
X112000000Y-53685000D03*
X112000000Y-63845000D03*
%TD*%
%TO.C,R4*%
X116500000Y-54185000D03*
X116500000Y-64345000D03*
%TD*%
D22*
%TO.C,H4*%
X102850000Y-131000000D03*
X103552944Y-129302944D03*
X103552944Y-132697056D03*
X105250000Y-128600000D03*
D23*
X105250000Y-131000000D03*
D22*
X105250000Y-133400000D03*
X106947056Y-129302944D03*
X106947056Y-132697056D03*
X107650000Y-131000000D03*
%TD*%
%TO.C,H3*%
X174350000Y-130900000D03*
X175052944Y-129202944D03*
X175052944Y-132597056D03*
X176750000Y-128500000D03*
D23*
X176750000Y-130900000D03*
D22*
X176750000Y-133300000D03*
X178447056Y-129202944D03*
X178447056Y-132597056D03*
X179150000Y-130900000D03*
%TD*%
%TO.C,H2*%
X109150000Y-43500000D03*
X108447056Y-45197056D03*
X108447056Y-41802944D03*
X106750000Y-45900000D03*
D23*
X106750000Y-43500000D03*
D22*
X106750000Y-41100000D03*
X105052944Y-45197056D03*
X105052944Y-41802944D03*
X104350000Y-43500000D03*
%TD*%
%TO.C,H1*%
X174650000Y-43250000D03*
X173947056Y-44947056D03*
X173947056Y-41552944D03*
X172250000Y-45650000D03*
D23*
X172250000Y-43250000D03*
D22*
X172250000Y-40850000D03*
X170552944Y-44947056D03*
X170552944Y-41552944D03*
X169850000Y-43250000D03*
%TD*%
D13*
%TO.C,D3*%
X151595000Y-41845000D03*
D12*
X154135000Y-41845000D03*
%TD*%
D24*
%TO.C,BZ1*%
X170400000Y-120345000D03*
D20*
X178000000Y-120345000D03*
%TD*%
D13*
%TO.C,D1*%
X127270000Y-42845000D03*
D12*
X124730000Y-42845000D03*
%TD*%
D13*
%TO.C,D2*%
X138500000Y-42345000D03*
D12*
X141040000Y-42345000D03*
%TD*%
M02*
