M48
; DRILL file {KiCad 9.0.7} date 2026-02-09T10:13:51+0200
; FORMAT={-:-/ absolute / metric / decimal}
; #@! TF.CreationDate,2026-02-09T10:13:51+02:00
; #@! TF.GenerationSoftware,Kicad,Pcbnew,9.0.7
; #@! TF.FileFunction,Plated,1,2,PTH
FMAT,2
METRIC
; #@! TA.AperFunction,Plated,PTH,ComponentDrill
T1C0.500
; #@! TA.AperFunction,Plated,PTH,ComponentDrill
T2C0.800
; #@! TA.AperFunction,Plated,PTH,ComponentDrill
T3C0.850
; #@! TA.AperFunction,Plated,PTH,ComponentDrill
T4C0.900
; #@! TA.AperFunction,Plated,PTH,ComponentDrill
T5C1.000
; #@! TA.AperFunction,Plated,PTH,ComponentDrill
T6C1.100
; #@! TA.AperFunction,Plated,PTH,ComponentDrill
T7C1.500
; #@! TA.AperFunction,Plated,PTH,ComponentDrill
T8C3.200
%
G90
G05
T1
X102.85Y-131.0
X103.553Y-129.303
X103.553Y-132.697
X104.35Y-43.5
X105.053Y-41.803
X105.053Y-45.197
X105.25Y-128.6
X105.25Y-133.4
X106.75Y-41.1
X106.75Y-45.9
X106.947Y-129.303
X106.947Y-132.697
X107.65Y-131.0
X108.447Y-41.803
X108.447Y-45.197
X109.15Y-43.5
X169.85Y-43.25
X170.553Y-41.553
X170.553Y-44.947
X172.25Y-40.85
X172.25Y-45.65
X173.947Y-41.553
X173.947Y-44.947
X174.35Y-130.9
X174.65Y-43.25
X175.053Y-129.203
X175.053Y-132.597
X176.75Y-128.5
X176.75Y-133.3
X178.447Y-129.203
X178.447Y-132.597
X179.15Y-130.9
T2
X107.5Y-54.265
X107.5Y-64.425
X112.0Y-53.685
X112.0Y-63.845
X116.5Y-54.185
X116.5Y-64.345
X151.84Y-118.0
X162.0Y-118.0
T3
X125.866Y-62.444
X125.866Y-64.983
X125.866Y-67.523
X125.866Y-70.063
X125.866Y-72.603
X125.866Y-75.144
X125.866Y-77.683
X125.866Y-80.224
X125.866Y-82.763
X125.866Y-85.303
X125.866Y-87.843
X125.866Y-90.383
X125.866Y-92.923
X125.866Y-95.463
X125.866Y-98.004
X125.866Y-100.543
X125.866Y-103.084
X125.866Y-105.623
X125.866Y-108.163
X151.266Y-62.444
X151.266Y-64.983
X151.266Y-67.523
X151.266Y-70.063
X151.266Y-72.603
X151.266Y-75.144
X151.266Y-77.683
X151.266Y-80.224
X151.266Y-82.763
X151.266Y-85.303
X151.266Y-87.843
X151.266Y-90.383
X151.266Y-92.923
X151.266Y-95.463
X151.266Y-98.004
X151.266Y-100.543
X151.266Y-103.084
X151.266Y-105.623
X151.266Y-108.163
T4
X124.73Y-42.845
X127.27Y-42.845
X138.5Y-42.345
X141.04Y-42.345
X147.46Y-126.75
X150.0Y-126.75
X151.595Y-41.845
X154.135Y-41.845
T5
X104.868Y-121.845
X109.868Y-121.845
X123.46Y-121.845
X126.0Y-121.845
X128.54Y-121.845
X170.4Y-120.345
X174.96Y-74.345
X177.5Y-74.345
X178.0Y-120.345
T6
X119.09Y-131.25
X129.25Y-131.25
T7
X150.75Y-133.75
X157.75Y-133.5
X164.25Y-133.75
X170.25Y-133.25
T8
X105.25Y-131.0
X106.75Y-43.5
X172.25Y-43.25
X176.75Y-130.9
M30
