M48
; DRILL file {KiCad 9.0.7} date 2026-02-08T15:55:37+0200
; FORMAT={-:-/ absolute / metric / decimal}
; #@! TF.CreationDate,2026-02-08T15:55:37+02:00
; #@! TF.GenerationSoftware,Kicad,Pcbnew,9.0.7
; #@! TF.FileFunction,Plated,1,2,PTH
FMAT,2
METRIC
; #@! TA.AperFunction,Plated,PTH,ComponentDrill
T1C0.800
; #@! TA.AperFunction,Plated,PTH,ComponentDrill
T2C0.850
; #@! TA.AperFunction,Plated,PTH,ComponentDrill
T3C0.900
; #@! TA.AperFunction,Plated,PTH,ComponentDrill
T4C1.000
; #@! TA.AperFunction,Plated,PTH,ComponentDrill
T5C1.100
%
G90
G05
T1
X106.905Y-53.515
X106.905Y-63.675
X111.405Y-52.935
X111.405Y-63.095
X115.905Y-53.435
X115.905Y-63.595
T2
X125.271Y-61.694
X125.271Y-64.233
X125.271Y-66.773
X125.271Y-69.313
X125.271Y-71.853
X125.271Y-74.394
X125.271Y-76.933
X125.271Y-79.474
X125.271Y-82.013
X125.271Y-84.553
X125.271Y-87.093
X125.271Y-89.633
X125.271Y-92.173
X125.271Y-94.713
X125.271Y-97.254
X125.271Y-99.793
X125.271Y-102.334
X125.271Y-104.873
X125.271Y-107.413
X150.671Y-61.694
X150.671Y-64.233
X150.671Y-66.773
X150.671Y-69.313
X150.671Y-71.853
X150.671Y-74.394
X150.671Y-76.933
X150.671Y-79.474
X150.671Y-82.013
X150.671Y-84.553
X150.671Y-87.093
X150.671Y-89.633
X150.671Y-92.173
X150.671Y-94.713
X150.671Y-97.254
X150.671Y-99.793
X150.671Y-102.334
X150.671Y-104.873
X150.671Y-107.413
T3
X124.135Y-42.095
X126.675Y-42.095
X137.905Y-41.595
X140.445Y-41.595
X151.0Y-41.095
X153.54Y-41.095
T4
X104.273Y-121.095
X109.273Y-121.095
X122.865Y-121.095
X125.405Y-121.095
X127.945Y-121.095
X169.805Y-119.595
X174.365Y-73.595
X176.905Y-73.595
X177.405Y-119.595
T5
X118.995Y-130.595
X129.155Y-130.595
M30
