%TF.GenerationSoftware,KiCad,Pcbnew,9.0.7*%
%TF.CreationDate,2026-02-08T15:55:18+02:00*%
%TF.ProjectId,DoorLock PCB,446f6f72-4c6f-4636-9b20-5043422e6b69,rev?*%
%TF.SameCoordinates,Original*%
%TF.FileFunction,Soldermask,Bot*%
%TF.FilePolarity,Negative*%
%FSLAX46Y46*%
G04 Gerber Fmt 4.6, Leading zero omitted, Abs format (unit mm)*
G04 Created by KiCad (PCBNEW 9.0.7) date 2026-02-08 15:55:18*
%MOMM*%
%LPD*%
G01*
G04 APERTURE LIST*
G04 Aperture macros list*
%AMRoundRect*
0 Rectangle with rounded corners*
0 $1 Rounding radius*
0 $2 $3 $4 $5 $6 $7 $8 $9 X,Y pos of 4 corners*
0 Add a 4 corners polygon primitive as box body*
4,1,4,$2,$3,$4,$5,$6,$7,$8,$9,$2,$3,0*
0 Add four circle primitives for the rounded corners*
1,1,$1+$1,$2,$3*
1,1,$1+$1,$4,$5*
1,1,$1+$1,$6,$7*
1,1,$1+$1,$8,$9*
0 Add four rect primitives between the rounded corners*
20,1,$1+$1,$2,$3,$4,$5,0*
20,1,$1+$1,$4,$5,$6,$7,0*
20,1,$1+$1,$6,$7,$8,$9,0*
20,1,$1+$1,$8,$9,$2,$3,0*%
G04 Aperture macros list end*
%ADD10C,0.600000*%
%ADD11C,1.600000*%
%ADD12R,1.800000X1.800000*%
%ADD13C,1.800000*%
%ADD14RoundRect,0.249999X-0.850001X-0.850001X0.850001X-0.850001X0.850001X0.850001X-0.850001X0.850001X0*%
%ADD15C,2.200000*%
%ADD16R,2.000000X2.000000*%
%ADD17C,2.000000*%
%ADD18R,1.700000X1.700000*%
%ADD19C,1.700000*%
%ADD20RoundRect,0.250000X0.750000X0.750000X-0.750000X0.750000X-0.750000X-0.750000X0.750000X-0.750000X0*%
%ADD21RoundRect,0.102000X-0.679000X-0.679000X0.679000X-0.679000X0.679000X0.679000X-0.679000X0.679000X0*%
%ADD22C,1.562000*%
G04 APERTURE END LIST*
D10*
X147938835Y-113232371D02*
X147795978Y-113089514D01*
X147795978Y-113089514D02*
X147510264Y-112946657D01*
X147510264Y-112946657D02*
X146795978Y-112946657D01*
X146795978Y-112946657D02*
X146510264Y-113089514D01*
X146510264Y-113089514D02*
X146367406Y-113232371D01*
X146367406Y-113232371D02*
X146224549Y-113518085D01*
X146224549Y-113518085D02*
X146224549Y-113803800D01*
X146224549Y-113803800D02*
X146367406Y-114232371D01*
X146367406Y-114232371D02*
X148081692Y-115946657D01*
X148081692Y-115946657D02*
X146224549Y-115946657D01*
X142795978Y-112803800D02*
X145367406Y-116660942D01*
X141367406Y-114232371D02*
X141653121Y-114089514D01*
X141653121Y-114089514D02*
X141795978Y-113946657D01*
X141795978Y-113946657D02*
X141938835Y-113660942D01*
X141938835Y-113660942D02*
X141938835Y-113518085D01*
X141938835Y-113518085D02*
X141795978Y-113232371D01*
X141795978Y-113232371D02*
X141653121Y-113089514D01*
X141653121Y-113089514D02*
X141367406Y-112946657D01*
X141367406Y-112946657D02*
X140795978Y-112946657D01*
X140795978Y-112946657D02*
X140510264Y-113089514D01*
X140510264Y-113089514D02*
X140367406Y-113232371D01*
X140367406Y-113232371D02*
X140224549Y-113518085D01*
X140224549Y-113518085D02*
X140224549Y-113660942D01*
X140224549Y-113660942D02*
X140367406Y-113946657D01*
X140367406Y-113946657D02*
X140510264Y-114089514D01*
X140510264Y-114089514D02*
X140795978Y-114232371D01*
X140795978Y-114232371D02*
X141367406Y-114232371D01*
X141367406Y-114232371D02*
X141653121Y-114375228D01*
X141653121Y-114375228D02*
X141795978Y-114518085D01*
X141795978Y-114518085D02*
X141938835Y-114803800D01*
X141938835Y-114803800D02*
X141938835Y-115375228D01*
X141938835Y-115375228D02*
X141795978Y-115660942D01*
X141795978Y-115660942D02*
X141653121Y-115803800D01*
X141653121Y-115803800D02*
X141367406Y-115946657D01*
X141367406Y-115946657D02*
X140795978Y-115946657D01*
X140795978Y-115946657D02*
X140510264Y-115803800D01*
X140510264Y-115803800D02*
X140367406Y-115660942D01*
X140367406Y-115660942D02*
X140224549Y-115375228D01*
X140224549Y-115375228D02*
X140224549Y-114803800D01*
X140224549Y-114803800D02*
X140367406Y-114518085D01*
X140367406Y-114518085D02*
X140510264Y-114375228D01*
X140510264Y-114375228D02*
X140795978Y-114232371D01*
X136795978Y-112803800D02*
X139367406Y-116660942D01*
X135938835Y-113232371D02*
X135795978Y-113089514D01*
X135795978Y-113089514D02*
X135510264Y-112946657D01*
X135510264Y-112946657D02*
X134795978Y-112946657D01*
X134795978Y-112946657D02*
X134510264Y-113089514D01*
X134510264Y-113089514D02*
X134367406Y-113232371D01*
X134367406Y-113232371D02*
X134224549Y-113518085D01*
X134224549Y-113518085D02*
X134224549Y-113803800D01*
X134224549Y-113803800D02*
X134367406Y-114232371D01*
X134367406Y-114232371D02*
X136081692Y-115946657D01*
X136081692Y-115946657D02*
X134224549Y-115946657D01*
X132367406Y-112946657D02*
X132081692Y-112946657D01*
X132081692Y-112946657D02*
X131795978Y-113089514D01*
X131795978Y-113089514D02*
X131653121Y-113232371D01*
X131653121Y-113232371D02*
X131510263Y-113518085D01*
X131510263Y-113518085D02*
X131367406Y-114089514D01*
X131367406Y-114089514D02*
X131367406Y-114803800D01*
X131367406Y-114803800D02*
X131510263Y-115375228D01*
X131510263Y-115375228D02*
X131653121Y-115660942D01*
X131653121Y-115660942D02*
X131795978Y-115803800D01*
X131795978Y-115803800D02*
X132081692Y-115946657D01*
X132081692Y-115946657D02*
X132367406Y-115946657D01*
X132367406Y-115946657D02*
X132653121Y-115803800D01*
X132653121Y-115803800D02*
X132795978Y-115660942D01*
X132795978Y-115660942D02*
X132938835Y-115375228D01*
X132938835Y-115375228D02*
X133081692Y-114803800D01*
X133081692Y-114803800D02*
X133081692Y-114089514D01*
X133081692Y-114089514D02*
X132938835Y-113518085D01*
X132938835Y-113518085D02*
X132795978Y-113232371D01*
X132795978Y-113232371D02*
X132653121Y-113089514D01*
X132653121Y-113089514D02*
X132367406Y-112946657D01*
X130224549Y-113232371D02*
X130081692Y-113089514D01*
X130081692Y-113089514D02*
X129795978Y-112946657D01*
X129795978Y-112946657D02*
X129081692Y-112946657D01*
X129081692Y-112946657D02*
X128795978Y-113089514D01*
X128795978Y-113089514D02*
X128653120Y-113232371D01*
X128653120Y-113232371D02*
X128510263Y-113518085D01*
X128510263Y-113518085D02*
X128510263Y-113803800D01*
X128510263Y-113803800D02*
X128653120Y-114232371D01*
X128653120Y-114232371D02*
X130367406Y-115946657D01*
X130367406Y-115946657D02*
X128510263Y-115946657D01*
X125938835Y-112946657D02*
X126510263Y-112946657D01*
X126510263Y-112946657D02*
X126795977Y-113089514D01*
X126795977Y-113089514D02*
X126938835Y-113232371D01*
X126938835Y-113232371D02*
X127224549Y-113660942D01*
X127224549Y-113660942D02*
X127367406Y-114232371D01*
X127367406Y-114232371D02*
X127367406Y-115375228D01*
X127367406Y-115375228D02*
X127224549Y-115660942D01*
X127224549Y-115660942D02*
X127081692Y-115803800D01*
X127081692Y-115803800D02*
X126795977Y-115946657D01*
X126795977Y-115946657D02*
X126224549Y-115946657D01*
X126224549Y-115946657D02*
X125938835Y-115803800D01*
X125938835Y-115803800D02*
X125795977Y-115660942D01*
X125795977Y-115660942D02*
X125653120Y-115375228D01*
X125653120Y-115375228D02*
X125653120Y-114660942D01*
X125653120Y-114660942D02*
X125795977Y-114375228D01*
X125795977Y-114375228D02*
X125938835Y-114232371D01*
X125938835Y-114232371D02*
X126224549Y-114089514D01*
X126224549Y-114089514D02*
X126795977Y-114089514D01*
X126795977Y-114089514D02*
X127081692Y-114232371D01*
X127081692Y-114232371D02*
X127224549Y-114375228D01*
X127224549Y-114375228D02*
X127367406Y-114660942D01*
D11*
%TO.C,R3*%
X111405000Y-52935000D03*
X111405000Y-63095000D03*
%TD*%
D12*
%TO.C,D3*%
X151000000Y-41095000D03*
D13*
X153540000Y-41095000D03*
%TD*%
D14*
%TO.C,Diode*%
X118995000Y-130595000D03*
D15*
X129155000Y-130595000D03*
%TD*%
D11*
%TO.C,R2*%
X106905000Y-53515000D03*
X106905000Y-63675000D03*
%TD*%
D16*
%TO.C,BZ1*%
X169805000Y-119595000D03*
D17*
X177405000Y-119595000D03*
%TD*%
D11*
%TO.C,R4*%
X115905000Y-53435000D03*
X115905000Y-63595000D03*
%TD*%
D12*
%TO.C,D1*%
X126675000Y-42095000D03*
D13*
X124135000Y-42095000D03*
%TD*%
D18*
%TO.C,M1*%
X122865000Y-121095000D03*
D19*
X125405000Y-121095000D03*
X127945000Y-121095000D03*
%TD*%
D20*
%TO.C,C1*%
X109272677Y-121095000D03*
D17*
X104272677Y-121095000D03*
%TD*%
D18*
%TO.C,J1*%
X174365000Y-73595000D03*
D19*
X176905000Y-73595000D03*
%TD*%
D21*
%TO.C,ESP32 (38 PIN)*%
X125271177Y-61693500D03*
D22*
X125271177Y-64233500D03*
X125271177Y-66773500D03*
X125271177Y-69313500D03*
X125271177Y-71853500D03*
X125271177Y-74393500D03*
X125271177Y-76933500D03*
X125271177Y-79473500D03*
X125271177Y-82013500D03*
X125271177Y-84553500D03*
X125271177Y-87093500D03*
X125271177Y-89633500D03*
X125271177Y-92173500D03*
X125271177Y-94713500D03*
X125271177Y-97253500D03*
X125271177Y-99793500D03*
X125271177Y-102333500D03*
X125271177Y-104873500D03*
X125271177Y-107413500D03*
X150671177Y-107413500D03*
X150671177Y-104873500D03*
X150671177Y-102333500D03*
X150671177Y-99793500D03*
X150671177Y-97253500D03*
X150671177Y-94713500D03*
X150671177Y-92173500D03*
X150671177Y-89633500D03*
X150671177Y-87093500D03*
X150671177Y-84553500D03*
X150671177Y-82013500D03*
X150671177Y-79473500D03*
X150671177Y-76933500D03*
X150671177Y-74393500D03*
X150671177Y-71853500D03*
X150671177Y-69313500D03*
X150671177Y-66773500D03*
X150671177Y-64233500D03*
X150671177Y-61693500D03*
%TD*%
D12*
%TO.C,D2*%
X137905000Y-41595000D03*
D13*
X140445000Y-41595000D03*
%TD*%
M02*
