%TF.GenerationSoftware,KiCad,Pcbnew,9.0.7*%
%TF.CreationDate,2026-02-08T15:55:18+02:00*%
%TF.ProjectId,DoorLock PCB,446f6f72-4c6f-4636-9b20-5043422e6b69,rev?*%
%TF.SameCoordinates,Original*%
%TF.FileFunction,Soldermask,Top*%
%TF.FilePolarity,Negative*%
%FSLAX46Y46*%
G04 Gerber Fmt 4.6, Leading zero omitted, Abs format (unit mm)*
G04 Created by KiCad (PCBNEW 9.0.7) date 2026-02-08 15:55:18*
%MOMM*%
%LPD*%
G01*
G04 APERTURE LIST*
G04 Aperture macros list*
%AMRoundRect*
0 Rectangle with rounded corners*
0 $1 Rounding radius*
0 $2 $3 $4 $5 $6 $7 $8 $9 X,Y pos of 4 corners*
0 Add a 4 corners polygon primitive as box body*
4,1,4,$2,$3,$4,$5,$6,$7,$8,$9,$2,$3,0*
0 Add four circle primitives for the rounded corners*
1,1,$1+$1,$2,$3*
1,1,$1+$1,$4,$5*
1,1,$1+$1,$6,$7*
1,1,$1+$1,$8,$9*
0 Add four rect primitives between the rounded corners*
20,1,$1+$1,$2,$3,$4,$5,0*
20,1,$1+$1,$4,$5,$6,$7,0*
20,1,$1+$1,$6,$7,$8,$9,0*
20,1,$1+$1,$8,$9,$2,$3,0*%
G04 Aperture macros list end*
%ADD10C,1.600000*%
%ADD11R,1.800000X1.800000*%
%ADD12C,1.800000*%
%ADD13RoundRect,0.249999X-0.850001X-0.850001X0.850001X-0.850001X0.850001X0.850001X-0.850001X0.850001X0*%
%ADD14C,2.200000*%
%ADD15R,2.000000X2.000000*%
%ADD16C,2.000000*%
%ADD17R,1.700000X1.700000*%
%ADD18C,1.700000*%
%ADD19RoundRect,0.250000X0.750000X0.750000X-0.750000X0.750000X-0.750000X-0.750000X0.750000X-0.750000X0*%
%ADD20RoundRect,0.102000X-0.679000X-0.679000X0.679000X-0.679000X0.679000X0.679000X-0.679000X0.679000X0*%
%ADD21C,1.562000*%
G04 APERTURE END LIST*
D10*
%TO.C,R3*%
X111405000Y-52935000D03*
X111405000Y-63095000D03*
%TD*%
D11*
%TO.C,D3*%
X151000000Y-41095000D03*
D12*
X153540000Y-41095000D03*
%TD*%
D13*
%TO.C,Diode*%
X118995000Y-130595000D03*
D14*
X129155000Y-130595000D03*
%TD*%
D10*
%TO.C,R2*%
X106905000Y-53515000D03*
X106905000Y-63675000D03*
%TD*%
D15*
%TO.C,BZ1*%
X169805000Y-119595000D03*
D16*
X177405000Y-119595000D03*
%TD*%
D10*
%TO.C,R4*%
X115905000Y-53435000D03*
X115905000Y-63595000D03*
%TD*%
D11*
%TO.C,D1*%
X126675000Y-42095000D03*
D12*
X124135000Y-42095000D03*
%TD*%
D17*
%TO.C,M1*%
X122865000Y-121095000D03*
D18*
X125405000Y-121095000D03*
X127945000Y-121095000D03*
%TD*%
D19*
%TO.C,C1*%
X109272677Y-121095000D03*
D16*
X104272677Y-121095000D03*
%TD*%
D17*
%TO.C,J1*%
X174365000Y-73595000D03*
D18*
X176905000Y-73595000D03*
%TD*%
D20*
%TO.C,ESP32 (38 PIN)*%
X125271177Y-61693500D03*
D21*
X125271177Y-64233500D03*
X125271177Y-66773500D03*
X125271177Y-69313500D03*
X125271177Y-71853500D03*
X125271177Y-74393500D03*
X125271177Y-76933500D03*
X125271177Y-79473500D03*
X125271177Y-82013500D03*
X125271177Y-84553500D03*
X125271177Y-87093500D03*
X125271177Y-89633500D03*
X125271177Y-92173500D03*
X125271177Y-94713500D03*
X125271177Y-97253500D03*
X125271177Y-99793500D03*
X125271177Y-102333500D03*
X125271177Y-104873500D03*
X125271177Y-107413500D03*
X150671177Y-107413500D03*
X150671177Y-104873500D03*
X150671177Y-102333500D03*
X150671177Y-99793500D03*
X150671177Y-97253500D03*
X150671177Y-94713500D03*
X150671177Y-92173500D03*
X150671177Y-89633500D03*
X150671177Y-87093500D03*
X150671177Y-84553500D03*
X150671177Y-82013500D03*
X150671177Y-79473500D03*
X150671177Y-76933500D03*
X150671177Y-74393500D03*
X150671177Y-71853500D03*
X150671177Y-69313500D03*
X150671177Y-66773500D03*
X150671177Y-64233500D03*
X150671177Y-61693500D03*
%TD*%
D11*
%TO.C,D2*%
X137905000Y-41595000D03*
D12*
X140445000Y-41595000D03*
%TD*%
M02*
