%TF.GenerationSoftware,KiCad,Pcbnew,9.0.7*%
%TF.CreationDate,2026-02-08T15:55:18+02:00*%
%TF.ProjectId,DoorLock PCB,446f6f72-4c6f-4636-9b20-5043422e6b69,rev?*%
%TF.SameCoordinates,Original*%
%TF.FileFunction,Legend,Top*%
%TF.FilePolarity,Positive*%
%FSLAX46Y46*%
G04 Gerber Fmt 4.6, Leading zero omitted, Abs format (unit mm)*
G04 Created by KiCad (PCBNEW 9.0.7) date 2026-02-08 15:55:18*
%MOMM*%
%LPD*%
G01*
G04 APERTURE LIST*
%ADD10C,0.250000*%
%ADD11C,0.600000*%
%ADD12C,0.100000*%
%ADD13C,0.150000*%
%ADD14C,0.400000*%
%ADD15C,0.200000*%
%ADD16C,0.875000*%
%ADD17C,0.120000*%
%ADD18C,0.127000*%
G04 APERTURE END LIST*
D10*
X154002431Y-44611333D02*
X153240527Y-44611333D01*
X153621479Y-44230380D02*
X153621479Y-44992285D01*
X151240526Y-44611333D02*
X150478622Y-44611333D01*
D11*
X168863800Y-106378835D02*
X169006657Y-105950264D01*
X169006657Y-105950264D02*
X169006657Y-105235978D01*
X169006657Y-105235978D02*
X168863800Y-104950264D01*
X168863800Y-104950264D02*
X168720942Y-104807406D01*
X168720942Y-104807406D02*
X168435228Y-104664549D01*
X168435228Y-104664549D02*
X168149514Y-104664549D01*
X168149514Y-104664549D02*
X167863800Y-104807406D01*
X167863800Y-104807406D02*
X167720942Y-104950264D01*
X167720942Y-104950264D02*
X167578085Y-105235978D01*
X167578085Y-105235978D02*
X167435228Y-105807406D01*
X167435228Y-105807406D02*
X167292371Y-106093121D01*
X167292371Y-106093121D02*
X167149514Y-106235978D01*
X167149514Y-106235978D02*
X166863800Y-106378835D01*
X166863800Y-106378835D02*
X166578085Y-106378835D01*
X166578085Y-106378835D02*
X166292371Y-106235978D01*
X166292371Y-106235978D02*
X166149514Y-106093121D01*
X166149514Y-106093121D02*
X166006657Y-105807406D01*
X166006657Y-105807406D02*
X166006657Y-105093121D01*
X166006657Y-105093121D02*
X166149514Y-104664549D01*
X169006657Y-103378835D02*
X167006657Y-103378835D01*
X167292371Y-103378835D02*
X167149514Y-103235978D01*
X167149514Y-103235978D02*
X167006657Y-102950263D01*
X167006657Y-102950263D02*
X167006657Y-102521692D01*
X167006657Y-102521692D02*
X167149514Y-102235978D01*
X167149514Y-102235978D02*
X167435228Y-102093121D01*
X167435228Y-102093121D02*
X169006657Y-102093121D01*
X167435228Y-102093121D02*
X167149514Y-101950263D01*
X167149514Y-101950263D02*
X167006657Y-101664549D01*
X167006657Y-101664549D02*
X167006657Y-101235978D01*
X167006657Y-101235978D02*
X167149514Y-100950263D01*
X167149514Y-100950263D02*
X167435228Y-100807406D01*
X167435228Y-100807406D02*
X169006657Y-100807406D01*
X169006657Y-98093121D02*
X167435228Y-98093121D01*
X167435228Y-98093121D02*
X167149514Y-98235978D01*
X167149514Y-98235978D02*
X167006657Y-98521692D01*
X167006657Y-98521692D02*
X167006657Y-99093121D01*
X167006657Y-99093121D02*
X167149514Y-99378835D01*
X168863800Y-98093121D02*
X169006657Y-98378835D01*
X169006657Y-98378835D02*
X169006657Y-99093121D01*
X169006657Y-99093121D02*
X168863800Y-99378835D01*
X168863800Y-99378835D02*
X168578085Y-99521692D01*
X168578085Y-99521692D02*
X168292371Y-99521692D01*
X168292371Y-99521692D02*
X168006657Y-99378835D01*
X168006657Y-99378835D02*
X167863800Y-99093121D01*
X167863800Y-99093121D02*
X167863800Y-98378835D01*
X167863800Y-98378835D02*
X167720942Y-98093121D01*
X169006657Y-96664549D02*
X167006657Y-96664549D01*
X167578085Y-96664549D02*
X167292371Y-96521692D01*
X167292371Y-96521692D02*
X167149514Y-96378835D01*
X167149514Y-96378835D02*
X167006657Y-96093120D01*
X167006657Y-96093120D02*
X167006657Y-95807406D01*
X167006657Y-95235977D02*
X167006657Y-94093120D01*
X166006657Y-94807406D02*
X168578085Y-94807406D01*
X168578085Y-94807406D02*
X168863800Y-94664549D01*
X168863800Y-94664549D02*
X169006657Y-94378834D01*
X169006657Y-94378834D02*
X169006657Y-94093120D01*
X169006657Y-90807406D02*
X166006657Y-90807406D01*
X166006657Y-90807406D02*
X169006657Y-89093120D01*
X169006657Y-89093120D02*
X166006657Y-89093120D01*
X167435228Y-86664549D02*
X167435228Y-87664549D01*
X169006657Y-87664549D02*
X166006657Y-87664549D01*
X166006657Y-87664549D02*
X166006657Y-86235977D01*
X168720942Y-83378834D02*
X168863800Y-83521691D01*
X168863800Y-83521691D02*
X169006657Y-83950263D01*
X169006657Y-83950263D02*
X169006657Y-84235977D01*
X169006657Y-84235977D02*
X168863800Y-84664548D01*
X168863800Y-84664548D02*
X168578085Y-84950263D01*
X168578085Y-84950263D02*
X168292371Y-85093120D01*
X168292371Y-85093120D02*
X167720942Y-85235977D01*
X167720942Y-85235977D02*
X167292371Y-85235977D01*
X167292371Y-85235977D02*
X166720942Y-85093120D01*
X166720942Y-85093120D02*
X166435228Y-84950263D01*
X166435228Y-84950263D02*
X166149514Y-84664548D01*
X166149514Y-84664548D02*
X166006657Y-84235977D01*
X166006657Y-84235977D02*
X166006657Y-83950263D01*
X166006657Y-83950263D02*
X166149514Y-83521691D01*
X166149514Y-83521691D02*
X166292371Y-83378834D01*
X169006657Y-79378834D02*
X168863800Y-79664549D01*
X168863800Y-79664549D02*
X168578085Y-79807406D01*
X168578085Y-79807406D02*
X166006657Y-79807406D01*
X169006657Y-77807405D02*
X168863800Y-78093120D01*
X168863800Y-78093120D02*
X168720942Y-78235977D01*
X168720942Y-78235977D02*
X168435228Y-78378834D01*
X168435228Y-78378834D02*
X167578085Y-78378834D01*
X167578085Y-78378834D02*
X167292371Y-78235977D01*
X167292371Y-78235977D02*
X167149514Y-78093120D01*
X167149514Y-78093120D02*
X167006657Y-77807405D01*
X167006657Y-77807405D02*
X167006657Y-77378834D01*
X167006657Y-77378834D02*
X167149514Y-77093120D01*
X167149514Y-77093120D02*
X167292371Y-76950263D01*
X167292371Y-76950263D02*
X167578085Y-76807405D01*
X167578085Y-76807405D02*
X168435228Y-76807405D01*
X168435228Y-76807405D02*
X168720942Y-76950263D01*
X168720942Y-76950263D02*
X168863800Y-77093120D01*
X168863800Y-77093120D02*
X169006657Y-77378834D01*
X169006657Y-77378834D02*
X169006657Y-77807405D01*
X168863800Y-74235977D02*
X169006657Y-74521691D01*
X169006657Y-74521691D02*
X169006657Y-75093119D01*
X169006657Y-75093119D02*
X168863800Y-75378834D01*
X168863800Y-75378834D02*
X168720942Y-75521691D01*
X168720942Y-75521691D02*
X168435228Y-75664548D01*
X168435228Y-75664548D02*
X167578085Y-75664548D01*
X167578085Y-75664548D02*
X167292371Y-75521691D01*
X167292371Y-75521691D02*
X167149514Y-75378834D01*
X167149514Y-75378834D02*
X167006657Y-75093119D01*
X167006657Y-75093119D02*
X167006657Y-74521691D01*
X167006657Y-74521691D02*
X167149514Y-74235977D01*
X169006657Y-72950262D02*
X166006657Y-72950262D01*
X167863800Y-72664548D02*
X169006657Y-71807405D01*
X167006657Y-71807405D02*
X168149514Y-72950262D01*
D10*
X140752431Y-45111333D02*
X139990527Y-45111333D01*
X140371479Y-44730380D02*
X140371479Y-45492285D01*
X137990526Y-45111333D02*
X137228622Y-45111333D01*
D12*
X101208884Y-114836466D02*
X101970789Y-114836466D01*
D13*
X169241779Y-113606133D02*
X170003684Y-113606133D01*
X169622731Y-113225180D02*
X169622731Y-113987085D01*
D14*
X167389438Y-64891366D02*
X169389438Y-64224700D01*
X169389438Y-64224700D02*
X167389438Y-63558033D01*
X168056104Y-62986604D02*
X168056104Y-61558033D01*
X167198961Y-62415176D02*
X169770390Y-62986604D01*
X168913247Y-61748509D02*
X168913247Y-63177080D01*
X169770390Y-62319937D02*
X167198961Y-61748509D01*
X167389438Y-60510414D02*
X167389438Y-60319937D01*
X167389438Y-60319937D02*
X167484676Y-60129461D01*
X167484676Y-60129461D02*
X167579914Y-60034223D01*
X167579914Y-60034223D02*
X167770390Y-59938985D01*
X167770390Y-59938985D02*
X168151342Y-59843747D01*
X168151342Y-59843747D02*
X168627533Y-59843747D01*
X168627533Y-59843747D02*
X169008485Y-59938985D01*
X169008485Y-59938985D02*
X169198961Y-60034223D01*
X169198961Y-60034223D02*
X169294200Y-60129461D01*
X169294200Y-60129461D02*
X169389438Y-60319937D01*
X169389438Y-60319937D02*
X169389438Y-60510414D01*
X169389438Y-60510414D02*
X169294200Y-60700890D01*
X169294200Y-60700890D02*
X169198961Y-60796128D01*
X169198961Y-60796128D02*
X169008485Y-60891366D01*
X169008485Y-60891366D02*
X168627533Y-60986604D01*
X168627533Y-60986604D02*
X168151342Y-60986604D01*
X168151342Y-60986604D02*
X167770390Y-60891366D01*
X167770390Y-60891366D02*
X167579914Y-60796128D01*
X167579914Y-60796128D02*
X167484676Y-60700890D01*
X167484676Y-60700890D02*
X167389438Y-60510414D01*
X167389438Y-58605652D02*
X167389438Y-58415175D01*
X167389438Y-58415175D02*
X167484676Y-58224699D01*
X167484676Y-58224699D02*
X167579914Y-58129461D01*
X167579914Y-58129461D02*
X167770390Y-58034223D01*
X167770390Y-58034223D02*
X168151342Y-57938985D01*
X168151342Y-57938985D02*
X168627533Y-57938985D01*
X168627533Y-57938985D02*
X169008485Y-58034223D01*
X169008485Y-58034223D02*
X169198961Y-58129461D01*
X169198961Y-58129461D02*
X169294200Y-58224699D01*
X169294200Y-58224699D02*
X169389438Y-58415175D01*
X169389438Y-58415175D02*
X169389438Y-58605652D01*
X169389438Y-58605652D02*
X169294200Y-58796128D01*
X169294200Y-58796128D02*
X169198961Y-58891366D01*
X169198961Y-58891366D02*
X169008485Y-58986604D01*
X169008485Y-58986604D02*
X168627533Y-59081842D01*
X168627533Y-59081842D02*
X168151342Y-59081842D01*
X168151342Y-59081842D02*
X167770390Y-58986604D01*
X167770390Y-58986604D02*
X167579914Y-58891366D01*
X167579914Y-58891366D02*
X167484676Y-58796128D01*
X167484676Y-58796128D02*
X167389438Y-58605652D01*
X169389438Y-56034223D02*
X169389438Y-57177080D01*
X169389438Y-56605652D02*
X167389438Y-56605652D01*
X167389438Y-56605652D02*
X167675152Y-56796128D01*
X167675152Y-56796128D02*
X167865628Y-56986604D01*
X167865628Y-56986604D02*
X167960866Y-57177080D01*
D12*
X177601115Y-113353533D02*
X176839211Y-113353533D01*
D15*
X124786578Y-123581266D02*
X125548483Y-123581266D01*
X125167530Y-123962219D02*
X125167530Y-123200314D01*
X127548483Y-123581266D02*
X128310388Y-123581266D01*
D11*
X173014021Y-68803800D02*
X175299736Y-68803800D01*
X174156878Y-69946657D02*
X174156878Y-67660942D01*
X176264021Y-68803800D02*
X178549736Y-68803800D01*
D16*
X158086167Y-107511665D02*
X158086167Y-105178332D01*
X161752834Y-104178332D02*
X161752834Y-107511665D01*
X161752834Y-107511665D02*
X154752834Y-107511665D01*
X154752834Y-107511665D02*
X154752834Y-104178332D01*
X157086167Y-101178332D02*
X161752834Y-101178332D01*
X157752834Y-101178332D02*
X157419501Y-100844999D01*
X157419501Y-100844999D02*
X157086167Y-100178332D01*
X157086167Y-100178332D02*
X157086167Y-99178332D01*
X157086167Y-99178332D02*
X157419501Y-98511665D01*
X157419501Y-98511665D02*
X158086167Y-98178332D01*
X158086167Y-98178332D02*
X161752834Y-98178332D01*
X157086167Y-91844999D02*
X162752834Y-91844999D01*
X162752834Y-91844999D02*
X163419501Y-92178332D01*
X163419501Y-92178332D02*
X163752834Y-92511666D01*
X163752834Y-92511666D02*
X164086167Y-93178332D01*
X164086167Y-93178332D02*
X164086167Y-94178332D01*
X164086167Y-94178332D02*
X163752834Y-94844999D01*
X161419501Y-91844999D02*
X161752834Y-92511666D01*
X161752834Y-92511666D02*
X161752834Y-93844999D01*
X161752834Y-93844999D02*
X161419501Y-94511666D01*
X161419501Y-94511666D02*
X161086167Y-94844999D01*
X161086167Y-94844999D02*
X160419501Y-95178332D01*
X160419501Y-95178332D02*
X158419501Y-95178332D01*
X158419501Y-95178332D02*
X157752834Y-94844999D01*
X157752834Y-94844999D02*
X157419501Y-94511666D01*
X157419501Y-94511666D02*
X157086167Y-93844999D01*
X157086167Y-93844999D02*
X157086167Y-92511666D01*
X157086167Y-92511666D02*
X157419501Y-91844999D01*
X158086167Y-83178333D02*
X158086167Y-80845000D01*
X161752834Y-79845000D02*
X161752834Y-83178333D01*
X161752834Y-83178333D02*
X154752834Y-83178333D01*
X154752834Y-83178333D02*
X154752834Y-79845000D01*
X157086167Y-77511667D02*
X157086167Y-73845000D01*
X157086167Y-73845000D02*
X161752834Y-77511667D01*
X161752834Y-77511667D02*
X161752834Y-73845000D01*
X157086167Y-71845000D02*
X157086167Y-68178333D01*
X157086167Y-68178333D02*
X161752834Y-71845000D01*
X161752834Y-71845000D02*
X161752834Y-68178333D01*
X161752834Y-65511666D02*
X154752834Y-65511666D01*
X154752834Y-65511666D02*
X161752834Y-61511666D01*
X161752834Y-61511666D02*
X154752834Y-61511666D01*
X161752834Y-55178333D02*
X158086167Y-55178333D01*
X158086167Y-55178333D02*
X157419501Y-55511666D01*
X157419501Y-55511666D02*
X157086167Y-56178333D01*
X157086167Y-56178333D02*
X157086167Y-57511666D01*
X157086167Y-57511666D02*
X157419501Y-58178333D01*
X161419501Y-55178333D02*
X161752834Y-55845000D01*
X161752834Y-55845000D02*
X161752834Y-57511666D01*
X161752834Y-57511666D02*
X161419501Y-58178333D01*
X161419501Y-58178333D02*
X160752834Y-58511666D01*
X160752834Y-58511666D02*
X160086167Y-58511666D01*
X160086167Y-58511666D02*
X159419501Y-58178333D01*
X159419501Y-58178333D02*
X159086167Y-57511666D01*
X159086167Y-57511666D02*
X159086167Y-55845000D01*
X159086167Y-55845000D02*
X158752834Y-55178333D01*
X161419501Y-52178333D02*
X161752834Y-51511667D01*
X161752834Y-51511667D02*
X161752834Y-50178333D01*
X161752834Y-50178333D02*
X161419501Y-49511667D01*
X161419501Y-49511667D02*
X160752834Y-49178333D01*
X160752834Y-49178333D02*
X160419501Y-49178333D01*
X160419501Y-49178333D02*
X159752834Y-49511667D01*
X159752834Y-49511667D02*
X159419501Y-50178333D01*
X159419501Y-50178333D02*
X159419501Y-51178333D01*
X159419501Y-51178333D02*
X159086167Y-51845000D01*
X159086167Y-51845000D02*
X158419501Y-52178333D01*
X158419501Y-52178333D02*
X158086167Y-52178333D01*
X158086167Y-52178333D02*
X157419501Y-51845000D01*
X157419501Y-51845000D02*
X157086167Y-51178333D01*
X157086167Y-51178333D02*
X157086167Y-50178333D01*
X157086167Y-50178333D02*
X157419501Y-49511667D01*
X161752834Y-46178333D02*
X157086167Y-46178333D01*
X158419501Y-46178333D02*
X157752834Y-45845000D01*
X157752834Y-45845000D02*
X157419501Y-45511666D01*
X157419501Y-45511666D02*
X157086167Y-44845000D01*
X157086167Y-44845000D02*
X157086167Y-44178333D01*
D10*
X123807568Y-38078666D02*
X124569473Y-38078666D01*
X124188520Y-38459619D02*
X124188520Y-37697714D01*
X126569473Y-38078666D02*
X127331378Y-38078666D01*
D13*
X114229819Y-58181666D02*
X113753628Y-58514999D01*
X114229819Y-58753094D02*
X113229819Y-58753094D01*
X113229819Y-58753094D02*
X113229819Y-58372142D01*
X113229819Y-58372142D02*
X113277438Y-58276904D01*
X113277438Y-58276904D02*
X113325057Y-58229285D01*
X113325057Y-58229285D02*
X113420295Y-58181666D01*
X113420295Y-58181666D02*
X113563152Y-58181666D01*
X113563152Y-58181666D02*
X113658390Y-58229285D01*
X113658390Y-58229285D02*
X113706009Y-58276904D01*
X113706009Y-58276904D02*
X113753628Y-58372142D01*
X113753628Y-58372142D02*
X113753628Y-58753094D01*
X113229819Y-57848332D02*
X113229819Y-57229285D01*
X113229819Y-57229285D02*
X113610771Y-57562618D01*
X113610771Y-57562618D02*
X113610771Y-57419761D01*
X113610771Y-57419761D02*
X113658390Y-57324523D01*
X113658390Y-57324523D02*
X113706009Y-57276904D01*
X113706009Y-57276904D02*
X113801247Y-57229285D01*
X113801247Y-57229285D02*
X114039342Y-57229285D01*
X114039342Y-57229285D02*
X114134580Y-57276904D01*
X114134580Y-57276904D02*
X114182200Y-57324523D01*
X114182200Y-57324523D02*
X114229819Y-57419761D01*
X114229819Y-57419761D02*
X114229819Y-57705475D01*
X114229819Y-57705475D02*
X114182200Y-57800713D01*
X114182200Y-57800713D02*
X114134580Y-57848332D01*
X151531905Y-38089819D02*
X151531905Y-37089819D01*
X151531905Y-37089819D02*
X151770000Y-37089819D01*
X151770000Y-37089819D02*
X151912857Y-37137438D01*
X151912857Y-37137438D02*
X152008095Y-37232676D01*
X152008095Y-37232676D02*
X152055714Y-37327914D01*
X152055714Y-37327914D02*
X152103333Y-37518390D01*
X152103333Y-37518390D02*
X152103333Y-37661247D01*
X152103333Y-37661247D02*
X152055714Y-37851723D01*
X152055714Y-37851723D02*
X152008095Y-37946961D01*
X152008095Y-37946961D02*
X151912857Y-38042200D01*
X151912857Y-38042200D02*
X151770000Y-38089819D01*
X151770000Y-38089819D02*
X151531905Y-38089819D01*
X152436667Y-37089819D02*
X153055714Y-37089819D01*
X153055714Y-37089819D02*
X152722381Y-37470771D01*
X152722381Y-37470771D02*
X152865238Y-37470771D01*
X152865238Y-37470771D02*
X152960476Y-37518390D01*
X152960476Y-37518390D02*
X153008095Y-37566009D01*
X153008095Y-37566009D02*
X153055714Y-37661247D01*
X153055714Y-37661247D02*
X153055714Y-37899342D01*
X153055714Y-37899342D02*
X153008095Y-37994580D01*
X153008095Y-37994580D02*
X152960476Y-38042200D01*
X152960476Y-38042200D02*
X152865238Y-38089819D01*
X152865238Y-38089819D02*
X152579524Y-38089819D01*
X152579524Y-38089819D02*
X152484286Y-38042200D01*
X152484286Y-38042200D02*
X152436667Y-37994580D01*
X122241667Y-128579819D02*
X122241667Y-127579819D01*
X122241667Y-127579819D02*
X122479762Y-127579819D01*
X122479762Y-127579819D02*
X122622619Y-127627438D01*
X122622619Y-127627438D02*
X122717857Y-127722676D01*
X122717857Y-127722676D02*
X122765476Y-127817914D01*
X122765476Y-127817914D02*
X122813095Y-128008390D01*
X122813095Y-128008390D02*
X122813095Y-128151247D01*
X122813095Y-128151247D02*
X122765476Y-128341723D01*
X122765476Y-128341723D02*
X122717857Y-128436961D01*
X122717857Y-128436961D02*
X122622619Y-128532200D01*
X122622619Y-128532200D02*
X122479762Y-128579819D01*
X122479762Y-128579819D02*
X122241667Y-128579819D01*
X123241667Y-128579819D02*
X123241667Y-127913152D01*
X123241667Y-127579819D02*
X123194048Y-127627438D01*
X123194048Y-127627438D02*
X123241667Y-127675057D01*
X123241667Y-127675057D02*
X123289286Y-127627438D01*
X123289286Y-127627438D02*
X123241667Y-127579819D01*
X123241667Y-127579819D02*
X123241667Y-127675057D01*
X123860714Y-128579819D02*
X123765476Y-128532200D01*
X123765476Y-128532200D02*
X123717857Y-128484580D01*
X123717857Y-128484580D02*
X123670238Y-128389342D01*
X123670238Y-128389342D02*
X123670238Y-128103628D01*
X123670238Y-128103628D02*
X123717857Y-128008390D01*
X123717857Y-128008390D02*
X123765476Y-127960771D01*
X123765476Y-127960771D02*
X123860714Y-127913152D01*
X123860714Y-127913152D02*
X124003571Y-127913152D01*
X124003571Y-127913152D02*
X124098809Y-127960771D01*
X124098809Y-127960771D02*
X124146428Y-128008390D01*
X124146428Y-128008390D02*
X124194047Y-128103628D01*
X124194047Y-128103628D02*
X124194047Y-128389342D01*
X124194047Y-128389342D02*
X124146428Y-128484580D01*
X124146428Y-128484580D02*
X124098809Y-128532200D01*
X124098809Y-128532200D02*
X124003571Y-128579819D01*
X124003571Y-128579819D02*
X123860714Y-128579819D01*
X125051190Y-128579819D02*
X125051190Y-127579819D01*
X125051190Y-128532200D02*
X124955952Y-128579819D01*
X124955952Y-128579819D02*
X124765476Y-128579819D01*
X124765476Y-128579819D02*
X124670238Y-128532200D01*
X124670238Y-128532200D02*
X124622619Y-128484580D01*
X124622619Y-128484580D02*
X124575000Y-128389342D01*
X124575000Y-128389342D02*
X124575000Y-128103628D01*
X124575000Y-128103628D02*
X124622619Y-128008390D01*
X124622619Y-128008390D02*
X124670238Y-127960771D01*
X124670238Y-127960771D02*
X124765476Y-127913152D01*
X124765476Y-127913152D02*
X124955952Y-127913152D01*
X124955952Y-127913152D02*
X125051190Y-127960771D01*
X125908333Y-128532200D02*
X125813095Y-128579819D01*
X125813095Y-128579819D02*
X125622619Y-128579819D01*
X125622619Y-128579819D02*
X125527381Y-128532200D01*
X125527381Y-128532200D02*
X125479762Y-128436961D01*
X125479762Y-128436961D02*
X125479762Y-128056009D01*
X125479762Y-128056009D02*
X125527381Y-127960771D01*
X125527381Y-127960771D02*
X125622619Y-127913152D01*
X125622619Y-127913152D02*
X125813095Y-127913152D01*
X125813095Y-127913152D02*
X125908333Y-127960771D01*
X125908333Y-127960771D02*
X125955952Y-128056009D01*
X125955952Y-128056009D02*
X125955952Y-128151247D01*
X125955952Y-128151247D02*
X125479762Y-128246485D01*
X119304523Y-128949819D02*
X118828333Y-128949819D01*
X118828333Y-128949819D02*
X118828333Y-127949819D01*
X109729819Y-58761666D02*
X109253628Y-59094999D01*
X109729819Y-59333094D02*
X108729819Y-59333094D01*
X108729819Y-59333094D02*
X108729819Y-58952142D01*
X108729819Y-58952142D02*
X108777438Y-58856904D01*
X108777438Y-58856904D02*
X108825057Y-58809285D01*
X108825057Y-58809285D02*
X108920295Y-58761666D01*
X108920295Y-58761666D02*
X109063152Y-58761666D01*
X109063152Y-58761666D02*
X109158390Y-58809285D01*
X109158390Y-58809285D02*
X109206009Y-58856904D01*
X109206009Y-58856904D02*
X109253628Y-58952142D01*
X109253628Y-58952142D02*
X109253628Y-59333094D01*
X108825057Y-58380713D02*
X108777438Y-58333094D01*
X108777438Y-58333094D02*
X108729819Y-58237856D01*
X108729819Y-58237856D02*
X108729819Y-57999761D01*
X108729819Y-57999761D02*
X108777438Y-57904523D01*
X108777438Y-57904523D02*
X108825057Y-57856904D01*
X108825057Y-57856904D02*
X108920295Y-57809285D01*
X108920295Y-57809285D02*
X109015533Y-57809285D01*
X109015533Y-57809285D02*
X109158390Y-57856904D01*
X109158390Y-57856904D02*
X109729819Y-58428332D01*
X109729819Y-58428332D02*
X109729819Y-57809285D01*
X169414048Y-117128866D02*
X170175953Y-117128866D01*
X169795000Y-117509819D02*
X169795000Y-116747914D01*
X118729819Y-58681666D02*
X118253628Y-59014999D01*
X118729819Y-59253094D02*
X117729819Y-59253094D01*
X117729819Y-59253094D02*
X117729819Y-58872142D01*
X117729819Y-58872142D02*
X117777438Y-58776904D01*
X117777438Y-58776904D02*
X117825057Y-58729285D01*
X117825057Y-58729285D02*
X117920295Y-58681666D01*
X117920295Y-58681666D02*
X118063152Y-58681666D01*
X118063152Y-58681666D02*
X118158390Y-58729285D01*
X118158390Y-58729285D02*
X118206009Y-58776904D01*
X118206009Y-58776904D02*
X118253628Y-58872142D01*
X118253628Y-58872142D02*
X118253628Y-59253094D01*
X118063152Y-57824523D02*
X118729819Y-57824523D01*
X117682200Y-58062618D02*
X118396485Y-58300713D01*
X118396485Y-58300713D02*
X118396485Y-57681666D01*
X124666905Y-46009819D02*
X124666905Y-45009819D01*
X124666905Y-45009819D02*
X124905000Y-45009819D01*
X124905000Y-45009819D02*
X125047857Y-45057438D01*
X125047857Y-45057438D02*
X125143095Y-45152676D01*
X125143095Y-45152676D02*
X125190714Y-45247914D01*
X125190714Y-45247914D02*
X125238333Y-45438390D01*
X125238333Y-45438390D02*
X125238333Y-45581247D01*
X125238333Y-45581247D02*
X125190714Y-45771723D01*
X125190714Y-45771723D02*
X125143095Y-45866961D01*
X125143095Y-45866961D02*
X125047857Y-45962200D01*
X125047857Y-45962200D02*
X124905000Y-46009819D01*
X124905000Y-46009819D02*
X124666905Y-46009819D01*
X126190714Y-46009819D02*
X125619286Y-46009819D01*
X125905000Y-46009819D02*
X125905000Y-45009819D01*
X125905000Y-45009819D02*
X125809762Y-45152676D01*
X125809762Y-45152676D02*
X125714524Y-45247914D01*
X125714524Y-45247914D02*
X125619286Y-45295533D01*
X120939819Y-121904523D02*
X119939819Y-121904523D01*
X119939819Y-121904523D02*
X120654104Y-121571190D01*
X120654104Y-121571190D02*
X119939819Y-121237857D01*
X119939819Y-121237857D02*
X120939819Y-121237857D01*
X120939819Y-120237857D02*
X120939819Y-120809285D01*
X120939819Y-120523571D02*
X119939819Y-120523571D01*
X119939819Y-120523571D02*
X120082676Y-120618809D01*
X120082676Y-120618809D02*
X120177914Y-120714047D01*
X120177914Y-120714047D02*
X120225533Y-120809285D01*
X106606010Y-127704580D02*
X106558391Y-127752200D01*
X106558391Y-127752200D02*
X106415534Y-127799819D01*
X106415534Y-127799819D02*
X106320296Y-127799819D01*
X106320296Y-127799819D02*
X106177439Y-127752200D01*
X106177439Y-127752200D02*
X106082201Y-127656961D01*
X106082201Y-127656961D02*
X106034582Y-127561723D01*
X106034582Y-127561723D02*
X105986963Y-127371247D01*
X105986963Y-127371247D02*
X105986963Y-127228390D01*
X105986963Y-127228390D02*
X106034582Y-127037914D01*
X106034582Y-127037914D02*
X106082201Y-126942676D01*
X106082201Y-126942676D02*
X106177439Y-126847438D01*
X106177439Y-126847438D02*
X106320296Y-126799819D01*
X106320296Y-126799819D02*
X106415534Y-126799819D01*
X106415534Y-126799819D02*
X106558391Y-126847438D01*
X106558391Y-126847438D02*
X106606010Y-126895057D01*
X107558391Y-127799819D02*
X106986963Y-127799819D01*
X107272677Y-127799819D02*
X107272677Y-126799819D01*
X107272677Y-126799819D02*
X107177439Y-126942676D01*
X107177439Y-126942676D02*
X107082201Y-127037914D01*
X107082201Y-127037914D02*
X106986963Y-127085533D01*
X132185462Y-85754509D02*
X132518795Y-85754509D01*
X132661652Y-86278319D02*
X132185462Y-86278319D01*
X132185462Y-86278319D02*
X132185462Y-85278319D01*
X132185462Y-85278319D02*
X132661652Y-85278319D01*
X133042605Y-86230700D02*
X133185462Y-86278319D01*
X133185462Y-86278319D02*
X133423557Y-86278319D01*
X133423557Y-86278319D02*
X133518795Y-86230700D01*
X133518795Y-86230700D02*
X133566414Y-86183080D01*
X133566414Y-86183080D02*
X133614033Y-86087842D01*
X133614033Y-86087842D02*
X133614033Y-85992604D01*
X133614033Y-85992604D02*
X133566414Y-85897366D01*
X133566414Y-85897366D02*
X133518795Y-85849747D01*
X133518795Y-85849747D02*
X133423557Y-85802128D01*
X133423557Y-85802128D02*
X133233081Y-85754509D01*
X133233081Y-85754509D02*
X133137843Y-85706890D01*
X133137843Y-85706890D02*
X133090224Y-85659271D01*
X133090224Y-85659271D02*
X133042605Y-85564033D01*
X133042605Y-85564033D02*
X133042605Y-85468795D01*
X133042605Y-85468795D02*
X133090224Y-85373557D01*
X133090224Y-85373557D02*
X133137843Y-85325938D01*
X133137843Y-85325938D02*
X133233081Y-85278319D01*
X133233081Y-85278319D02*
X133471176Y-85278319D01*
X133471176Y-85278319D02*
X133614033Y-85325938D01*
X134042605Y-86278319D02*
X134042605Y-85278319D01*
X134042605Y-85278319D02*
X134423557Y-85278319D01*
X134423557Y-85278319D02*
X134518795Y-85325938D01*
X134518795Y-85325938D02*
X134566414Y-85373557D01*
X134566414Y-85373557D02*
X134614033Y-85468795D01*
X134614033Y-85468795D02*
X134614033Y-85611652D01*
X134614033Y-85611652D02*
X134566414Y-85706890D01*
X134566414Y-85706890D02*
X134518795Y-85754509D01*
X134518795Y-85754509D02*
X134423557Y-85802128D01*
X134423557Y-85802128D02*
X134042605Y-85802128D01*
X134947367Y-85278319D02*
X135566414Y-85278319D01*
X135566414Y-85278319D02*
X135233081Y-85659271D01*
X135233081Y-85659271D02*
X135375938Y-85659271D01*
X135375938Y-85659271D02*
X135471176Y-85706890D01*
X135471176Y-85706890D02*
X135518795Y-85754509D01*
X135518795Y-85754509D02*
X135566414Y-85849747D01*
X135566414Y-85849747D02*
X135566414Y-86087842D01*
X135566414Y-86087842D02*
X135518795Y-86183080D01*
X135518795Y-86183080D02*
X135471176Y-86230700D01*
X135471176Y-86230700D02*
X135375938Y-86278319D01*
X135375938Y-86278319D02*
X135090224Y-86278319D01*
X135090224Y-86278319D02*
X134994986Y-86230700D01*
X134994986Y-86230700D02*
X134947367Y-86183080D01*
X135947367Y-85373557D02*
X135994986Y-85325938D01*
X135994986Y-85325938D02*
X136090224Y-85278319D01*
X136090224Y-85278319D02*
X136328319Y-85278319D01*
X136328319Y-85278319D02*
X136423557Y-85325938D01*
X136423557Y-85325938D02*
X136471176Y-85373557D01*
X136471176Y-85373557D02*
X136518795Y-85468795D01*
X136518795Y-85468795D02*
X136518795Y-85564033D01*
X136518795Y-85564033D02*
X136471176Y-85706890D01*
X136471176Y-85706890D02*
X135899748Y-86278319D01*
X135899748Y-86278319D02*
X136518795Y-86278319D01*
X137994986Y-86659271D02*
X137947367Y-86611652D01*
X137947367Y-86611652D02*
X137852129Y-86468795D01*
X137852129Y-86468795D02*
X137804510Y-86373557D01*
X137804510Y-86373557D02*
X137756891Y-86230700D01*
X137756891Y-86230700D02*
X137709272Y-85992604D01*
X137709272Y-85992604D02*
X137709272Y-85802128D01*
X137709272Y-85802128D02*
X137756891Y-85564033D01*
X137756891Y-85564033D02*
X137804510Y-85421176D01*
X137804510Y-85421176D02*
X137852129Y-85325938D01*
X137852129Y-85325938D02*
X137947367Y-85183080D01*
X137947367Y-85183080D02*
X137994986Y-85135461D01*
X138280701Y-85278319D02*
X138899748Y-85278319D01*
X138899748Y-85278319D02*
X138566415Y-85659271D01*
X138566415Y-85659271D02*
X138709272Y-85659271D01*
X138709272Y-85659271D02*
X138804510Y-85706890D01*
X138804510Y-85706890D02*
X138852129Y-85754509D01*
X138852129Y-85754509D02*
X138899748Y-85849747D01*
X138899748Y-85849747D02*
X138899748Y-86087842D01*
X138899748Y-86087842D02*
X138852129Y-86183080D01*
X138852129Y-86183080D02*
X138804510Y-86230700D01*
X138804510Y-86230700D02*
X138709272Y-86278319D01*
X138709272Y-86278319D02*
X138423558Y-86278319D01*
X138423558Y-86278319D02*
X138328320Y-86230700D01*
X138328320Y-86230700D02*
X138280701Y-86183080D01*
X139471177Y-85706890D02*
X139375939Y-85659271D01*
X139375939Y-85659271D02*
X139328320Y-85611652D01*
X139328320Y-85611652D02*
X139280701Y-85516414D01*
X139280701Y-85516414D02*
X139280701Y-85468795D01*
X139280701Y-85468795D02*
X139328320Y-85373557D01*
X139328320Y-85373557D02*
X139375939Y-85325938D01*
X139375939Y-85325938D02*
X139471177Y-85278319D01*
X139471177Y-85278319D02*
X139661653Y-85278319D01*
X139661653Y-85278319D02*
X139756891Y-85325938D01*
X139756891Y-85325938D02*
X139804510Y-85373557D01*
X139804510Y-85373557D02*
X139852129Y-85468795D01*
X139852129Y-85468795D02*
X139852129Y-85516414D01*
X139852129Y-85516414D02*
X139804510Y-85611652D01*
X139804510Y-85611652D02*
X139756891Y-85659271D01*
X139756891Y-85659271D02*
X139661653Y-85706890D01*
X139661653Y-85706890D02*
X139471177Y-85706890D01*
X139471177Y-85706890D02*
X139375939Y-85754509D01*
X139375939Y-85754509D02*
X139328320Y-85802128D01*
X139328320Y-85802128D02*
X139280701Y-85897366D01*
X139280701Y-85897366D02*
X139280701Y-86087842D01*
X139280701Y-86087842D02*
X139328320Y-86183080D01*
X139328320Y-86183080D02*
X139375939Y-86230700D01*
X139375939Y-86230700D02*
X139471177Y-86278319D01*
X139471177Y-86278319D02*
X139661653Y-86278319D01*
X139661653Y-86278319D02*
X139756891Y-86230700D01*
X139756891Y-86230700D02*
X139804510Y-86183080D01*
X139804510Y-86183080D02*
X139852129Y-86087842D01*
X139852129Y-86087842D02*
X139852129Y-85897366D01*
X139852129Y-85897366D02*
X139804510Y-85802128D01*
X139804510Y-85802128D02*
X139756891Y-85754509D01*
X139756891Y-85754509D02*
X139661653Y-85706890D01*
X141042606Y-86278319D02*
X141042606Y-85278319D01*
X141042606Y-85278319D02*
X141423558Y-85278319D01*
X141423558Y-85278319D02*
X141518796Y-85325938D01*
X141518796Y-85325938D02*
X141566415Y-85373557D01*
X141566415Y-85373557D02*
X141614034Y-85468795D01*
X141614034Y-85468795D02*
X141614034Y-85611652D01*
X141614034Y-85611652D02*
X141566415Y-85706890D01*
X141566415Y-85706890D02*
X141518796Y-85754509D01*
X141518796Y-85754509D02*
X141423558Y-85802128D01*
X141423558Y-85802128D02*
X141042606Y-85802128D01*
X142042606Y-86278319D02*
X142042606Y-85278319D01*
X142518796Y-86278319D02*
X142518796Y-85278319D01*
X142518796Y-85278319D02*
X143090224Y-86278319D01*
X143090224Y-86278319D02*
X143090224Y-85278319D01*
X143471177Y-86659271D02*
X143518796Y-86611652D01*
X143518796Y-86611652D02*
X143614034Y-86468795D01*
X143614034Y-86468795D02*
X143661653Y-86373557D01*
X143661653Y-86373557D02*
X143709272Y-86230700D01*
X143709272Y-86230700D02*
X143756891Y-85992604D01*
X143756891Y-85992604D02*
X143756891Y-85802128D01*
X143756891Y-85802128D02*
X143709272Y-85564033D01*
X143709272Y-85564033D02*
X143661653Y-85421176D01*
X143661653Y-85421176D02*
X143614034Y-85325938D01*
X143614034Y-85325938D02*
X143518796Y-85183080D01*
X143518796Y-85183080D02*
X143471177Y-85135461D01*
X134804272Y-107503319D02*
X134804272Y-108312842D01*
X134804272Y-108312842D02*
X134851891Y-108408080D01*
X134851891Y-108408080D02*
X134899510Y-108455700D01*
X134899510Y-108455700D02*
X134994748Y-108503319D01*
X134994748Y-108503319D02*
X135185224Y-108503319D01*
X135185224Y-108503319D02*
X135280462Y-108455700D01*
X135280462Y-108455700D02*
X135328081Y-108408080D01*
X135328081Y-108408080D02*
X135375700Y-108312842D01*
X135375700Y-108312842D02*
X135375700Y-107503319D01*
X135804272Y-108455700D02*
X135947129Y-108503319D01*
X135947129Y-108503319D02*
X136185224Y-108503319D01*
X136185224Y-108503319D02*
X136280462Y-108455700D01*
X136280462Y-108455700D02*
X136328081Y-108408080D01*
X136328081Y-108408080D02*
X136375700Y-108312842D01*
X136375700Y-108312842D02*
X136375700Y-108217604D01*
X136375700Y-108217604D02*
X136328081Y-108122366D01*
X136328081Y-108122366D02*
X136280462Y-108074747D01*
X136280462Y-108074747D02*
X136185224Y-108027128D01*
X136185224Y-108027128D02*
X135994748Y-107979509D01*
X135994748Y-107979509D02*
X135899510Y-107931890D01*
X135899510Y-107931890D02*
X135851891Y-107884271D01*
X135851891Y-107884271D02*
X135804272Y-107789033D01*
X135804272Y-107789033D02*
X135804272Y-107693795D01*
X135804272Y-107693795D02*
X135851891Y-107598557D01*
X135851891Y-107598557D02*
X135899510Y-107550938D01*
X135899510Y-107550938D02*
X135994748Y-107503319D01*
X135994748Y-107503319D02*
X136232843Y-107503319D01*
X136232843Y-107503319D02*
X136375700Y-107550938D01*
X137137605Y-107979509D02*
X137280462Y-108027128D01*
X137280462Y-108027128D02*
X137328081Y-108074747D01*
X137328081Y-108074747D02*
X137375700Y-108169985D01*
X137375700Y-108169985D02*
X137375700Y-108312842D01*
X137375700Y-108312842D02*
X137328081Y-108408080D01*
X137328081Y-108408080D02*
X137280462Y-108455700D01*
X137280462Y-108455700D02*
X137185224Y-108503319D01*
X137185224Y-108503319D02*
X136804272Y-108503319D01*
X136804272Y-108503319D02*
X136804272Y-107503319D01*
X136804272Y-107503319D02*
X137137605Y-107503319D01*
X137137605Y-107503319D02*
X137232843Y-107550938D01*
X137232843Y-107550938D02*
X137280462Y-107598557D01*
X137280462Y-107598557D02*
X137328081Y-107693795D01*
X137328081Y-107693795D02*
X137328081Y-107789033D01*
X137328081Y-107789033D02*
X137280462Y-107884271D01*
X137280462Y-107884271D02*
X137232843Y-107931890D01*
X137232843Y-107931890D02*
X137137605Y-107979509D01*
X137137605Y-107979509D02*
X136804272Y-107979509D01*
X138436905Y-38589819D02*
X138436905Y-37589819D01*
X138436905Y-37589819D02*
X138675000Y-37589819D01*
X138675000Y-37589819D02*
X138817857Y-37637438D01*
X138817857Y-37637438D02*
X138913095Y-37732676D01*
X138913095Y-37732676D02*
X138960714Y-37827914D01*
X138960714Y-37827914D02*
X139008333Y-38018390D01*
X139008333Y-38018390D02*
X139008333Y-38161247D01*
X139008333Y-38161247D02*
X138960714Y-38351723D01*
X138960714Y-38351723D02*
X138913095Y-38446961D01*
X138913095Y-38446961D02*
X138817857Y-38542200D01*
X138817857Y-38542200D02*
X138675000Y-38589819D01*
X138675000Y-38589819D02*
X138436905Y-38589819D01*
X139389286Y-37685057D02*
X139436905Y-37637438D01*
X139436905Y-37637438D02*
X139532143Y-37589819D01*
X139532143Y-37589819D02*
X139770238Y-37589819D01*
X139770238Y-37589819D02*
X139865476Y-37637438D01*
X139865476Y-37637438D02*
X139913095Y-37685057D01*
X139913095Y-37685057D02*
X139960714Y-37780295D01*
X139960714Y-37780295D02*
X139960714Y-37875533D01*
X139960714Y-37875533D02*
X139913095Y-38018390D01*
X139913095Y-38018390D02*
X139341667Y-38589819D01*
X139341667Y-38589819D02*
X139960714Y-38589819D01*
D17*
%TO.C,R3*%
X111405000Y-53975000D02*
X111405000Y-54745000D01*
X111405000Y-62055000D02*
X111405000Y-61285000D01*
X112775000Y-54745000D02*
X110035000Y-54745000D01*
X110035000Y-61285000D01*
X112775000Y-61285000D01*
X112775000Y-54745000D01*
%TO.C,D3*%
X150210000Y-39696000D02*
X150210000Y-40015000D01*
X150210000Y-42175000D02*
X150210000Y-42494000D01*
X150210000Y-39696251D02*
G75*
G02*
X154513591Y-40015000I2060000J-1398749D01*
G01*
X150586670Y-40015000D02*
G75*
G02*
X153953330Y-40015000I1683330J-1080000D01*
G01*
X153953330Y-42175000D02*
G75*
G02*
X150586670Y-42175000I-1683330J1080000D01*
G01*
X154513591Y-42175000D02*
G75*
G02*
X150210000Y-42493749I-2243591J1080000D01*
G01*
%TO.C,Diode*%
X120335000Y-130595000D02*
X121355000Y-130595000D01*
X122135000Y-129125000D02*
X122135000Y-132065000D01*
X122255000Y-129125000D02*
X122255000Y-132065000D01*
X122375000Y-129125000D02*
X122375000Y-132065000D01*
X127815000Y-130595000D02*
X126795000Y-130595000D01*
X121355000Y-129125000D02*
X126795000Y-129125000D01*
X126795000Y-132065000D01*
X121355000Y-132065000D01*
X121355000Y-129125000D01*
%TO.C,R2*%
X106905000Y-54555000D02*
X106905000Y-55325000D01*
X106905000Y-62635000D02*
X106905000Y-61865000D01*
X108275000Y-55325000D02*
X105535000Y-55325000D01*
X105535000Y-61865000D01*
X108275000Y-61865000D01*
X108275000Y-55325000D01*
%TO.C,BZ1*%
X179705000Y-119595000D02*
G75*
G02*
X167505000Y-119595000I-6100000J0D01*
G01*
X167505000Y-119595000D02*
G75*
G02*
X179705000Y-119595000I6100000J0D01*
G01*
%TO.C,R4*%
X115905000Y-54475000D02*
X115905000Y-55245000D01*
X115905000Y-62555000D02*
X115905000Y-61785000D01*
X117275000Y-55245000D02*
X114535000Y-55245000D01*
X114535000Y-61785000D01*
X117275000Y-61785000D01*
X117275000Y-55245000D01*
%TO.C,D1*%
X127465000Y-41015000D02*
X127465000Y-40696000D01*
X127465000Y-43494000D02*
X127465000Y-43175000D01*
X123161409Y-41015000D02*
G75*
G02*
X127465000Y-40696251I2243591J-1080000D01*
G01*
X123721670Y-41015000D02*
G75*
G02*
X127088330Y-41015000I1683330J-1080000D01*
G01*
X127088330Y-43175000D02*
G75*
G02*
X123721670Y-43175000I-1683330J1080000D01*
G01*
X127465000Y-43493749D02*
G75*
G02*
X123161409Y-43175000I-2060000J1398749D01*
G01*
%TO.C,M1*%
X121485000Y-122475000D02*
X121485000Y-121095000D01*
X122865000Y-122475000D02*
X121485000Y-122475000D01*
X124135000Y-119715000D02*
X129325000Y-119715000D01*
X124135000Y-122475000D02*
X124135000Y-119715000D01*
X124135000Y-122475000D02*
X129325000Y-122475000D01*
X129325000Y-122475000D02*
X129325000Y-119715000D01*
%TO.C,C1*%
X101692677Y-121694000D02*
X101692677Y-120496000D01*
X101732677Y-121957000D02*
X101732677Y-120233000D01*
X101772677Y-122157000D02*
X101772677Y-120033000D01*
X101812677Y-122325000D02*
X101812677Y-119865000D01*
X101852677Y-122472000D02*
X101852677Y-119718000D01*
X101892677Y-122604000D02*
X101892677Y-119586000D01*
X101932677Y-122725000D02*
X101932677Y-119465000D01*
X101972677Y-122837000D02*
X101972677Y-119353000D01*
X102012677Y-122941000D02*
X102012677Y-119249000D01*
X102052677Y-123039000D02*
X102052677Y-119151000D01*
X102092677Y-123132000D02*
X102092677Y-119058000D01*
X102132677Y-123219000D02*
X102132677Y-118971000D01*
X102172677Y-123303000D02*
X102172677Y-118887000D01*
X102212677Y-123383000D02*
X102212677Y-118807000D01*
X102252677Y-123460000D02*
X102252677Y-118730000D01*
X102292677Y-123534000D02*
X102292677Y-118656000D01*
X102332677Y-123605000D02*
X102332677Y-118585000D01*
X102372677Y-123673000D02*
X102372677Y-118517000D01*
X102412677Y-123739000D02*
X102412677Y-118451000D01*
X102452677Y-123803000D02*
X102452677Y-118387000D01*
X102492677Y-123865000D02*
X102492677Y-118325000D01*
X102532677Y-123925000D02*
X102532677Y-118265000D01*
X102572677Y-123983000D02*
X102572677Y-118207000D01*
X102612677Y-124040000D02*
X102612677Y-118150000D01*
X102652677Y-124095000D02*
X102652677Y-118095000D01*
X102692677Y-124148000D02*
X102692677Y-118042000D01*
X102732677Y-124200000D02*
X102732677Y-117990000D01*
X102772677Y-124251000D02*
X102772677Y-117939000D01*
X102812677Y-124300000D02*
X102812677Y-117890000D01*
X102852677Y-124349000D02*
X102852677Y-117841000D01*
X102892677Y-124396000D02*
X102892677Y-117794000D01*
X102932677Y-124442000D02*
X102932677Y-117748000D01*
X102972677Y-124486000D02*
X102972677Y-117704000D01*
X103012677Y-124530000D02*
X103012677Y-117660000D01*
X103052677Y-119855000D02*
X103052677Y-117617000D01*
X103052677Y-124573000D02*
X103052677Y-122335000D01*
X103092677Y-119855000D02*
X103092677Y-117575000D01*
X103092677Y-124615000D02*
X103092677Y-122335000D01*
X103132677Y-119855000D02*
X103132677Y-117534000D01*
X103132677Y-124656000D02*
X103132677Y-122335000D01*
X103172677Y-119855000D02*
X103172677Y-117494000D01*
X103172677Y-124696000D02*
X103172677Y-122335000D01*
X103212677Y-119855000D02*
X103212677Y-117455000D01*
X103212677Y-124735000D02*
X103212677Y-122335000D01*
X103252677Y-119855000D02*
X103252677Y-117417000D01*
X103252677Y-124773000D02*
X103252677Y-122335000D01*
X103292677Y-119855000D02*
X103292677Y-117379000D01*
X103292677Y-124811000D02*
X103292677Y-122335000D01*
X103332677Y-119855000D02*
X103332677Y-117343000D01*
X103332677Y-124847000D02*
X103332677Y-122335000D01*
X103372677Y-119855000D02*
X103372677Y-117307000D01*
X103372677Y-124883000D02*
X103372677Y-122335000D01*
X103412677Y-119855000D02*
X103412677Y-117272000D01*
X103412677Y-124918000D02*
X103412677Y-122335000D01*
X103452677Y-119855000D02*
X103452677Y-117237000D01*
X103452677Y-124953000D02*
X103452677Y-122335000D01*
X103492677Y-119855000D02*
X103492677Y-117204000D01*
X103492677Y-124986000D02*
X103492677Y-122335000D01*
X103532677Y-119855000D02*
X103532677Y-117171000D01*
X103532677Y-125019000D02*
X103532677Y-122335000D01*
X103572677Y-119855000D02*
X103572677Y-117138000D01*
X103572677Y-125052000D02*
X103572677Y-122335000D01*
X103612677Y-119855000D02*
X103612677Y-117107000D01*
X103612677Y-125083000D02*
X103612677Y-122335000D01*
X103652677Y-119855000D02*
X103652677Y-117075000D01*
X103652677Y-125115000D02*
X103652677Y-122335000D01*
X103692677Y-119855000D02*
X103692677Y-117045000D01*
X103692677Y-125145000D02*
X103692677Y-122335000D01*
X103732677Y-119855000D02*
X103732677Y-117015000D01*
X103732677Y-125175000D02*
X103732677Y-122335000D01*
X103772677Y-119855000D02*
X103772677Y-116986000D01*
X103772677Y-125204000D02*
X103772677Y-122335000D01*
X103812677Y-119855000D02*
X103812677Y-116957000D01*
X103812677Y-125233000D02*
X103812677Y-122335000D01*
X103852677Y-119855000D02*
X103852677Y-116929000D01*
X103852677Y-125261000D02*
X103852677Y-122335000D01*
X103892677Y-119855000D02*
X103892677Y-116902000D01*
X103892677Y-125288000D02*
X103892677Y-122335000D01*
X103932677Y-119855000D02*
X103932677Y-116875000D01*
X103932677Y-125315000D02*
X103932677Y-122335000D01*
X103972677Y-119855000D02*
X103972677Y-116848000D01*
X103972677Y-125342000D02*
X103972677Y-122335000D01*
X104012677Y-119855000D02*
X104012677Y-116823000D01*
X104012677Y-125367000D02*
X104012677Y-122335000D01*
X104052677Y-119855000D02*
X104052677Y-116797000D01*
X104052677Y-125393000D02*
X104052677Y-122335000D01*
X104092677Y-119855000D02*
X104092677Y-116772000D01*
X104092677Y-125418000D02*
X104092677Y-122335000D01*
X104132677Y-119855000D02*
X104132677Y-116748000D01*
X104132677Y-125442000D02*
X104132677Y-122335000D01*
X104172677Y-119855000D02*
X104172677Y-116724000D01*
X104172677Y-125466000D02*
X104172677Y-122335000D01*
X104212677Y-119855000D02*
X104212677Y-116701000D01*
X104212677Y-125489000D02*
X104212677Y-122335000D01*
X104252677Y-119855000D02*
X104252677Y-116678000D01*
X104252677Y-125512000D02*
X104252677Y-122335000D01*
X104292677Y-119855000D02*
X104292677Y-116656000D01*
X104292677Y-125534000D02*
X104292677Y-122335000D01*
X104332677Y-119855000D02*
X104332677Y-116634000D01*
X104332677Y-125556000D02*
X104332677Y-122335000D01*
X104372677Y-119855000D02*
X104372677Y-116612000D01*
X104372677Y-125578000D02*
X104372677Y-122335000D01*
X104412677Y-119855000D02*
X104412677Y-116591000D01*
X104412677Y-125599000D02*
X104412677Y-122335000D01*
X104452677Y-119855000D02*
X104452677Y-116571000D01*
X104452677Y-125619000D02*
X104452677Y-122335000D01*
X104492677Y-119855000D02*
X104492677Y-116551000D01*
X104492677Y-125639000D02*
X104492677Y-122335000D01*
X104532677Y-119855000D02*
X104532677Y-116531000D01*
X104532677Y-125659000D02*
X104532677Y-122335000D01*
X104572677Y-119855000D02*
X104572677Y-116512000D01*
X104572677Y-125678000D02*
X104572677Y-122335000D01*
X104612677Y-119855000D02*
X104612677Y-116493000D01*
X104612677Y-125697000D02*
X104612677Y-122335000D01*
X104652677Y-119855000D02*
X104652677Y-116475000D01*
X104652677Y-125715000D02*
X104652677Y-122335000D01*
X104692677Y-119855000D02*
X104692677Y-116457000D01*
X104692677Y-125733000D02*
X104692677Y-122335000D01*
X104732677Y-119855000D02*
X104732677Y-116439000D01*
X104732677Y-125751000D02*
X104732677Y-122335000D01*
X104772677Y-119855000D02*
X104772677Y-116422000D01*
X104772677Y-125768000D02*
X104772677Y-122335000D01*
X104812677Y-119855000D02*
X104812677Y-116405000D01*
X104812677Y-125785000D02*
X104812677Y-122335000D01*
X104852677Y-119855000D02*
X104852677Y-116389000D01*
X104852677Y-125801000D02*
X104852677Y-122335000D01*
X104892677Y-119855000D02*
X104892677Y-116373000D01*
X104892677Y-125817000D02*
X104892677Y-122335000D01*
X104932677Y-119855000D02*
X104932677Y-116357000D01*
X104932677Y-125833000D02*
X104932677Y-122335000D01*
X104972677Y-119855000D02*
X104972677Y-116342000D01*
X104972677Y-125848000D02*
X104972677Y-122335000D01*
X105012677Y-119855000D02*
X105012677Y-116327000D01*
X105012677Y-125863000D02*
X105012677Y-122335000D01*
X105052677Y-119855000D02*
X105052677Y-116313000D01*
X105052677Y-125877000D02*
X105052677Y-122335000D01*
X105092677Y-119855000D02*
X105092677Y-116298000D01*
X105092677Y-125892000D02*
X105092677Y-122335000D01*
X105132677Y-119855000D02*
X105132677Y-116285000D01*
X105132677Y-125905000D02*
X105132677Y-122335000D01*
X105172677Y-119855000D02*
X105172677Y-116271000D01*
X105172677Y-125919000D02*
X105172677Y-122335000D01*
X105212677Y-119855000D02*
X105212677Y-116258000D01*
X105212677Y-125932000D02*
X105212677Y-122335000D01*
X105252677Y-119855000D02*
X105252677Y-116246000D01*
X105252677Y-125944000D02*
X105252677Y-122335000D01*
X105292677Y-119855000D02*
X105292677Y-116234000D01*
X105292677Y-125956000D02*
X105292677Y-122335000D01*
X105332677Y-119855000D02*
X105332677Y-116222000D01*
X105332677Y-125968000D02*
X105332677Y-122335000D01*
X105372677Y-119855000D02*
X105372677Y-116210000D01*
X105372677Y-125980000D02*
X105372677Y-122335000D01*
X105412677Y-119855000D02*
X105412677Y-116199000D01*
X105412677Y-125991000D02*
X105412677Y-122335000D01*
X105452677Y-119855000D02*
X105452677Y-116188000D01*
X105452677Y-126002000D02*
X105452677Y-122335000D01*
X105492677Y-119855000D02*
X105492677Y-116178000D01*
X105492677Y-126012000D02*
X105492677Y-122335000D01*
X105532677Y-126023000D02*
X105532677Y-116167000D01*
X105572677Y-126032000D02*
X105572677Y-116158000D01*
X105612677Y-126042000D02*
X105612677Y-116148000D01*
X105652677Y-126051000D02*
X105652677Y-116139000D01*
X105692677Y-126060000D02*
X105692677Y-116130000D01*
X105732677Y-126068000D02*
X105732677Y-116122000D01*
X105772677Y-126076000D02*
X105772677Y-116114000D01*
X105812677Y-126084000D02*
X105812677Y-116106000D01*
X105852677Y-126092000D02*
X105852677Y-116098000D01*
X105892677Y-126099000D02*
X105892677Y-116091000D01*
X105932677Y-126106000D02*
X105932677Y-116084000D01*
X105972677Y-126112000D02*
X105972677Y-116078000D01*
X106012677Y-126118000D02*
X106012677Y-116072000D01*
X106052677Y-126124000D02*
X106052677Y-116066000D01*
X106092677Y-126130000D02*
X106092677Y-116060000D01*
X106132677Y-126135000D02*
X106132677Y-116055000D01*
X106172677Y-126140000D02*
X106172677Y-116050000D01*
X106212677Y-126144000D02*
X106212677Y-116046000D01*
X106252677Y-126149000D02*
X106252677Y-116041000D01*
X106292677Y-126152000D02*
X106292677Y-116038000D01*
X106332677Y-126156000D02*
X106332677Y-116034000D01*
X106372677Y-126159000D02*
X106372677Y-116031000D01*
X106412677Y-126162000D02*
X106412677Y-116028000D01*
X106452677Y-126165000D02*
X106452677Y-116025000D01*
X106492677Y-126167000D02*
X106492677Y-116023000D01*
X106532677Y-126169000D02*
X106532677Y-116021000D01*
X106572677Y-126171000D02*
X106572677Y-116019000D01*
X106612677Y-126172000D02*
X106612677Y-116018000D01*
X106652677Y-126174000D02*
X106652677Y-116016000D01*
X106692677Y-126174000D02*
X106692677Y-116016000D01*
X106732677Y-126175000D02*
X106732677Y-116015000D01*
X106772677Y-126175000D02*
X106772677Y-116015000D01*
X111752323Y-124470000D02*
X111752323Y-123470000D01*
X112252323Y-123970000D02*
X111252323Y-123970000D01*
X111892677Y-121095000D02*
G75*
G02*
X101652677Y-121095000I-5120000J0D01*
G01*
X101652677Y-121095000D02*
G75*
G02*
X111892677Y-121095000I5120000J0D01*
G01*
%TO.C,J1*%
X172985000Y-74975000D02*
X172985000Y-73595000D01*
X174365000Y-74975000D02*
X172985000Y-74975000D01*
X175635000Y-72215000D02*
X178285000Y-72215000D01*
X175635000Y-74975000D02*
X175635000Y-72215000D01*
X175635000Y-74975000D02*
X178285000Y-74975000D01*
X178285000Y-74975000D02*
X178285000Y-72215000D01*
D18*
%TO.C,ESP32 (38 PIN)*%
X124001177Y-60423500D02*
X151941177Y-60423500D01*
X124001177Y-108683500D02*
X124001177Y-60423500D01*
X135431177Y-106143500D02*
X140511177Y-106143500D01*
X135431177Y-108683500D02*
X124001177Y-108683500D01*
X135431177Y-108683500D02*
X135431177Y-106143500D01*
X140511177Y-106143500D02*
X140511177Y-108683500D01*
X140511177Y-108683500D02*
X135431177Y-108683500D01*
X151941177Y-60423500D02*
X151941177Y-108683500D01*
X151941177Y-108683500D02*
X140511177Y-108683500D01*
D17*
%TO.C,D2*%
X137115000Y-40196000D02*
X137115000Y-40515000D01*
X137115000Y-42675000D02*
X137115000Y-42994000D01*
X137115000Y-40196251D02*
G75*
G02*
X141418591Y-40515000I2060000J-1398749D01*
G01*
X137491670Y-40515000D02*
G75*
G02*
X140858330Y-40515000I1683330J-1080000D01*
G01*
X140858330Y-42675000D02*
G75*
G02*
X137491670Y-42675000I-1683330J1080000D01*
G01*
X141418591Y-42675000D02*
G75*
G02*
X137115000Y-42993749I-2243591J1080000D01*
G01*
%TD*%
M02*
