%TF.GenerationSoftware,KiCad,Pcbnew,9.0.7*%
%TF.CreationDate,2026-02-08T15:55:18+02:00*%
%TF.ProjectId,DoorLock PCB,446f6f72-4c6f-4636-9b20-5043422e6b69,rev?*%
%TF.SameCoordinates,Original*%
%TF.FileFunction,Copper,L2,Bot*%
%TF.FilePolarity,Positive*%
%FSLAX46Y46*%
G04 Gerber Fmt 4.6, Leading zero omitted, Abs format (unit mm)*
G04 Created by KiCad (PCBNEW 9.0.7) date 2026-02-08 15:55:18*
%MOMM*%
%LPD*%
G01*
G04 APERTURE LIST*
G04 Aperture macros list*
%AMRoundRect*
0 Rectangle with rounded corners*
0 $1 Rounding radius*
0 $2 $3 $4 $5 $6 $7 $8 $9 X,Y pos of 4 corners*
0 Add a 4 corners polygon primitive as box body*
4,1,4,$2,$3,$4,$5,$6,$7,$8,$9,$2,$3,0*
0 Add four circle primitives for the rounded corners*
1,1,$1+$1,$2,$3*
1,1,$1+$1,$4,$5*
1,1,$1+$1,$6,$7*
1,1,$1+$1,$8,$9*
0 Add four rect primitives between the rounded corners*
20,1,$1+$1,$2,$3,$4,$5,0*
20,1,$1+$1,$4,$5,$6,$7,0*
20,1,$1+$1,$6,$7,$8,$9,0*
20,1,$1+$1,$8,$9,$2,$3,0*%
G04 Aperture macros list end*
%TA.AperFunction,ComponentPad*%
%ADD10C,1.600000*%
%TD*%
%TA.AperFunction,ComponentPad*%
%ADD11R,1.800000X1.800000*%
%TD*%
%TA.AperFunction,ComponentPad*%
%ADD12C,1.800000*%
%TD*%
%TA.AperFunction,ComponentPad*%
%ADD13RoundRect,0.249999X-0.850001X-0.850001X0.850001X-0.850001X0.850001X0.850001X-0.850001X0.850001X0*%
%TD*%
%TA.AperFunction,ComponentPad*%
%ADD14C,2.200000*%
%TD*%
%TA.AperFunction,ComponentPad*%
%ADD15R,2.000000X2.000000*%
%TD*%
%TA.AperFunction,ComponentPad*%
%ADD16C,2.000000*%
%TD*%
%TA.AperFunction,ComponentPad*%
%ADD17R,1.700000X1.700000*%
%TD*%
%TA.AperFunction,ComponentPad*%
%ADD18C,1.700000*%
%TD*%
%TA.AperFunction,ComponentPad*%
%ADD19RoundRect,0.250000X0.750000X0.750000X-0.750000X0.750000X-0.750000X-0.750000X0.750000X-0.750000X0*%
%TD*%
%TA.AperFunction,ComponentPad*%
%ADD20R,1.358000X1.358000*%
%TD*%
%TA.AperFunction,ComponentPad*%
%ADD21C,1.358000*%
%TD*%
%TA.AperFunction,Conductor*%
%ADD22C,0.800000*%
%TD*%
%TA.AperFunction,Conductor*%
%ADD23C,0.200000*%
%TD*%
G04 APERTURE END LIST*
D10*
%TO.P,R3,1*%
%TO.N,Net-(D2-A)*%
X111405000Y-52935000D03*
%TO.P,R3,2*%
%TO.N,Net-(U2-GPIO33{slash}AD5{slash}TOUCH8)*%
X111405000Y-63095000D03*
%TD*%
D11*
%TO.P,D3,1,K*%
%TO.N,Net-(BZ1--)*%
X151000000Y-41095000D03*
D12*
%TO.P,D3,2,A*%
%TO.N,Net-(D3-A)*%
X153540000Y-41095000D03*
%TD*%
D13*
%TO.P,Diode,1,K*%
%TO.N,Net-(D4-K)*%
X118995000Y-130595000D03*
D14*
%TO.P,Diode,2,A*%
%TO.N,Net-(BZ1--)*%
X129155000Y-130595000D03*
%TD*%
D10*
%TO.P,R2,1*%
%TO.N,Net-(D1-A)*%
X106905000Y-53515000D03*
%TO.P,R2,2*%
%TO.N,Net-(U2-GPIO25{slash}AD18{slash}DA1)*%
X106905000Y-63675000D03*
%TD*%
D15*
%TO.P,BZ1,1,+*%
%TO.N,Net-(BZ1-+)*%
X169805000Y-119595000D03*
D16*
%TO.P,BZ1,2,-*%
%TO.N,Net-(BZ1--)*%
X177405000Y-119595000D03*
%TD*%
D10*
%TO.P,R4,1*%
%TO.N,Net-(D3-A)*%
X115905000Y-53435000D03*
%TO.P,R4,2*%
%TO.N,Net-(U2-GPIO32{slash}AD4{slash}TOUCH9)*%
X115905000Y-63595000D03*
%TD*%
D11*
%TO.P,D1,1,K*%
%TO.N,Net-(BZ1--)*%
X126675000Y-42095000D03*
D12*
%TO.P,D1,2,A*%
%TO.N,Net-(D1-A)*%
X124135000Y-42095000D03*
%TD*%
D17*
%TO.P,M1,1,PWM*%
%TO.N,Net-(M1-PWM)*%
X122865000Y-121095000D03*
D18*
%TO.P,M1,2,+*%
%TO.N,Net-(D4-K)*%
X125405000Y-121095000D03*
%TO.P,M1,3,-*%
%TO.N,Net-(BZ1--)*%
X127945000Y-121095000D03*
%TD*%
D19*
%TO.P,C1,1*%
%TO.N,Net-(M1-PWM)*%
X109272677Y-121095000D03*
D16*
%TO.P,C1,2*%
%TO.N,Net-(BZ1--)*%
X104272677Y-121095000D03*
%TD*%
D17*
%TO.P,J1,1,Pin_1*%
%TO.N,Net-(D4-K)*%
X174365000Y-73595000D03*
D18*
%TO.P,J1,2,Pin_2*%
%TO.N,Net-(BZ1--)*%
X176905000Y-73595000D03*
%TD*%
D20*
%TO.P,ESP32 (38 PIN),1,3V3*%
%TO.N,unconnected-(U2-3V3-Pad1)*%
X125271177Y-61693500D03*
D21*
%TO.P,ESP32 (38 PIN),2,EN/RESET*%
%TO.N,unconnected-(U2-EN{slash}RESET-Pad2)*%
X125271177Y-64233500D03*
%TO.P,ESP32 (38 PIN),3,GPIO36/AD0/SVP*%
%TO.N,unconnected-(U2-GPIO36{slash}AD0{slash}SVP-Pad3)*%
X125271177Y-66773500D03*
%TO.P,ESP32 (38 PIN),4,GPIO39/AD3/SVN*%
%TO.N,unconnected-(U2-GPIO39{slash}AD3{slash}SVN-Pad4)*%
X125271177Y-69313500D03*
%TO.P,ESP32 (38 PIN),5,GPIO34/AD6*%
%TO.N,unconnected-(U2-GPIO34{slash}AD6-Pad5)*%
X125271177Y-71853500D03*
%TO.P,ESP32 (38 PIN),6,GPIO35/AD7*%
%TO.N,unconnected-(U2-GPIO35{slash}AD7-Pad6)*%
X125271177Y-74393500D03*
%TO.P,ESP32 (38 PIN),7,GPIO32/AD4/TOUCH9*%
%TO.N,Net-(U2-GPIO32{slash}AD4{slash}TOUCH9)*%
X125271177Y-76933500D03*
%TO.P,ESP32 (38 PIN),8,GPIO33/AD5/TOUCH8*%
%TO.N,Net-(U2-GPIO33{slash}AD5{slash}TOUCH8)*%
X125271177Y-79473500D03*
%TO.P,ESP32 (38 PIN),9,GPIO25/AD18/DA1*%
%TO.N,Net-(U2-GPIO25{slash}AD18{slash}DA1)*%
X125271177Y-82013500D03*
%TO.P,ESP32 (38 PIN),10,GPIO26/AD19/DA2*%
%TO.N,Net-(M1-PWM)*%
X125271177Y-84553500D03*
%TO.P,ESP32 (38 PIN),11,GPIO27/AD17/TOUCH7*%
%TO.N,Net-(BZ1-+)*%
X125271177Y-87093500D03*
%TO.P,ESP32 (38 PIN),12,GPIO14/AD16/TOUCH6/HSPI_SCK*%
%TO.N,unconnected-(U2-GPIO14{slash}AD16{slash}TOUCH6{slash}HSPI_SCK-Pad12)*%
X125271177Y-89633500D03*
%TO.P,ESP32 (38 PIN),13,GPIO12/AD15/TOUCH5/HSPI_MISO*%
%TO.N,unconnected-(U2-GPIO12{slash}AD15{slash}TOUCH5{slash}HSPI_MISO-Pad13)*%
X125271177Y-92173500D03*
%TO.P,ESP32 (38 PIN),14,GND1*%
%TO.N,unconnected-(U2-GND1-Pad14)*%
X125271177Y-94713500D03*
%TO.P,ESP32 (38 PIN),15,GPIO13/AD14//TOUCH4/HSPI_MOSI*%
%TO.N,unconnected-(U2-GPIO13{slash}AD14{slash}{slash}TOUCH4{slash}HSPI_MOSI-Pad15)*%
X125271177Y-97253500D03*
%TO.P,ESP32 (38 PIN),16,GPIO9/FLASH_D2*%
%TO.N,unconnected-(U2-GPIO9{slash}FLASH_D2-Pad16)*%
X125271177Y-99793500D03*
%TO.P,ESP32 (38 PIN),17,GPIO10/FLASH_D3*%
%TO.N,unconnected-(U2-GPIO10{slash}FLASH_D3-Pad17)*%
X125271177Y-102333500D03*
%TO.P,ESP32 (38 PIN),18,GPIO11/FLASH_CMD*%
%TO.N,unconnected-(U2-GPIO11{slash}FLASH_CMD-Pad18)*%
X125271177Y-104873500D03*
%TO.P,ESP32 (38 PIN),19,5V*%
%TO.N,Net-(D4-K)*%
X125271177Y-107413500D03*
%TO.P,ESP32 (38 PIN),20,GPIO6/FLASH_SCK*%
%TO.N,unconnected-(U2-GPIO6{slash}FLASH_SCK-Pad20)*%
X150671177Y-107413500D03*
%TO.P,ESP32 (38 PIN),21,GPIO7/FLASH_D0*%
%TO.N,unconnected-(U2-GPIO7{slash}FLASH_D0-Pad21)*%
X150671177Y-104873500D03*
%TO.P,ESP32 (38 PIN),22,GPIO8/FLASH_D1*%
%TO.N,unconnected-(U2-GPIO8{slash}FLASH_D1-Pad22)*%
X150671177Y-102333500D03*
%TO.P,ESP32 (38 PIN),23,GPIO15/AD13/TOUCH3/HSPI_SS*%
%TO.N,unconnected-(U2-GPIO15{slash}AD13{slash}TOUCH3{slash}HSPI_SS-Pad23)*%
X150671177Y-99793500D03*
%TO.P,ESP32 (38 PIN),24,GPIO2/AD12/TOUCH2*%
%TO.N,unconnected-(U2-GPIO2{slash}AD12{slash}TOUCH2-Pad24)*%
X150671177Y-97253500D03*
%TO.P,ESP32 (38 PIN),25,GPIO0/AD11/TOUCH1/BOOT*%
%TO.N,unconnected-(U2-GPIO0{slash}AD11{slash}TOUCH1{slash}BOOT-Pad25)*%
X150671177Y-94713500D03*
%TO.P,ESP32 (38 PIN),26,GPIO4/AD10/TOUCH0*%
%TO.N,unconnected-(U2-GPIO4{slash}AD10{slash}TOUCH0-Pad26)*%
X150671177Y-92173500D03*
%TO.P,ESP32 (38 PIN),27,GPIO16*%
%TO.N,unconnected-(U2-GPIO16-Pad27)*%
X150671177Y-89633500D03*
%TO.P,ESP32 (38 PIN),28,GPIO17*%
%TO.N,unconnected-(U2-GPIO17-Pad28)*%
X150671177Y-87093500D03*
%TO.P,ESP32 (38 PIN),29,GPIO5/SPI_SS*%
%TO.N,unconnected-(U2-GPIO5{slash}SPI_SS-Pad29)*%
X150671177Y-84553500D03*
%TO.P,ESP32 (38 PIN),30,GPIO18/SPI_CLK*%
%TO.N,unconnected-(U2-GPIO18{slash}SPI_CLK-Pad30)*%
X150671177Y-82013500D03*
%TO.P,ESP32 (38 PIN),31,GPIO19/SPI_MISO*%
%TO.N,unconnected-(U2-GPIO19{slash}SPI_MISO-Pad31)*%
X150671177Y-79473500D03*
%TO.P,ESP32 (38 PIN),32,GND2*%
%TO.N,unconnected-(U2-GND2-Pad32)*%
X150671177Y-76933500D03*
%TO.P,ESP32 (38 PIN),33,GPIO21/WIRE_SDA*%
%TO.N,unconnected-(U2-GPIO21{slash}WIRE_SDA-Pad33)*%
X150671177Y-74393500D03*
%TO.P,ESP32 (38 PIN),34,GPIO3/SERIAL_RX*%
%TO.N,unconnected-(U2-GPIO3{slash}SERIAL_RX-Pad34)*%
X150671177Y-71853500D03*
%TO.P,ESP32 (38 PIN),35,GPIO1/SERIAL_TX*%
%TO.N,unconnected-(U2-GPIO1{slash}SERIAL_TX-Pad35)*%
X150671177Y-69313500D03*
%TO.P,ESP32 (38 PIN),36,GPIO22/WIRE_SCL*%
%TO.N,unconnected-(U2-GPIO22{slash}WIRE_SCL-Pad36)*%
X150671177Y-66773500D03*
%TO.P,ESP32 (38 PIN),37,GPIO23/SPI_MOSI*%
%TO.N,unconnected-(U2-GPIO23{slash}SPI_MOSI-Pad37)*%
X150671177Y-64233500D03*
%TO.P,ESP32 (38 PIN),38,GND3*%
%TO.N,Net-(BZ1--)*%
X150671177Y-61693500D03*
%TD*%
D11*
%TO.P,D2,1,K*%
%TO.N,Net-(BZ1--)*%
X137905000Y-41595000D03*
D12*
%TO.P,D2,2,A*%
%TO.N,Net-(D2-A)*%
X140445000Y-41595000D03*
%TD*%
D22*
%TO.N,Net-(BZ1--)*%
X101405000Y-37750000D02*
X176905000Y-37750000D01*
X176905000Y-37750000D02*
X176905000Y-61345000D01*
D23*
%TO.N,*%
X117224000Y-42095000D02*
X122934000Y-42095000D01*
X106905000Y-52414000D02*
X117224000Y-42095000D01*
X107414000Y-52414000D02*
X106905000Y-52414000D01*
X107500000Y-52500000D02*
X107414000Y-52414000D01*
%TO.N,Net-(D3-A)*%
X115905000Y-53435000D02*
X141200000Y-53435000D01*
X141200000Y-53435000D02*
X153540000Y-41095000D01*
%TO.N,Net-(M1-PWM)*%
X109272677Y-100552000D02*
X109272677Y-121095000D01*
X125271177Y-84553500D02*
X109272677Y-100552000D01*
X122865000Y-121095000D02*
X109272677Y-121095000D01*
%TO.N,Net-(D2-A)*%
X140445000Y-45555000D02*
X140445000Y-41595000D01*
X111405000Y-52935000D02*
X116245000Y-48095000D01*
X137905000Y-48095000D02*
X140445000Y-45555000D01*
X116245000Y-48095000D02*
X137905000Y-48095000D01*
D22*
%TO.N,Net-(BZ1--)*%
X177405000Y-119595000D02*
X177405000Y-74095000D01*
X127945000Y-121095000D02*
X128175000Y-121325000D01*
X137445000Y-130595000D02*
X166405000Y-130595000D01*
D23*
X150405000Y-41095000D02*
X151000000Y-41095000D01*
D22*
X137445000Y-130595000D02*
X129155000Y-130595000D01*
X127945000Y-121095000D02*
X137445000Y-130595000D01*
X176905000Y-61345000D02*
X176905000Y-73595000D01*
D23*
X151032677Y-62055000D02*
X150671177Y-61693500D01*
D22*
X166405000Y-130595000D02*
X177405000Y-119595000D01*
D23*
X137405000Y-42095000D02*
X137905000Y-41595000D01*
X150671177Y-61693500D02*
X176556500Y-61693500D01*
X176556500Y-61693500D02*
X176905000Y-61345000D01*
X177405000Y-74095000D02*
X176905000Y-73595000D01*
X177405000Y-119595000D02*
X177905000Y-120095000D01*
%TO.N,Net-(U2-GPIO25{slash}AD18{slash}DA1)*%
X125271177Y-82013500D02*
X120823500Y-82013500D01*
X120823500Y-82013500D02*
X106905000Y-68095000D01*
X106905000Y-68095000D02*
X106905000Y-63675000D01*
%TO.N,Net-(U2-GPIO33{slash}AD5{slash}TOUCH8)*%
X111405000Y-66595000D02*
X111405000Y-63095000D01*
X125271177Y-79473500D02*
X124283500Y-79473500D01*
X124283500Y-79473500D02*
X111405000Y-66595000D01*
%TO.N,Net-(U2-GPIO32{slash}AD4{slash}TOUCH9)*%
X115905000Y-67567323D02*
X115905000Y-63595000D01*
X125271177Y-76933500D02*
X115905000Y-67567323D01*
D22*
%TO.N,Net-(D4-K)*%
X125405000Y-124185000D02*
X118995000Y-130595000D01*
X174405000Y-108095000D02*
X170905000Y-111595000D01*
D23*
X174365000Y-108055000D02*
X174405000Y-108095000D01*
D22*
X126905000Y-119595000D02*
X125405000Y-121095000D01*
X126905000Y-111595000D02*
X126905000Y-119595000D01*
X170905000Y-111595000D02*
X126905000Y-111595000D01*
X126905000Y-111595000D02*
X125271177Y-109961177D01*
X125271177Y-109961177D02*
X125271177Y-107413500D01*
X125405000Y-121095000D02*
X125405000Y-124185000D01*
X174365000Y-73595000D02*
X174365000Y-108055000D01*
%TO.N,Net-(BZ1--)*%
X104272677Y-121095000D02*
X101405000Y-118227323D01*
X101405000Y-118227323D02*
X101405000Y-37750000D01*
%TD*%
M02*
