%TF.GenerationSoftware,KiCad,Pcbnew,9.0.7*%
%TF.CreationDate,2026-02-08T17:37:32+02:00*%
%TF.ProjectId,DoorLock PCB,446f6f72-4c6f-4636-9b20-5043422e6b69,rev?*%
%TF.SameCoordinates,Original*%
%TF.FileFunction,Copper,L2,Bot*%
%TF.FilePolarity,Positive*%
%FSLAX46Y46*%
G04 Gerber Fmt 4.6, Leading zero omitted, Abs format (unit mm)*
G04 Created by KiCad (PCBNEW 9.0.7) date 2026-02-08 17:37:32*
%MOMM*%
%LPD*%
G01*
G04 APERTURE LIST*
G04 Aperture macros list*
%AMRoundRect*
0 Rectangle with rounded corners*
0 $1 Rounding radius*
0 $2 $3 $4 $5 $6 $7 $8 $9 X,Y pos of 4 corners*
0 Add a 4 corners polygon primitive as box body*
4,1,4,$2,$3,$4,$5,$6,$7,$8,$9,$2,$3,0*
0 Add four circle primitives for the rounded corners*
1,1,$1+$1,$2,$3*
1,1,$1+$1,$4,$5*
1,1,$1+$1,$6,$7*
1,1,$1+$1,$8,$9*
0 Add four rect primitives between the rounded corners*
20,1,$1+$1,$2,$3,$4,$5,0*
20,1,$1+$1,$4,$5,$6,$7,0*
20,1,$1+$1,$6,$7,$8,$9,0*
20,1,$1+$1,$8,$9,$2,$3,0*%
G04 Aperture macros list end*
%TA.AperFunction,ComponentPad*%
%ADD10C,1.600000*%
%TD*%
%TA.AperFunction,ComponentPad*%
%ADD11R,1.800000X1.800000*%
%TD*%
%TA.AperFunction,ComponentPad*%
%ADD12C,1.800000*%
%TD*%
%TA.AperFunction,ComponentPad*%
%ADD13RoundRect,0.249999X-0.850001X-0.850001X0.850001X-0.850001X0.850001X0.850001X-0.850001X0.850001X0*%
%TD*%
%TA.AperFunction,ComponentPad*%
%ADD14C,2.200000*%
%TD*%
%TA.AperFunction,ComponentPad*%
%ADD15R,2.000000X2.000000*%
%TD*%
%TA.AperFunction,ComponentPad*%
%ADD16C,2.000000*%
%TD*%
%TA.AperFunction,ComponentPad*%
%ADD17R,1.700000X1.700000*%
%TD*%
%TA.AperFunction,ComponentPad*%
%ADD18C,1.700000*%
%TD*%
%TA.AperFunction,ComponentPad*%
%ADD19RoundRect,0.250000X0.750000X0.750000X-0.750000X0.750000X-0.750000X-0.750000X0.750000X-0.750000X0*%
%TD*%
%TA.AperFunction,ComponentPad*%
%ADD20R,1.358000X1.358000*%
%TD*%
%TA.AperFunction,ComponentPad*%
%ADD21C,1.358000*%
%TD*%
%TA.AperFunction,Conductor*%
%ADD22C,0.200000*%
%TD*%
%TA.AperFunction,Conductor*%
%ADD23C,0.800000*%
%TD*%
G04 APERTURE END LIST*
D10*
%TO.P,R3,1*%
%TO.N,Net-(D2-A)*%
X112000000Y-53685000D03*
%TO.P,R3,2*%
%TO.N,Net-(U2-GPIO33{slash}AD5{slash}TOUCH8)*%
X112000000Y-63845000D03*
%TD*%
D11*
%TO.P,D3,1,K*%
%TO.N,Net-(BZ1--)*%
X151595000Y-41845000D03*
D12*
%TO.P,D3,2,A*%
%TO.N,Net-(D3-A)*%
X154135000Y-41845000D03*
%TD*%
D13*
%TO.P,Diode,1,K*%
%TO.N,Net-(D4-K)*%
X119590000Y-131345000D03*
D14*
%TO.P,Diode,2,A*%
%TO.N,Net-(BZ1--)*%
X129750000Y-131345000D03*
%TD*%
D10*
%TO.P,R2,1*%
%TO.N,Net-(D1-A)*%
X107500000Y-54265000D03*
%TO.P,R2,2*%
%TO.N,Net-(U2-GPIO25{slash}AD18{slash}DA1)*%
X107500000Y-64425000D03*
%TD*%
D15*
%TO.P,BZ1,1,+*%
%TO.N,Net-(BZ1-+)*%
X170400000Y-120345000D03*
D16*
%TO.P,BZ1,2,-*%
%TO.N,Net-(BZ1--)*%
X178000000Y-120345000D03*
%TD*%
D10*
%TO.P,R4,1*%
%TO.N,Net-(D3-A)*%
X116500000Y-54185000D03*
%TO.P,R4,2*%
%TO.N,Net-(U2-GPIO32{slash}AD4{slash}TOUCH9)*%
X116500000Y-64345000D03*
%TD*%
D11*
%TO.P,D1,1,K*%
%TO.N,Net-(BZ1--)*%
X127270000Y-42845000D03*
D12*
%TO.P,D1,2,A*%
%TO.N,Net-(D1-A)*%
X124730000Y-42845000D03*
%TD*%
D17*
%TO.P,M1,1,PWM*%
%TO.N,Net-(M1-PWM)*%
X123460000Y-121845000D03*
D18*
%TO.P,M1,2,+*%
%TO.N,Net-(D4-K)*%
X126000000Y-121845000D03*
%TO.P,M1,3,-*%
%TO.N,Net-(BZ1--)*%
X128540000Y-121845000D03*
%TD*%
D19*
%TO.P,C1,1*%
%TO.N,Net-(M1-PWM)*%
X109867677Y-121845000D03*
D16*
%TO.P,C1,2*%
%TO.N,Net-(BZ1--)*%
X104867677Y-121845000D03*
%TD*%
D17*
%TO.P,J1,1,Pin_1*%
%TO.N,Net-(D4-K)*%
X174960000Y-74345000D03*
D18*
%TO.P,J1,2,Pin_2*%
%TO.N,Net-(BZ1--)*%
X177500000Y-74345000D03*
%TD*%
D20*
%TO.P,ESP32 (38 PIN),1,3V3*%
%TO.N,unconnected-(U2-3V3-Pad1)*%
X125866177Y-62443500D03*
D21*
%TO.P,ESP32 (38 PIN),2,EN/RESET*%
%TO.N,unconnected-(U2-EN{slash}RESET-Pad2)*%
X125866177Y-64983500D03*
%TO.P,ESP32 (38 PIN),3,GPIO36/AD0/SVP*%
%TO.N,unconnected-(U2-GPIO36{slash}AD0{slash}SVP-Pad3)*%
X125866177Y-67523500D03*
%TO.P,ESP32 (38 PIN),4,GPIO39/AD3/SVN*%
%TO.N,unconnected-(U2-GPIO39{slash}AD3{slash}SVN-Pad4)*%
X125866177Y-70063500D03*
%TO.P,ESP32 (38 PIN),5,GPIO34/AD6*%
%TO.N,unconnected-(U2-GPIO34{slash}AD6-Pad5)*%
X125866177Y-72603500D03*
%TO.P,ESP32 (38 PIN),6,GPIO35/AD7*%
%TO.N,unconnected-(U2-GPIO35{slash}AD7-Pad6)*%
X125866177Y-75143500D03*
%TO.P,ESP32 (38 PIN),7,GPIO32/AD4/TOUCH9*%
%TO.N,Net-(U2-GPIO32{slash}AD4{slash}TOUCH9)*%
X125866177Y-77683500D03*
%TO.P,ESP32 (38 PIN),8,GPIO33/AD5/TOUCH8*%
%TO.N,Net-(U2-GPIO33{slash}AD5{slash}TOUCH8)*%
X125866177Y-80223500D03*
%TO.P,ESP32 (38 PIN),9,GPIO25/AD18/DA1*%
%TO.N,Net-(U2-GPIO25{slash}AD18{slash}DA1)*%
X125866177Y-82763500D03*
%TO.P,ESP32 (38 PIN),10,GPIO26/AD19/DA2*%
%TO.N,Net-(M1-PWM)*%
X125866177Y-85303500D03*
%TO.P,ESP32 (38 PIN),11,GPIO27/AD17/TOUCH7*%
%TO.N,Net-(BZ1-+)*%
X125866177Y-87843500D03*
%TO.P,ESP32 (38 PIN),12,GPIO14/AD16/TOUCH6/HSPI_SCK*%
%TO.N,unconnected-(U2-GPIO14{slash}AD16{slash}TOUCH6{slash}HSPI_SCK-Pad12)*%
X125866177Y-90383500D03*
%TO.P,ESP32 (38 PIN),13,GPIO12/AD15/TOUCH5/HSPI_MISO*%
%TO.N,unconnected-(U2-GPIO12{slash}AD15{slash}TOUCH5{slash}HSPI_MISO-Pad13)*%
X125866177Y-92923500D03*
%TO.P,ESP32 (38 PIN),14,GND1*%
%TO.N,unconnected-(U2-GND1-Pad14)*%
X125866177Y-95463500D03*
%TO.P,ESP32 (38 PIN),15,GPIO13/AD14//TOUCH4/HSPI_MOSI*%
%TO.N,unconnected-(U2-GPIO13{slash}AD14{slash}{slash}TOUCH4{slash}HSPI_MOSI-Pad15)*%
X125866177Y-98003500D03*
%TO.P,ESP32 (38 PIN),16,GPIO9/FLASH_D2*%
%TO.N,unconnected-(U2-GPIO9{slash}FLASH_D2-Pad16)*%
X125866177Y-100543500D03*
%TO.P,ESP32 (38 PIN),17,GPIO10/FLASH_D3*%
%TO.N,unconnected-(U2-GPIO10{slash}FLASH_D3-Pad17)*%
X125866177Y-103083500D03*
%TO.P,ESP32 (38 PIN),18,GPIO11/FLASH_CMD*%
%TO.N,unconnected-(U2-GPIO11{slash}FLASH_CMD-Pad18)*%
X125866177Y-105623500D03*
%TO.P,ESP32 (38 PIN),19,5V*%
%TO.N,Net-(D4-K)*%
X125866177Y-108163500D03*
%TO.P,ESP32 (38 PIN),20,GPIO6/FLASH_SCK*%
%TO.N,unconnected-(U2-GPIO6{slash}FLASH_SCK-Pad20)*%
X151266177Y-108163500D03*
%TO.P,ESP32 (38 PIN),21,GPIO7/FLASH_D0*%
%TO.N,unconnected-(U2-GPIO7{slash}FLASH_D0-Pad21)*%
X151266177Y-105623500D03*
%TO.P,ESP32 (38 PIN),22,GPIO8/FLASH_D1*%
%TO.N,unconnected-(U2-GPIO8{slash}FLASH_D1-Pad22)*%
X151266177Y-103083500D03*
%TO.P,ESP32 (38 PIN),23,GPIO15/AD13/TOUCH3/HSPI_SS*%
%TO.N,unconnected-(U2-GPIO15{slash}AD13{slash}TOUCH3{slash}HSPI_SS-Pad23)*%
X151266177Y-100543500D03*
%TO.P,ESP32 (38 PIN),24,GPIO2/AD12/TOUCH2*%
%TO.N,unconnected-(U2-GPIO2{slash}AD12{slash}TOUCH2-Pad24)*%
X151266177Y-98003500D03*
%TO.P,ESP32 (38 PIN),25,GPIO0/AD11/TOUCH1/BOOT*%
%TO.N,unconnected-(U2-GPIO0{slash}AD11{slash}TOUCH1{slash}BOOT-Pad25)*%
X151266177Y-95463500D03*
%TO.P,ESP32 (38 PIN),26,GPIO4/AD10/TOUCH0*%
%TO.N,unconnected-(U2-GPIO4{slash}AD10{slash}TOUCH0-Pad26)*%
X151266177Y-92923500D03*
%TO.P,ESP32 (38 PIN),27,GPIO16*%
%TO.N,unconnected-(U2-GPIO16-Pad27)*%
X151266177Y-90383500D03*
%TO.P,ESP32 (38 PIN),28,GPIO17*%
%TO.N,unconnected-(U2-GPIO17-Pad28)*%
X151266177Y-87843500D03*
%TO.P,ESP32 (38 PIN),29,GPIO5/SPI_SS*%
%TO.N,unconnected-(U2-GPIO5{slash}SPI_SS-Pad29)*%
X151266177Y-85303500D03*
%TO.P,ESP32 (38 PIN),30,GPIO18/SPI_CLK*%
%TO.N,unconnected-(U2-GPIO18{slash}SPI_CLK-Pad30)*%
X151266177Y-82763500D03*
%TO.P,ESP32 (38 PIN),31,GPIO19/SPI_MISO*%
%TO.N,unconnected-(U2-GPIO19{slash}SPI_MISO-Pad31)*%
X151266177Y-80223500D03*
%TO.P,ESP32 (38 PIN),32,GND2*%
%TO.N,unconnected-(U2-GND2-Pad32)*%
X151266177Y-77683500D03*
%TO.P,ESP32 (38 PIN),33,GPIO21/WIRE_SDA*%
%TO.N,unconnected-(U2-GPIO21{slash}WIRE_SDA-Pad33)*%
X151266177Y-75143500D03*
%TO.P,ESP32 (38 PIN),34,GPIO3/SERIAL_RX*%
%TO.N,unconnected-(U2-GPIO3{slash}SERIAL_RX-Pad34)*%
X151266177Y-72603500D03*
%TO.P,ESP32 (38 PIN),35,GPIO1/SERIAL_TX*%
%TO.N,unconnected-(U2-GPIO1{slash}SERIAL_TX-Pad35)*%
X151266177Y-70063500D03*
%TO.P,ESP32 (38 PIN),36,GPIO22/WIRE_SCL*%
%TO.N,unconnected-(U2-GPIO22{slash}WIRE_SCL-Pad36)*%
X151266177Y-67523500D03*
%TO.P,ESP32 (38 PIN),37,GPIO23/SPI_MOSI*%
%TO.N,unconnected-(U2-GPIO23{slash}SPI_MOSI-Pad37)*%
X151266177Y-64983500D03*
%TO.P,ESP32 (38 PIN),38,GND3*%
%TO.N,Net-(BZ1--)*%
X151266177Y-62443500D03*
%TD*%
D11*
%TO.P,D2,1,K*%
%TO.N,Net-(BZ1--)*%
X138500000Y-42345000D03*
D12*
%TO.P,D2,2,A*%
%TO.N,Net-(D2-A)*%
X141040000Y-42345000D03*
%TD*%
D22*
%TO.N,*%
X117819000Y-42845000D02*
X123529000Y-42845000D01*
X108095000Y-53250000D02*
X108009000Y-53164000D01*
X108009000Y-53164000D02*
X107500000Y-53164000D01*
X107500000Y-53164000D02*
X117819000Y-42845000D01*
%TO.N,Net-(D3-A)*%
X116500000Y-54185000D02*
X141795000Y-54185000D01*
X141795000Y-54185000D02*
X154135000Y-41845000D01*
%TO.N,Net-(M1-PWM)*%
X109867677Y-101302000D02*
X109867677Y-121845000D01*
X125866177Y-85303500D02*
X109867677Y-101302000D01*
X123460000Y-121845000D02*
X109867677Y-121845000D01*
%TO.N,Net-(D2-A)*%
X141040000Y-46305000D02*
X141040000Y-42345000D01*
X112000000Y-53685000D02*
X116840000Y-48845000D01*
X138500000Y-48845000D02*
X141040000Y-46305000D01*
X116840000Y-48845000D02*
X138500000Y-48845000D01*
D23*
%TO.N,Net-(BZ1--)*%
X178000000Y-120345000D02*
X178000000Y-74845000D01*
X128540000Y-121845000D02*
X128770000Y-122075000D01*
X177500000Y-38500000D02*
X177500000Y-62095000D01*
X102000000Y-38500000D02*
X177500000Y-38500000D01*
X138040000Y-131345000D02*
X167000000Y-131345000D01*
D22*
X151000000Y-41845000D02*
X151595000Y-41845000D01*
D23*
X138040000Y-131345000D02*
X129750000Y-131345000D01*
X128540000Y-121845000D02*
X138040000Y-131345000D01*
X177500000Y-62095000D02*
X177500000Y-74345000D01*
D22*
X151627677Y-62805000D02*
X151266177Y-62443500D01*
D23*
X167000000Y-131345000D02*
X178000000Y-120345000D01*
D22*
X138000000Y-42845000D02*
X138500000Y-42345000D01*
D23*
X104867677Y-121845000D02*
X102000000Y-118977323D01*
D22*
X151266177Y-62443500D02*
X177151500Y-62443500D01*
X177151500Y-62443500D02*
X177500000Y-62095000D01*
X178000000Y-74845000D02*
X177500000Y-74345000D01*
D23*
X102000000Y-118977323D02*
X102000000Y-38500000D01*
D22*
X178000000Y-120345000D02*
X178500000Y-120845000D01*
%TO.N,Net-(U2-GPIO25{slash}AD18{slash}DA1)*%
X125866177Y-82763500D02*
X121418500Y-82763500D01*
X121418500Y-82763500D02*
X107500000Y-68845000D01*
X107500000Y-68845000D02*
X107500000Y-64425000D01*
%TO.N,Net-(U2-GPIO33{slash}AD5{slash}TOUCH8)*%
X112000000Y-67345000D02*
X112000000Y-63845000D01*
X125866177Y-80223500D02*
X124878500Y-80223500D01*
X124878500Y-80223500D02*
X112000000Y-67345000D01*
%TO.N,Net-(U2-GPIO32{slash}AD4{slash}TOUCH9)*%
X116500000Y-68317323D02*
X116500000Y-64345000D01*
X125866177Y-77683500D02*
X116500000Y-68317323D01*
D23*
%TO.N,Net-(D4-K)*%
X126000000Y-124935000D02*
X119590000Y-131345000D01*
X175000000Y-108845000D02*
X171500000Y-112345000D01*
D22*
X174960000Y-108805000D02*
X175000000Y-108845000D01*
D23*
X127500000Y-120345000D02*
X126000000Y-121845000D01*
X127500000Y-112345000D02*
X127500000Y-120345000D01*
X171500000Y-112345000D02*
X127500000Y-112345000D01*
X127500000Y-112345000D02*
X125866177Y-110711177D01*
X125866177Y-110711177D02*
X125866177Y-108163500D01*
X126000000Y-121845000D02*
X126000000Y-124935000D01*
X174960000Y-74345000D02*
X174960000Y-108805000D01*
%TD*%
M02*
