%TF.GenerationSoftware,KiCad,Pcbnew,9.0.7*%
%TF.CreationDate,2026-02-08T17:37:32+02:00*%
%TF.ProjectId,DoorLock PCB,446f6f72-4c6f-4636-9b20-5043422e6b69,rev?*%
%TF.SameCoordinates,Original*%
%TF.FileFunction,Soldermask,Bot*%
%TF.FilePolarity,Negative*%
%FSLAX46Y46*%
G04 Gerber Fmt 4.6, Leading zero omitted, Abs format (unit mm)*
G04 Created by KiCad (PCBNEW 9.0.7) date 2026-02-08 17:37:32*
%MOMM*%
%LPD*%
G01*
G04 APERTURE LIST*
G04 Aperture macros list*
%AMRoundRect*
0 Rectangle with rounded corners*
0 $1 Rounding radius*
0 $2 $3 $4 $5 $6 $7 $8 $9 X,Y pos of 4 corners*
0 Add a 4 corners polygon primitive as box body*
4,1,4,$2,$3,$4,$5,$6,$7,$8,$9,$2,$3,0*
0 Add four circle primitives for the rounded corners*
1,1,$1+$1,$2,$3*
1,1,$1+$1,$4,$5*
1,1,$1+$1,$6,$7*
1,1,$1+$1,$8,$9*
0 Add four rect primitives between the rounded corners*
20,1,$1+$1,$2,$3,$4,$5,0*
20,1,$1+$1,$4,$5,$6,$7,0*
20,1,$1+$1,$6,$7,$8,$9,0*
20,1,$1+$1,$8,$9,$2,$3,0*%
G04 Aperture macros list end*
%ADD10C,0.600000*%
%ADD11C,1.600000*%
%ADD12R,1.800000X1.800000*%
%ADD13C,1.800000*%
%ADD14RoundRect,0.249999X-0.850001X-0.850001X0.850001X-0.850001X0.850001X0.850001X-0.850001X0.850001X0*%
%ADD15C,2.200000*%
%ADD16R,2.000000X2.000000*%
%ADD17C,2.000000*%
%ADD18R,1.700000X1.700000*%
%ADD19C,1.700000*%
%ADD20RoundRect,0.250000X0.750000X0.750000X-0.750000X0.750000X-0.750000X-0.750000X0.750000X-0.750000X0*%
%ADD21RoundRect,0.102000X-0.679000X-0.679000X0.679000X-0.679000X0.679000X0.679000X-0.679000X0.679000X0*%
%ADD22C,1.562000*%
G04 APERTURE END LIST*
D10*
X148533835Y-113982371D02*
X148390978Y-113839514D01*
X148390978Y-113839514D02*
X148105264Y-113696657D01*
X148105264Y-113696657D02*
X147390978Y-113696657D01*
X147390978Y-113696657D02*
X147105264Y-113839514D01*
X147105264Y-113839514D02*
X146962406Y-113982371D01*
X146962406Y-113982371D02*
X146819549Y-114268085D01*
X146819549Y-114268085D02*
X146819549Y-114553800D01*
X146819549Y-114553800D02*
X146962406Y-114982371D01*
X146962406Y-114982371D02*
X148676692Y-116696657D01*
X148676692Y-116696657D02*
X146819549Y-116696657D01*
X143390978Y-113553800D02*
X145962406Y-117410942D01*
X141962406Y-114982371D02*
X142248121Y-114839514D01*
X142248121Y-114839514D02*
X142390978Y-114696657D01*
X142390978Y-114696657D02*
X142533835Y-114410942D01*
X142533835Y-114410942D02*
X142533835Y-114268085D01*
X142533835Y-114268085D02*
X142390978Y-113982371D01*
X142390978Y-113982371D02*
X142248121Y-113839514D01*
X142248121Y-113839514D02*
X141962406Y-113696657D01*
X141962406Y-113696657D02*
X141390978Y-113696657D01*
X141390978Y-113696657D02*
X141105264Y-113839514D01*
X141105264Y-113839514D02*
X140962406Y-113982371D01*
X140962406Y-113982371D02*
X140819549Y-114268085D01*
X140819549Y-114268085D02*
X140819549Y-114410942D01*
X140819549Y-114410942D02*
X140962406Y-114696657D01*
X140962406Y-114696657D02*
X141105264Y-114839514D01*
X141105264Y-114839514D02*
X141390978Y-114982371D01*
X141390978Y-114982371D02*
X141962406Y-114982371D01*
X141962406Y-114982371D02*
X142248121Y-115125228D01*
X142248121Y-115125228D02*
X142390978Y-115268085D01*
X142390978Y-115268085D02*
X142533835Y-115553800D01*
X142533835Y-115553800D02*
X142533835Y-116125228D01*
X142533835Y-116125228D02*
X142390978Y-116410942D01*
X142390978Y-116410942D02*
X142248121Y-116553800D01*
X142248121Y-116553800D02*
X141962406Y-116696657D01*
X141962406Y-116696657D02*
X141390978Y-116696657D01*
X141390978Y-116696657D02*
X141105264Y-116553800D01*
X141105264Y-116553800D02*
X140962406Y-116410942D01*
X140962406Y-116410942D02*
X140819549Y-116125228D01*
X140819549Y-116125228D02*
X140819549Y-115553800D01*
X140819549Y-115553800D02*
X140962406Y-115268085D01*
X140962406Y-115268085D02*
X141105264Y-115125228D01*
X141105264Y-115125228D02*
X141390978Y-114982371D01*
X137390978Y-113553800D02*
X139962406Y-117410942D01*
X136533835Y-113982371D02*
X136390978Y-113839514D01*
X136390978Y-113839514D02*
X136105264Y-113696657D01*
X136105264Y-113696657D02*
X135390978Y-113696657D01*
X135390978Y-113696657D02*
X135105264Y-113839514D01*
X135105264Y-113839514D02*
X134962406Y-113982371D01*
X134962406Y-113982371D02*
X134819549Y-114268085D01*
X134819549Y-114268085D02*
X134819549Y-114553800D01*
X134819549Y-114553800D02*
X134962406Y-114982371D01*
X134962406Y-114982371D02*
X136676692Y-116696657D01*
X136676692Y-116696657D02*
X134819549Y-116696657D01*
X132962406Y-113696657D02*
X132676692Y-113696657D01*
X132676692Y-113696657D02*
X132390978Y-113839514D01*
X132390978Y-113839514D02*
X132248121Y-113982371D01*
X132248121Y-113982371D02*
X132105263Y-114268085D01*
X132105263Y-114268085D02*
X131962406Y-114839514D01*
X131962406Y-114839514D02*
X131962406Y-115553800D01*
X131962406Y-115553800D02*
X132105263Y-116125228D01*
X132105263Y-116125228D02*
X132248121Y-116410942D01*
X132248121Y-116410942D02*
X132390978Y-116553800D01*
X132390978Y-116553800D02*
X132676692Y-116696657D01*
X132676692Y-116696657D02*
X132962406Y-116696657D01*
X132962406Y-116696657D02*
X133248121Y-116553800D01*
X133248121Y-116553800D02*
X133390978Y-116410942D01*
X133390978Y-116410942D02*
X133533835Y-116125228D01*
X133533835Y-116125228D02*
X133676692Y-115553800D01*
X133676692Y-115553800D02*
X133676692Y-114839514D01*
X133676692Y-114839514D02*
X133533835Y-114268085D01*
X133533835Y-114268085D02*
X133390978Y-113982371D01*
X133390978Y-113982371D02*
X133248121Y-113839514D01*
X133248121Y-113839514D02*
X132962406Y-113696657D01*
X130819549Y-113982371D02*
X130676692Y-113839514D01*
X130676692Y-113839514D02*
X130390978Y-113696657D01*
X130390978Y-113696657D02*
X129676692Y-113696657D01*
X129676692Y-113696657D02*
X129390978Y-113839514D01*
X129390978Y-113839514D02*
X129248120Y-113982371D01*
X129248120Y-113982371D02*
X129105263Y-114268085D01*
X129105263Y-114268085D02*
X129105263Y-114553800D01*
X129105263Y-114553800D02*
X129248120Y-114982371D01*
X129248120Y-114982371D02*
X130962406Y-116696657D01*
X130962406Y-116696657D02*
X129105263Y-116696657D01*
X126533835Y-113696657D02*
X127105263Y-113696657D01*
X127105263Y-113696657D02*
X127390977Y-113839514D01*
X127390977Y-113839514D02*
X127533835Y-113982371D01*
X127533835Y-113982371D02*
X127819549Y-114410942D01*
X127819549Y-114410942D02*
X127962406Y-114982371D01*
X127962406Y-114982371D02*
X127962406Y-116125228D01*
X127962406Y-116125228D02*
X127819549Y-116410942D01*
X127819549Y-116410942D02*
X127676692Y-116553800D01*
X127676692Y-116553800D02*
X127390977Y-116696657D01*
X127390977Y-116696657D02*
X126819549Y-116696657D01*
X126819549Y-116696657D02*
X126533835Y-116553800D01*
X126533835Y-116553800D02*
X126390977Y-116410942D01*
X126390977Y-116410942D02*
X126248120Y-116125228D01*
X126248120Y-116125228D02*
X126248120Y-115410942D01*
X126248120Y-115410942D02*
X126390977Y-115125228D01*
X126390977Y-115125228D02*
X126533835Y-114982371D01*
X126533835Y-114982371D02*
X126819549Y-114839514D01*
X126819549Y-114839514D02*
X127390977Y-114839514D01*
X127390977Y-114839514D02*
X127676692Y-114982371D01*
X127676692Y-114982371D02*
X127819549Y-115125228D01*
X127819549Y-115125228D02*
X127962406Y-115410942D01*
D11*
%TO.C,R3*%
X112000000Y-53685000D03*
X112000000Y-63845000D03*
%TD*%
D12*
%TO.C,D3*%
X151595000Y-41845000D03*
D13*
X154135000Y-41845000D03*
%TD*%
D14*
%TO.C,Diode*%
X119590000Y-131345000D03*
D15*
X129750000Y-131345000D03*
%TD*%
D11*
%TO.C,R2*%
X107500000Y-54265000D03*
X107500000Y-64425000D03*
%TD*%
D16*
%TO.C,BZ1*%
X170400000Y-120345000D03*
D17*
X178000000Y-120345000D03*
%TD*%
D11*
%TO.C,R4*%
X116500000Y-54185000D03*
X116500000Y-64345000D03*
%TD*%
D12*
%TO.C,D1*%
X127270000Y-42845000D03*
D13*
X124730000Y-42845000D03*
%TD*%
D18*
%TO.C,M1*%
X123460000Y-121845000D03*
D19*
X126000000Y-121845000D03*
X128540000Y-121845000D03*
%TD*%
D20*
%TO.C,C1*%
X109867677Y-121845000D03*
D17*
X104867677Y-121845000D03*
%TD*%
D18*
%TO.C,J1*%
X174960000Y-74345000D03*
D19*
X177500000Y-74345000D03*
%TD*%
D21*
%TO.C,ESP32 (38 PIN)*%
X125866177Y-62443500D03*
D22*
X125866177Y-64983500D03*
X125866177Y-67523500D03*
X125866177Y-70063500D03*
X125866177Y-72603500D03*
X125866177Y-75143500D03*
X125866177Y-77683500D03*
X125866177Y-80223500D03*
X125866177Y-82763500D03*
X125866177Y-85303500D03*
X125866177Y-87843500D03*
X125866177Y-90383500D03*
X125866177Y-92923500D03*
X125866177Y-95463500D03*
X125866177Y-98003500D03*
X125866177Y-100543500D03*
X125866177Y-103083500D03*
X125866177Y-105623500D03*
X125866177Y-108163500D03*
X151266177Y-108163500D03*
X151266177Y-105623500D03*
X151266177Y-103083500D03*
X151266177Y-100543500D03*
X151266177Y-98003500D03*
X151266177Y-95463500D03*
X151266177Y-92923500D03*
X151266177Y-90383500D03*
X151266177Y-87843500D03*
X151266177Y-85303500D03*
X151266177Y-82763500D03*
X151266177Y-80223500D03*
X151266177Y-77683500D03*
X151266177Y-75143500D03*
X151266177Y-72603500D03*
X151266177Y-70063500D03*
X151266177Y-67523500D03*
X151266177Y-64983500D03*
X151266177Y-62443500D03*
%TD*%
D12*
%TO.C,D2*%
X138500000Y-42345000D03*
D13*
X141040000Y-42345000D03*
%TD*%
M02*
