%TF.GenerationSoftware,KiCad,Pcbnew,9.0.7*%
%TF.CreationDate,2026-02-08T17:37:32+02:00*%
%TF.ProjectId,DoorLock PCB,446f6f72-4c6f-4636-9b20-5043422e6b69,rev?*%
%TF.SameCoordinates,Original*%
%TF.FileFunction,Legend,Top*%
%TF.FilePolarity,Positive*%
%FSLAX46Y46*%
G04 Gerber Fmt 4.6, Leading zero omitted, Abs format (unit mm)*
G04 Created by KiCad (PCBNEW 9.0.7) date 2026-02-08 17:37:32*
%MOMM*%
%LPD*%
G01*
G04 APERTURE LIST*
%ADD10C,0.250000*%
%ADD11C,0.600000*%
%ADD12C,0.100000*%
%ADD13C,0.150000*%
%ADD14C,0.400000*%
%ADD15C,0.200000*%
%ADD16C,0.875000*%
%ADD17C,0.120000*%
%ADD18C,0.127000*%
G04 APERTURE END LIST*
D10*
X154597431Y-45361333D02*
X153835527Y-45361333D01*
X154216479Y-44980380D02*
X154216479Y-45742285D01*
X151835526Y-45361333D02*
X151073622Y-45361333D01*
D11*
X169458800Y-107128835D02*
X169601657Y-106700264D01*
X169601657Y-106700264D02*
X169601657Y-105985978D01*
X169601657Y-105985978D02*
X169458800Y-105700264D01*
X169458800Y-105700264D02*
X169315942Y-105557406D01*
X169315942Y-105557406D02*
X169030228Y-105414549D01*
X169030228Y-105414549D02*
X168744514Y-105414549D01*
X168744514Y-105414549D02*
X168458800Y-105557406D01*
X168458800Y-105557406D02*
X168315942Y-105700264D01*
X168315942Y-105700264D02*
X168173085Y-105985978D01*
X168173085Y-105985978D02*
X168030228Y-106557406D01*
X168030228Y-106557406D02*
X167887371Y-106843121D01*
X167887371Y-106843121D02*
X167744514Y-106985978D01*
X167744514Y-106985978D02*
X167458800Y-107128835D01*
X167458800Y-107128835D02*
X167173085Y-107128835D01*
X167173085Y-107128835D02*
X166887371Y-106985978D01*
X166887371Y-106985978D02*
X166744514Y-106843121D01*
X166744514Y-106843121D02*
X166601657Y-106557406D01*
X166601657Y-106557406D02*
X166601657Y-105843121D01*
X166601657Y-105843121D02*
X166744514Y-105414549D01*
X169601657Y-104128835D02*
X167601657Y-104128835D01*
X167887371Y-104128835D02*
X167744514Y-103985978D01*
X167744514Y-103985978D02*
X167601657Y-103700263D01*
X167601657Y-103700263D02*
X167601657Y-103271692D01*
X167601657Y-103271692D02*
X167744514Y-102985978D01*
X167744514Y-102985978D02*
X168030228Y-102843121D01*
X168030228Y-102843121D02*
X169601657Y-102843121D01*
X168030228Y-102843121D02*
X167744514Y-102700263D01*
X167744514Y-102700263D02*
X167601657Y-102414549D01*
X167601657Y-102414549D02*
X167601657Y-101985978D01*
X167601657Y-101985978D02*
X167744514Y-101700263D01*
X167744514Y-101700263D02*
X168030228Y-101557406D01*
X168030228Y-101557406D02*
X169601657Y-101557406D01*
X169601657Y-98843121D02*
X168030228Y-98843121D01*
X168030228Y-98843121D02*
X167744514Y-98985978D01*
X167744514Y-98985978D02*
X167601657Y-99271692D01*
X167601657Y-99271692D02*
X167601657Y-99843121D01*
X167601657Y-99843121D02*
X167744514Y-100128835D01*
X169458800Y-98843121D02*
X169601657Y-99128835D01*
X169601657Y-99128835D02*
X169601657Y-99843121D01*
X169601657Y-99843121D02*
X169458800Y-100128835D01*
X169458800Y-100128835D02*
X169173085Y-100271692D01*
X169173085Y-100271692D02*
X168887371Y-100271692D01*
X168887371Y-100271692D02*
X168601657Y-100128835D01*
X168601657Y-100128835D02*
X168458800Y-99843121D01*
X168458800Y-99843121D02*
X168458800Y-99128835D01*
X168458800Y-99128835D02*
X168315942Y-98843121D01*
X169601657Y-97414549D02*
X167601657Y-97414549D01*
X168173085Y-97414549D02*
X167887371Y-97271692D01*
X167887371Y-97271692D02*
X167744514Y-97128835D01*
X167744514Y-97128835D02*
X167601657Y-96843120D01*
X167601657Y-96843120D02*
X167601657Y-96557406D01*
X167601657Y-95985977D02*
X167601657Y-94843120D01*
X166601657Y-95557406D02*
X169173085Y-95557406D01*
X169173085Y-95557406D02*
X169458800Y-95414549D01*
X169458800Y-95414549D02*
X169601657Y-95128834D01*
X169601657Y-95128834D02*
X169601657Y-94843120D01*
X169601657Y-91557406D02*
X166601657Y-91557406D01*
X166601657Y-91557406D02*
X169601657Y-89843120D01*
X169601657Y-89843120D02*
X166601657Y-89843120D01*
X168030228Y-87414549D02*
X168030228Y-88414549D01*
X169601657Y-88414549D02*
X166601657Y-88414549D01*
X166601657Y-88414549D02*
X166601657Y-86985977D01*
X169315942Y-84128834D02*
X169458800Y-84271691D01*
X169458800Y-84271691D02*
X169601657Y-84700263D01*
X169601657Y-84700263D02*
X169601657Y-84985977D01*
X169601657Y-84985977D02*
X169458800Y-85414548D01*
X169458800Y-85414548D02*
X169173085Y-85700263D01*
X169173085Y-85700263D02*
X168887371Y-85843120D01*
X168887371Y-85843120D02*
X168315942Y-85985977D01*
X168315942Y-85985977D02*
X167887371Y-85985977D01*
X167887371Y-85985977D02*
X167315942Y-85843120D01*
X167315942Y-85843120D02*
X167030228Y-85700263D01*
X167030228Y-85700263D02*
X166744514Y-85414548D01*
X166744514Y-85414548D02*
X166601657Y-84985977D01*
X166601657Y-84985977D02*
X166601657Y-84700263D01*
X166601657Y-84700263D02*
X166744514Y-84271691D01*
X166744514Y-84271691D02*
X166887371Y-84128834D01*
X169601657Y-80128834D02*
X169458800Y-80414549D01*
X169458800Y-80414549D02*
X169173085Y-80557406D01*
X169173085Y-80557406D02*
X166601657Y-80557406D01*
X169601657Y-78557405D02*
X169458800Y-78843120D01*
X169458800Y-78843120D02*
X169315942Y-78985977D01*
X169315942Y-78985977D02*
X169030228Y-79128834D01*
X169030228Y-79128834D02*
X168173085Y-79128834D01*
X168173085Y-79128834D02*
X167887371Y-78985977D01*
X167887371Y-78985977D02*
X167744514Y-78843120D01*
X167744514Y-78843120D02*
X167601657Y-78557405D01*
X167601657Y-78557405D02*
X167601657Y-78128834D01*
X167601657Y-78128834D02*
X167744514Y-77843120D01*
X167744514Y-77843120D02*
X167887371Y-77700263D01*
X167887371Y-77700263D02*
X168173085Y-77557405D01*
X168173085Y-77557405D02*
X169030228Y-77557405D01*
X169030228Y-77557405D02*
X169315942Y-77700263D01*
X169315942Y-77700263D02*
X169458800Y-77843120D01*
X169458800Y-77843120D02*
X169601657Y-78128834D01*
X169601657Y-78128834D02*
X169601657Y-78557405D01*
X169458800Y-74985977D02*
X169601657Y-75271691D01*
X169601657Y-75271691D02*
X169601657Y-75843119D01*
X169601657Y-75843119D02*
X169458800Y-76128834D01*
X169458800Y-76128834D02*
X169315942Y-76271691D01*
X169315942Y-76271691D02*
X169030228Y-76414548D01*
X169030228Y-76414548D02*
X168173085Y-76414548D01*
X168173085Y-76414548D02*
X167887371Y-76271691D01*
X167887371Y-76271691D02*
X167744514Y-76128834D01*
X167744514Y-76128834D02*
X167601657Y-75843119D01*
X167601657Y-75843119D02*
X167601657Y-75271691D01*
X167601657Y-75271691D02*
X167744514Y-74985977D01*
X169601657Y-73700262D02*
X166601657Y-73700262D01*
X168458800Y-73414548D02*
X169601657Y-72557405D01*
X167601657Y-72557405D02*
X168744514Y-73700262D01*
D10*
X141347431Y-45861333D02*
X140585527Y-45861333D01*
X140966479Y-45480380D02*
X140966479Y-46242285D01*
X138585526Y-45861333D02*
X137823622Y-45861333D01*
D12*
X101803884Y-115586466D02*
X102565789Y-115586466D01*
D13*
X169836779Y-114356133D02*
X170598684Y-114356133D01*
X170217731Y-113975180D02*
X170217731Y-114737085D01*
D14*
X167984438Y-65641366D02*
X169984438Y-64974700D01*
X169984438Y-64974700D02*
X167984438Y-64308033D01*
X168651104Y-63736604D02*
X168651104Y-62308033D01*
X167793961Y-63165176D02*
X170365390Y-63736604D01*
X169508247Y-62498509D02*
X169508247Y-63927080D01*
X170365390Y-63069937D02*
X167793961Y-62498509D01*
X167984438Y-61260414D02*
X167984438Y-61069937D01*
X167984438Y-61069937D02*
X168079676Y-60879461D01*
X168079676Y-60879461D02*
X168174914Y-60784223D01*
X168174914Y-60784223D02*
X168365390Y-60688985D01*
X168365390Y-60688985D02*
X168746342Y-60593747D01*
X168746342Y-60593747D02*
X169222533Y-60593747D01*
X169222533Y-60593747D02*
X169603485Y-60688985D01*
X169603485Y-60688985D02*
X169793961Y-60784223D01*
X169793961Y-60784223D02*
X169889200Y-60879461D01*
X169889200Y-60879461D02*
X169984438Y-61069937D01*
X169984438Y-61069937D02*
X169984438Y-61260414D01*
X169984438Y-61260414D02*
X169889200Y-61450890D01*
X169889200Y-61450890D02*
X169793961Y-61546128D01*
X169793961Y-61546128D02*
X169603485Y-61641366D01*
X169603485Y-61641366D02*
X169222533Y-61736604D01*
X169222533Y-61736604D02*
X168746342Y-61736604D01*
X168746342Y-61736604D02*
X168365390Y-61641366D01*
X168365390Y-61641366D02*
X168174914Y-61546128D01*
X168174914Y-61546128D02*
X168079676Y-61450890D01*
X168079676Y-61450890D02*
X167984438Y-61260414D01*
X167984438Y-59355652D02*
X167984438Y-59165175D01*
X167984438Y-59165175D02*
X168079676Y-58974699D01*
X168079676Y-58974699D02*
X168174914Y-58879461D01*
X168174914Y-58879461D02*
X168365390Y-58784223D01*
X168365390Y-58784223D02*
X168746342Y-58688985D01*
X168746342Y-58688985D02*
X169222533Y-58688985D01*
X169222533Y-58688985D02*
X169603485Y-58784223D01*
X169603485Y-58784223D02*
X169793961Y-58879461D01*
X169793961Y-58879461D02*
X169889200Y-58974699D01*
X169889200Y-58974699D02*
X169984438Y-59165175D01*
X169984438Y-59165175D02*
X169984438Y-59355652D01*
X169984438Y-59355652D02*
X169889200Y-59546128D01*
X169889200Y-59546128D02*
X169793961Y-59641366D01*
X169793961Y-59641366D02*
X169603485Y-59736604D01*
X169603485Y-59736604D02*
X169222533Y-59831842D01*
X169222533Y-59831842D02*
X168746342Y-59831842D01*
X168746342Y-59831842D02*
X168365390Y-59736604D01*
X168365390Y-59736604D02*
X168174914Y-59641366D01*
X168174914Y-59641366D02*
X168079676Y-59546128D01*
X168079676Y-59546128D02*
X167984438Y-59355652D01*
X169984438Y-56784223D02*
X169984438Y-57927080D01*
X169984438Y-57355652D02*
X167984438Y-57355652D01*
X167984438Y-57355652D02*
X168270152Y-57546128D01*
X168270152Y-57546128D02*
X168460628Y-57736604D01*
X168460628Y-57736604D02*
X168555866Y-57927080D01*
D12*
X178196115Y-114103533D02*
X177434211Y-114103533D01*
D15*
X125381578Y-124331266D02*
X126143483Y-124331266D01*
X125762530Y-124712219D02*
X125762530Y-123950314D01*
X128143483Y-124331266D02*
X128905388Y-124331266D01*
D11*
X173609021Y-69553800D02*
X175894736Y-69553800D01*
X174751878Y-70696657D02*
X174751878Y-68410942D01*
X176859021Y-69553800D02*
X179144736Y-69553800D01*
D16*
X158681167Y-108261665D02*
X158681167Y-105928332D01*
X162347834Y-104928332D02*
X162347834Y-108261665D01*
X162347834Y-108261665D02*
X155347834Y-108261665D01*
X155347834Y-108261665D02*
X155347834Y-104928332D01*
X157681167Y-101928332D02*
X162347834Y-101928332D01*
X158347834Y-101928332D02*
X158014501Y-101594999D01*
X158014501Y-101594999D02*
X157681167Y-100928332D01*
X157681167Y-100928332D02*
X157681167Y-99928332D01*
X157681167Y-99928332D02*
X158014501Y-99261665D01*
X158014501Y-99261665D02*
X158681167Y-98928332D01*
X158681167Y-98928332D02*
X162347834Y-98928332D01*
X157681167Y-92594999D02*
X163347834Y-92594999D01*
X163347834Y-92594999D02*
X164014501Y-92928332D01*
X164014501Y-92928332D02*
X164347834Y-93261666D01*
X164347834Y-93261666D02*
X164681167Y-93928332D01*
X164681167Y-93928332D02*
X164681167Y-94928332D01*
X164681167Y-94928332D02*
X164347834Y-95594999D01*
X162014501Y-92594999D02*
X162347834Y-93261666D01*
X162347834Y-93261666D02*
X162347834Y-94594999D01*
X162347834Y-94594999D02*
X162014501Y-95261666D01*
X162014501Y-95261666D02*
X161681167Y-95594999D01*
X161681167Y-95594999D02*
X161014501Y-95928332D01*
X161014501Y-95928332D02*
X159014501Y-95928332D01*
X159014501Y-95928332D02*
X158347834Y-95594999D01*
X158347834Y-95594999D02*
X158014501Y-95261666D01*
X158014501Y-95261666D02*
X157681167Y-94594999D01*
X157681167Y-94594999D02*
X157681167Y-93261666D01*
X157681167Y-93261666D02*
X158014501Y-92594999D01*
X158681167Y-83928333D02*
X158681167Y-81595000D01*
X162347834Y-80595000D02*
X162347834Y-83928333D01*
X162347834Y-83928333D02*
X155347834Y-83928333D01*
X155347834Y-83928333D02*
X155347834Y-80595000D01*
X157681167Y-78261667D02*
X157681167Y-74595000D01*
X157681167Y-74595000D02*
X162347834Y-78261667D01*
X162347834Y-78261667D02*
X162347834Y-74595000D01*
X157681167Y-72595000D02*
X157681167Y-68928333D01*
X157681167Y-68928333D02*
X162347834Y-72595000D01*
X162347834Y-72595000D02*
X162347834Y-68928333D01*
X162347834Y-66261666D02*
X155347834Y-66261666D01*
X155347834Y-66261666D02*
X162347834Y-62261666D01*
X162347834Y-62261666D02*
X155347834Y-62261666D01*
X162347834Y-55928333D02*
X158681167Y-55928333D01*
X158681167Y-55928333D02*
X158014501Y-56261666D01*
X158014501Y-56261666D02*
X157681167Y-56928333D01*
X157681167Y-56928333D02*
X157681167Y-58261666D01*
X157681167Y-58261666D02*
X158014501Y-58928333D01*
X162014501Y-55928333D02*
X162347834Y-56595000D01*
X162347834Y-56595000D02*
X162347834Y-58261666D01*
X162347834Y-58261666D02*
X162014501Y-58928333D01*
X162014501Y-58928333D02*
X161347834Y-59261666D01*
X161347834Y-59261666D02*
X160681167Y-59261666D01*
X160681167Y-59261666D02*
X160014501Y-58928333D01*
X160014501Y-58928333D02*
X159681167Y-58261666D01*
X159681167Y-58261666D02*
X159681167Y-56595000D01*
X159681167Y-56595000D02*
X159347834Y-55928333D01*
X162014501Y-52928333D02*
X162347834Y-52261667D01*
X162347834Y-52261667D02*
X162347834Y-50928333D01*
X162347834Y-50928333D02*
X162014501Y-50261667D01*
X162014501Y-50261667D02*
X161347834Y-49928333D01*
X161347834Y-49928333D02*
X161014501Y-49928333D01*
X161014501Y-49928333D02*
X160347834Y-50261667D01*
X160347834Y-50261667D02*
X160014501Y-50928333D01*
X160014501Y-50928333D02*
X160014501Y-51928333D01*
X160014501Y-51928333D02*
X159681167Y-52595000D01*
X159681167Y-52595000D02*
X159014501Y-52928333D01*
X159014501Y-52928333D02*
X158681167Y-52928333D01*
X158681167Y-52928333D02*
X158014501Y-52595000D01*
X158014501Y-52595000D02*
X157681167Y-51928333D01*
X157681167Y-51928333D02*
X157681167Y-50928333D01*
X157681167Y-50928333D02*
X158014501Y-50261667D01*
X162347834Y-46928333D02*
X157681167Y-46928333D01*
X159014501Y-46928333D02*
X158347834Y-46595000D01*
X158347834Y-46595000D02*
X158014501Y-46261666D01*
X158014501Y-46261666D02*
X157681167Y-45595000D01*
X157681167Y-45595000D02*
X157681167Y-44928333D01*
D10*
X124402568Y-38828666D02*
X125164473Y-38828666D01*
X124783520Y-39209619D02*
X124783520Y-38447714D01*
X127164473Y-38828666D02*
X127926378Y-38828666D01*
D13*
X114824819Y-58931666D02*
X114348628Y-59264999D01*
X114824819Y-59503094D02*
X113824819Y-59503094D01*
X113824819Y-59503094D02*
X113824819Y-59122142D01*
X113824819Y-59122142D02*
X113872438Y-59026904D01*
X113872438Y-59026904D02*
X113920057Y-58979285D01*
X113920057Y-58979285D02*
X114015295Y-58931666D01*
X114015295Y-58931666D02*
X114158152Y-58931666D01*
X114158152Y-58931666D02*
X114253390Y-58979285D01*
X114253390Y-58979285D02*
X114301009Y-59026904D01*
X114301009Y-59026904D02*
X114348628Y-59122142D01*
X114348628Y-59122142D02*
X114348628Y-59503094D01*
X113824819Y-58598332D02*
X113824819Y-57979285D01*
X113824819Y-57979285D02*
X114205771Y-58312618D01*
X114205771Y-58312618D02*
X114205771Y-58169761D01*
X114205771Y-58169761D02*
X114253390Y-58074523D01*
X114253390Y-58074523D02*
X114301009Y-58026904D01*
X114301009Y-58026904D02*
X114396247Y-57979285D01*
X114396247Y-57979285D02*
X114634342Y-57979285D01*
X114634342Y-57979285D02*
X114729580Y-58026904D01*
X114729580Y-58026904D02*
X114777200Y-58074523D01*
X114777200Y-58074523D02*
X114824819Y-58169761D01*
X114824819Y-58169761D02*
X114824819Y-58455475D01*
X114824819Y-58455475D02*
X114777200Y-58550713D01*
X114777200Y-58550713D02*
X114729580Y-58598332D01*
X152126905Y-38839819D02*
X152126905Y-37839819D01*
X152126905Y-37839819D02*
X152365000Y-37839819D01*
X152365000Y-37839819D02*
X152507857Y-37887438D01*
X152507857Y-37887438D02*
X152603095Y-37982676D01*
X152603095Y-37982676D02*
X152650714Y-38077914D01*
X152650714Y-38077914D02*
X152698333Y-38268390D01*
X152698333Y-38268390D02*
X152698333Y-38411247D01*
X152698333Y-38411247D02*
X152650714Y-38601723D01*
X152650714Y-38601723D02*
X152603095Y-38696961D01*
X152603095Y-38696961D02*
X152507857Y-38792200D01*
X152507857Y-38792200D02*
X152365000Y-38839819D01*
X152365000Y-38839819D02*
X152126905Y-38839819D01*
X153031667Y-37839819D02*
X153650714Y-37839819D01*
X153650714Y-37839819D02*
X153317381Y-38220771D01*
X153317381Y-38220771D02*
X153460238Y-38220771D01*
X153460238Y-38220771D02*
X153555476Y-38268390D01*
X153555476Y-38268390D02*
X153603095Y-38316009D01*
X153603095Y-38316009D02*
X153650714Y-38411247D01*
X153650714Y-38411247D02*
X153650714Y-38649342D01*
X153650714Y-38649342D02*
X153603095Y-38744580D01*
X153603095Y-38744580D02*
X153555476Y-38792200D01*
X153555476Y-38792200D02*
X153460238Y-38839819D01*
X153460238Y-38839819D02*
X153174524Y-38839819D01*
X153174524Y-38839819D02*
X153079286Y-38792200D01*
X153079286Y-38792200D02*
X153031667Y-38744580D01*
X122836667Y-129329819D02*
X122836667Y-128329819D01*
X122836667Y-128329819D02*
X123074762Y-128329819D01*
X123074762Y-128329819D02*
X123217619Y-128377438D01*
X123217619Y-128377438D02*
X123312857Y-128472676D01*
X123312857Y-128472676D02*
X123360476Y-128567914D01*
X123360476Y-128567914D02*
X123408095Y-128758390D01*
X123408095Y-128758390D02*
X123408095Y-128901247D01*
X123408095Y-128901247D02*
X123360476Y-129091723D01*
X123360476Y-129091723D02*
X123312857Y-129186961D01*
X123312857Y-129186961D02*
X123217619Y-129282200D01*
X123217619Y-129282200D02*
X123074762Y-129329819D01*
X123074762Y-129329819D02*
X122836667Y-129329819D01*
X123836667Y-129329819D02*
X123836667Y-128663152D01*
X123836667Y-128329819D02*
X123789048Y-128377438D01*
X123789048Y-128377438D02*
X123836667Y-128425057D01*
X123836667Y-128425057D02*
X123884286Y-128377438D01*
X123884286Y-128377438D02*
X123836667Y-128329819D01*
X123836667Y-128329819D02*
X123836667Y-128425057D01*
X124455714Y-129329819D02*
X124360476Y-129282200D01*
X124360476Y-129282200D02*
X124312857Y-129234580D01*
X124312857Y-129234580D02*
X124265238Y-129139342D01*
X124265238Y-129139342D02*
X124265238Y-128853628D01*
X124265238Y-128853628D02*
X124312857Y-128758390D01*
X124312857Y-128758390D02*
X124360476Y-128710771D01*
X124360476Y-128710771D02*
X124455714Y-128663152D01*
X124455714Y-128663152D02*
X124598571Y-128663152D01*
X124598571Y-128663152D02*
X124693809Y-128710771D01*
X124693809Y-128710771D02*
X124741428Y-128758390D01*
X124741428Y-128758390D02*
X124789047Y-128853628D01*
X124789047Y-128853628D02*
X124789047Y-129139342D01*
X124789047Y-129139342D02*
X124741428Y-129234580D01*
X124741428Y-129234580D02*
X124693809Y-129282200D01*
X124693809Y-129282200D02*
X124598571Y-129329819D01*
X124598571Y-129329819D02*
X124455714Y-129329819D01*
X125646190Y-129329819D02*
X125646190Y-128329819D01*
X125646190Y-129282200D02*
X125550952Y-129329819D01*
X125550952Y-129329819D02*
X125360476Y-129329819D01*
X125360476Y-129329819D02*
X125265238Y-129282200D01*
X125265238Y-129282200D02*
X125217619Y-129234580D01*
X125217619Y-129234580D02*
X125170000Y-129139342D01*
X125170000Y-129139342D02*
X125170000Y-128853628D01*
X125170000Y-128853628D02*
X125217619Y-128758390D01*
X125217619Y-128758390D02*
X125265238Y-128710771D01*
X125265238Y-128710771D02*
X125360476Y-128663152D01*
X125360476Y-128663152D02*
X125550952Y-128663152D01*
X125550952Y-128663152D02*
X125646190Y-128710771D01*
X126503333Y-129282200D02*
X126408095Y-129329819D01*
X126408095Y-129329819D02*
X126217619Y-129329819D01*
X126217619Y-129329819D02*
X126122381Y-129282200D01*
X126122381Y-129282200D02*
X126074762Y-129186961D01*
X126074762Y-129186961D02*
X126074762Y-128806009D01*
X126074762Y-128806009D02*
X126122381Y-128710771D01*
X126122381Y-128710771D02*
X126217619Y-128663152D01*
X126217619Y-128663152D02*
X126408095Y-128663152D01*
X126408095Y-128663152D02*
X126503333Y-128710771D01*
X126503333Y-128710771D02*
X126550952Y-128806009D01*
X126550952Y-128806009D02*
X126550952Y-128901247D01*
X126550952Y-128901247D02*
X126074762Y-128996485D01*
X119899523Y-129699819D02*
X119423333Y-129699819D01*
X119423333Y-129699819D02*
X119423333Y-128699819D01*
X110324819Y-59511666D02*
X109848628Y-59844999D01*
X110324819Y-60083094D02*
X109324819Y-60083094D01*
X109324819Y-60083094D02*
X109324819Y-59702142D01*
X109324819Y-59702142D02*
X109372438Y-59606904D01*
X109372438Y-59606904D02*
X109420057Y-59559285D01*
X109420057Y-59559285D02*
X109515295Y-59511666D01*
X109515295Y-59511666D02*
X109658152Y-59511666D01*
X109658152Y-59511666D02*
X109753390Y-59559285D01*
X109753390Y-59559285D02*
X109801009Y-59606904D01*
X109801009Y-59606904D02*
X109848628Y-59702142D01*
X109848628Y-59702142D02*
X109848628Y-60083094D01*
X109420057Y-59130713D02*
X109372438Y-59083094D01*
X109372438Y-59083094D02*
X109324819Y-58987856D01*
X109324819Y-58987856D02*
X109324819Y-58749761D01*
X109324819Y-58749761D02*
X109372438Y-58654523D01*
X109372438Y-58654523D02*
X109420057Y-58606904D01*
X109420057Y-58606904D02*
X109515295Y-58559285D01*
X109515295Y-58559285D02*
X109610533Y-58559285D01*
X109610533Y-58559285D02*
X109753390Y-58606904D01*
X109753390Y-58606904D02*
X110324819Y-59178332D01*
X110324819Y-59178332D02*
X110324819Y-58559285D01*
X170009048Y-117878866D02*
X170770953Y-117878866D01*
X170390000Y-118259819D02*
X170390000Y-117497914D01*
X119324819Y-59431666D02*
X118848628Y-59764999D01*
X119324819Y-60003094D02*
X118324819Y-60003094D01*
X118324819Y-60003094D02*
X118324819Y-59622142D01*
X118324819Y-59622142D02*
X118372438Y-59526904D01*
X118372438Y-59526904D02*
X118420057Y-59479285D01*
X118420057Y-59479285D02*
X118515295Y-59431666D01*
X118515295Y-59431666D02*
X118658152Y-59431666D01*
X118658152Y-59431666D02*
X118753390Y-59479285D01*
X118753390Y-59479285D02*
X118801009Y-59526904D01*
X118801009Y-59526904D02*
X118848628Y-59622142D01*
X118848628Y-59622142D02*
X118848628Y-60003094D01*
X118658152Y-58574523D02*
X119324819Y-58574523D01*
X118277200Y-58812618D02*
X118991485Y-59050713D01*
X118991485Y-59050713D02*
X118991485Y-58431666D01*
X125261905Y-46759819D02*
X125261905Y-45759819D01*
X125261905Y-45759819D02*
X125500000Y-45759819D01*
X125500000Y-45759819D02*
X125642857Y-45807438D01*
X125642857Y-45807438D02*
X125738095Y-45902676D01*
X125738095Y-45902676D02*
X125785714Y-45997914D01*
X125785714Y-45997914D02*
X125833333Y-46188390D01*
X125833333Y-46188390D02*
X125833333Y-46331247D01*
X125833333Y-46331247D02*
X125785714Y-46521723D01*
X125785714Y-46521723D02*
X125738095Y-46616961D01*
X125738095Y-46616961D02*
X125642857Y-46712200D01*
X125642857Y-46712200D02*
X125500000Y-46759819D01*
X125500000Y-46759819D02*
X125261905Y-46759819D01*
X126785714Y-46759819D02*
X126214286Y-46759819D01*
X126500000Y-46759819D02*
X126500000Y-45759819D01*
X126500000Y-45759819D02*
X126404762Y-45902676D01*
X126404762Y-45902676D02*
X126309524Y-45997914D01*
X126309524Y-45997914D02*
X126214286Y-46045533D01*
X121534819Y-122654523D02*
X120534819Y-122654523D01*
X120534819Y-122654523D02*
X121249104Y-122321190D01*
X121249104Y-122321190D02*
X120534819Y-121987857D01*
X120534819Y-121987857D02*
X121534819Y-121987857D01*
X121534819Y-120987857D02*
X121534819Y-121559285D01*
X121534819Y-121273571D02*
X120534819Y-121273571D01*
X120534819Y-121273571D02*
X120677676Y-121368809D01*
X120677676Y-121368809D02*
X120772914Y-121464047D01*
X120772914Y-121464047D02*
X120820533Y-121559285D01*
X107201010Y-128454580D02*
X107153391Y-128502200D01*
X107153391Y-128502200D02*
X107010534Y-128549819D01*
X107010534Y-128549819D02*
X106915296Y-128549819D01*
X106915296Y-128549819D02*
X106772439Y-128502200D01*
X106772439Y-128502200D02*
X106677201Y-128406961D01*
X106677201Y-128406961D02*
X106629582Y-128311723D01*
X106629582Y-128311723D02*
X106581963Y-128121247D01*
X106581963Y-128121247D02*
X106581963Y-127978390D01*
X106581963Y-127978390D02*
X106629582Y-127787914D01*
X106629582Y-127787914D02*
X106677201Y-127692676D01*
X106677201Y-127692676D02*
X106772439Y-127597438D01*
X106772439Y-127597438D02*
X106915296Y-127549819D01*
X106915296Y-127549819D02*
X107010534Y-127549819D01*
X107010534Y-127549819D02*
X107153391Y-127597438D01*
X107153391Y-127597438D02*
X107201010Y-127645057D01*
X108153391Y-128549819D02*
X107581963Y-128549819D01*
X107867677Y-128549819D02*
X107867677Y-127549819D01*
X107867677Y-127549819D02*
X107772439Y-127692676D01*
X107772439Y-127692676D02*
X107677201Y-127787914D01*
X107677201Y-127787914D02*
X107581963Y-127835533D01*
X132780462Y-86504509D02*
X133113795Y-86504509D01*
X133256652Y-87028319D02*
X132780462Y-87028319D01*
X132780462Y-87028319D02*
X132780462Y-86028319D01*
X132780462Y-86028319D02*
X133256652Y-86028319D01*
X133637605Y-86980700D02*
X133780462Y-87028319D01*
X133780462Y-87028319D02*
X134018557Y-87028319D01*
X134018557Y-87028319D02*
X134113795Y-86980700D01*
X134113795Y-86980700D02*
X134161414Y-86933080D01*
X134161414Y-86933080D02*
X134209033Y-86837842D01*
X134209033Y-86837842D02*
X134209033Y-86742604D01*
X134209033Y-86742604D02*
X134161414Y-86647366D01*
X134161414Y-86647366D02*
X134113795Y-86599747D01*
X134113795Y-86599747D02*
X134018557Y-86552128D01*
X134018557Y-86552128D02*
X133828081Y-86504509D01*
X133828081Y-86504509D02*
X133732843Y-86456890D01*
X133732843Y-86456890D02*
X133685224Y-86409271D01*
X133685224Y-86409271D02*
X133637605Y-86314033D01*
X133637605Y-86314033D02*
X133637605Y-86218795D01*
X133637605Y-86218795D02*
X133685224Y-86123557D01*
X133685224Y-86123557D02*
X133732843Y-86075938D01*
X133732843Y-86075938D02*
X133828081Y-86028319D01*
X133828081Y-86028319D02*
X134066176Y-86028319D01*
X134066176Y-86028319D02*
X134209033Y-86075938D01*
X134637605Y-87028319D02*
X134637605Y-86028319D01*
X134637605Y-86028319D02*
X135018557Y-86028319D01*
X135018557Y-86028319D02*
X135113795Y-86075938D01*
X135113795Y-86075938D02*
X135161414Y-86123557D01*
X135161414Y-86123557D02*
X135209033Y-86218795D01*
X135209033Y-86218795D02*
X135209033Y-86361652D01*
X135209033Y-86361652D02*
X135161414Y-86456890D01*
X135161414Y-86456890D02*
X135113795Y-86504509D01*
X135113795Y-86504509D02*
X135018557Y-86552128D01*
X135018557Y-86552128D02*
X134637605Y-86552128D01*
X135542367Y-86028319D02*
X136161414Y-86028319D01*
X136161414Y-86028319D02*
X135828081Y-86409271D01*
X135828081Y-86409271D02*
X135970938Y-86409271D01*
X135970938Y-86409271D02*
X136066176Y-86456890D01*
X136066176Y-86456890D02*
X136113795Y-86504509D01*
X136113795Y-86504509D02*
X136161414Y-86599747D01*
X136161414Y-86599747D02*
X136161414Y-86837842D01*
X136161414Y-86837842D02*
X136113795Y-86933080D01*
X136113795Y-86933080D02*
X136066176Y-86980700D01*
X136066176Y-86980700D02*
X135970938Y-87028319D01*
X135970938Y-87028319D02*
X135685224Y-87028319D01*
X135685224Y-87028319D02*
X135589986Y-86980700D01*
X135589986Y-86980700D02*
X135542367Y-86933080D01*
X136542367Y-86123557D02*
X136589986Y-86075938D01*
X136589986Y-86075938D02*
X136685224Y-86028319D01*
X136685224Y-86028319D02*
X136923319Y-86028319D01*
X136923319Y-86028319D02*
X137018557Y-86075938D01*
X137018557Y-86075938D02*
X137066176Y-86123557D01*
X137066176Y-86123557D02*
X137113795Y-86218795D01*
X137113795Y-86218795D02*
X137113795Y-86314033D01*
X137113795Y-86314033D02*
X137066176Y-86456890D01*
X137066176Y-86456890D02*
X136494748Y-87028319D01*
X136494748Y-87028319D02*
X137113795Y-87028319D01*
X138589986Y-87409271D02*
X138542367Y-87361652D01*
X138542367Y-87361652D02*
X138447129Y-87218795D01*
X138447129Y-87218795D02*
X138399510Y-87123557D01*
X138399510Y-87123557D02*
X138351891Y-86980700D01*
X138351891Y-86980700D02*
X138304272Y-86742604D01*
X138304272Y-86742604D02*
X138304272Y-86552128D01*
X138304272Y-86552128D02*
X138351891Y-86314033D01*
X138351891Y-86314033D02*
X138399510Y-86171176D01*
X138399510Y-86171176D02*
X138447129Y-86075938D01*
X138447129Y-86075938D02*
X138542367Y-85933080D01*
X138542367Y-85933080D02*
X138589986Y-85885461D01*
X138875701Y-86028319D02*
X139494748Y-86028319D01*
X139494748Y-86028319D02*
X139161415Y-86409271D01*
X139161415Y-86409271D02*
X139304272Y-86409271D01*
X139304272Y-86409271D02*
X139399510Y-86456890D01*
X139399510Y-86456890D02*
X139447129Y-86504509D01*
X139447129Y-86504509D02*
X139494748Y-86599747D01*
X139494748Y-86599747D02*
X139494748Y-86837842D01*
X139494748Y-86837842D02*
X139447129Y-86933080D01*
X139447129Y-86933080D02*
X139399510Y-86980700D01*
X139399510Y-86980700D02*
X139304272Y-87028319D01*
X139304272Y-87028319D02*
X139018558Y-87028319D01*
X139018558Y-87028319D02*
X138923320Y-86980700D01*
X138923320Y-86980700D02*
X138875701Y-86933080D01*
X140066177Y-86456890D02*
X139970939Y-86409271D01*
X139970939Y-86409271D02*
X139923320Y-86361652D01*
X139923320Y-86361652D02*
X139875701Y-86266414D01*
X139875701Y-86266414D02*
X139875701Y-86218795D01*
X139875701Y-86218795D02*
X139923320Y-86123557D01*
X139923320Y-86123557D02*
X139970939Y-86075938D01*
X139970939Y-86075938D02*
X140066177Y-86028319D01*
X140066177Y-86028319D02*
X140256653Y-86028319D01*
X140256653Y-86028319D02*
X140351891Y-86075938D01*
X140351891Y-86075938D02*
X140399510Y-86123557D01*
X140399510Y-86123557D02*
X140447129Y-86218795D01*
X140447129Y-86218795D02*
X140447129Y-86266414D01*
X140447129Y-86266414D02*
X140399510Y-86361652D01*
X140399510Y-86361652D02*
X140351891Y-86409271D01*
X140351891Y-86409271D02*
X140256653Y-86456890D01*
X140256653Y-86456890D02*
X140066177Y-86456890D01*
X140066177Y-86456890D02*
X139970939Y-86504509D01*
X139970939Y-86504509D02*
X139923320Y-86552128D01*
X139923320Y-86552128D02*
X139875701Y-86647366D01*
X139875701Y-86647366D02*
X139875701Y-86837842D01*
X139875701Y-86837842D02*
X139923320Y-86933080D01*
X139923320Y-86933080D02*
X139970939Y-86980700D01*
X139970939Y-86980700D02*
X140066177Y-87028319D01*
X140066177Y-87028319D02*
X140256653Y-87028319D01*
X140256653Y-87028319D02*
X140351891Y-86980700D01*
X140351891Y-86980700D02*
X140399510Y-86933080D01*
X140399510Y-86933080D02*
X140447129Y-86837842D01*
X140447129Y-86837842D02*
X140447129Y-86647366D01*
X140447129Y-86647366D02*
X140399510Y-86552128D01*
X140399510Y-86552128D02*
X140351891Y-86504509D01*
X140351891Y-86504509D02*
X140256653Y-86456890D01*
X141637606Y-87028319D02*
X141637606Y-86028319D01*
X141637606Y-86028319D02*
X142018558Y-86028319D01*
X142018558Y-86028319D02*
X142113796Y-86075938D01*
X142113796Y-86075938D02*
X142161415Y-86123557D01*
X142161415Y-86123557D02*
X142209034Y-86218795D01*
X142209034Y-86218795D02*
X142209034Y-86361652D01*
X142209034Y-86361652D02*
X142161415Y-86456890D01*
X142161415Y-86456890D02*
X142113796Y-86504509D01*
X142113796Y-86504509D02*
X142018558Y-86552128D01*
X142018558Y-86552128D02*
X141637606Y-86552128D01*
X142637606Y-87028319D02*
X142637606Y-86028319D01*
X143113796Y-87028319D02*
X143113796Y-86028319D01*
X143113796Y-86028319D02*
X143685224Y-87028319D01*
X143685224Y-87028319D02*
X143685224Y-86028319D01*
X144066177Y-87409271D02*
X144113796Y-87361652D01*
X144113796Y-87361652D02*
X144209034Y-87218795D01*
X144209034Y-87218795D02*
X144256653Y-87123557D01*
X144256653Y-87123557D02*
X144304272Y-86980700D01*
X144304272Y-86980700D02*
X144351891Y-86742604D01*
X144351891Y-86742604D02*
X144351891Y-86552128D01*
X144351891Y-86552128D02*
X144304272Y-86314033D01*
X144304272Y-86314033D02*
X144256653Y-86171176D01*
X144256653Y-86171176D02*
X144209034Y-86075938D01*
X144209034Y-86075938D02*
X144113796Y-85933080D01*
X144113796Y-85933080D02*
X144066177Y-85885461D01*
X135399272Y-108253319D02*
X135399272Y-109062842D01*
X135399272Y-109062842D02*
X135446891Y-109158080D01*
X135446891Y-109158080D02*
X135494510Y-109205700D01*
X135494510Y-109205700D02*
X135589748Y-109253319D01*
X135589748Y-109253319D02*
X135780224Y-109253319D01*
X135780224Y-109253319D02*
X135875462Y-109205700D01*
X135875462Y-109205700D02*
X135923081Y-109158080D01*
X135923081Y-109158080D02*
X135970700Y-109062842D01*
X135970700Y-109062842D02*
X135970700Y-108253319D01*
X136399272Y-109205700D02*
X136542129Y-109253319D01*
X136542129Y-109253319D02*
X136780224Y-109253319D01*
X136780224Y-109253319D02*
X136875462Y-109205700D01*
X136875462Y-109205700D02*
X136923081Y-109158080D01*
X136923081Y-109158080D02*
X136970700Y-109062842D01*
X136970700Y-109062842D02*
X136970700Y-108967604D01*
X136970700Y-108967604D02*
X136923081Y-108872366D01*
X136923081Y-108872366D02*
X136875462Y-108824747D01*
X136875462Y-108824747D02*
X136780224Y-108777128D01*
X136780224Y-108777128D02*
X136589748Y-108729509D01*
X136589748Y-108729509D02*
X136494510Y-108681890D01*
X136494510Y-108681890D02*
X136446891Y-108634271D01*
X136446891Y-108634271D02*
X136399272Y-108539033D01*
X136399272Y-108539033D02*
X136399272Y-108443795D01*
X136399272Y-108443795D02*
X136446891Y-108348557D01*
X136446891Y-108348557D02*
X136494510Y-108300938D01*
X136494510Y-108300938D02*
X136589748Y-108253319D01*
X136589748Y-108253319D02*
X136827843Y-108253319D01*
X136827843Y-108253319D02*
X136970700Y-108300938D01*
X137732605Y-108729509D02*
X137875462Y-108777128D01*
X137875462Y-108777128D02*
X137923081Y-108824747D01*
X137923081Y-108824747D02*
X137970700Y-108919985D01*
X137970700Y-108919985D02*
X137970700Y-109062842D01*
X137970700Y-109062842D02*
X137923081Y-109158080D01*
X137923081Y-109158080D02*
X137875462Y-109205700D01*
X137875462Y-109205700D02*
X137780224Y-109253319D01*
X137780224Y-109253319D02*
X137399272Y-109253319D01*
X137399272Y-109253319D02*
X137399272Y-108253319D01*
X137399272Y-108253319D02*
X137732605Y-108253319D01*
X137732605Y-108253319D02*
X137827843Y-108300938D01*
X137827843Y-108300938D02*
X137875462Y-108348557D01*
X137875462Y-108348557D02*
X137923081Y-108443795D01*
X137923081Y-108443795D02*
X137923081Y-108539033D01*
X137923081Y-108539033D02*
X137875462Y-108634271D01*
X137875462Y-108634271D02*
X137827843Y-108681890D01*
X137827843Y-108681890D02*
X137732605Y-108729509D01*
X137732605Y-108729509D02*
X137399272Y-108729509D01*
X139031905Y-39339819D02*
X139031905Y-38339819D01*
X139031905Y-38339819D02*
X139270000Y-38339819D01*
X139270000Y-38339819D02*
X139412857Y-38387438D01*
X139412857Y-38387438D02*
X139508095Y-38482676D01*
X139508095Y-38482676D02*
X139555714Y-38577914D01*
X139555714Y-38577914D02*
X139603333Y-38768390D01*
X139603333Y-38768390D02*
X139603333Y-38911247D01*
X139603333Y-38911247D02*
X139555714Y-39101723D01*
X139555714Y-39101723D02*
X139508095Y-39196961D01*
X139508095Y-39196961D02*
X139412857Y-39292200D01*
X139412857Y-39292200D02*
X139270000Y-39339819D01*
X139270000Y-39339819D02*
X139031905Y-39339819D01*
X139984286Y-38435057D02*
X140031905Y-38387438D01*
X140031905Y-38387438D02*
X140127143Y-38339819D01*
X140127143Y-38339819D02*
X140365238Y-38339819D01*
X140365238Y-38339819D02*
X140460476Y-38387438D01*
X140460476Y-38387438D02*
X140508095Y-38435057D01*
X140508095Y-38435057D02*
X140555714Y-38530295D01*
X140555714Y-38530295D02*
X140555714Y-38625533D01*
X140555714Y-38625533D02*
X140508095Y-38768390D01*
X140508095Y-38768390D02*
X139936667Y-39339819D01*
X139936667Y-39339819D02*
X140555714Y-39339819D01*
D17*
%TO.C,R3*%
X112000000Y-54725000D02*
X112000000Y-55495000D01*
X112000000Y-62805000D02*
X112000000Y-62035000D01*
X113370000Y-55495000D02*
X110630000Y-55495000D01*
X110630000Y-62035000D01*
X113370000Y-62035000D01*
X113370000Y-55495000D01*
%TO.C,D3*%
X150805000Y-40446000D02*
X150805000Y-40765000D01*
X150805000Y-42925000D02*
X150805000Y-43244000D01*
X150805000Y-40446251D02*
G75*
G02*
X155108591Y-40765000I2060000J-1398749D01*
G01*
X151181670Y-40765000D02*
G75*
G02*
X154548330Y-40765000I1683330J-1080000D01*
G01*
X154548330Y-42925000D02*
G75*
G02*
X151181670Y-42925000I-1683330J1080000D01*
G01*
X155108591Y-42925000D02*
G75*
G02*
X150805000Y-43243749I-2243591J1080000D01*
G01*
%TO.C,Diode*%
X120930000Y-131345000D02*
X121950000Y-131345000D01*
X122730000Y-129875000D02*
X122730000Y-132815000D01*
X122850000Y-129875000D02*
X122850000Y-132815000D01*
X122970000Y-129875000D02*
X122970000Y-132815000D01*
X128410000Y-131345000D02*
X127390000Y-131345000D01*
X121950000Y-129875000D02*
X127390000Y-129875000D01*
X127390000Y-132815000D01*
X121950000Y-132815000D01*
X121950000Y-129875000D01*
%TO.C,R2*%
X107500000Y-55305000D02*
X107500000Y-56075000D01*
X107500000Y-63385000D02*
X107500000Y-62615000D01*
X108870000Y-56075000D02*
X106130000Y-56075000D01*
X106130000Y-62615000D01*
X108870000Y-62615000D01*
X108870000Y-56075000D01*
%TO.C,BZ1*%
X180300000Y-120345000D02*
G75*
G02*
X168100000Y-120345000I-6100000J0D01*
G01*
X168100000Y-120345000D02*
G75*
G02*
X180300000Y-120345000I6100000J0D01*
G01*
%TO.C,R4*%
X116500000Y-55225000D02*
X116500000Y-55995000D01*
X116500000Y-63305000D02*
X116500000Y-62535000D01*
X117870000Y-55995000D02*
X115130000Y-55995000D01*
X115130000Y-62535000D01*
X117870000Y-62535000D01*
X117870000Y-55995000D01*
%TO.C,D1*%
X128060000Y-41765000D02*
X128060000Y-41446000D01*
X128060000Y-44244000D02*
X128060000Y-43925000D01*
X123756409Y-41765000D02*
G75*
G02*
X128060000Y-41446251I2243591J-1080000D01*
G01*
X124316670Y-41765000D02*
G75*
G02*
X127683330Y-41765000I1683330J-1080000D01*
G01*
X127683330Y-43925000D02*
G75*
G02*
X124316670Y-43925000I-1683330J1080000D01*
G01*
X128060000Y-44243749D02*
G75*
G02*
X123756409Y-43925000I-2060000J1398749D01*
G01*
%TO.C,M1*%
X122080000Y-123225000D02*
X122080000Y-121845000D01*
X123460000Y-123225000D02*
X122080000Y-123225000D01*
X124730000Y-120465000D02*
X129920000Y-120465000D01*
X124730000Y-123225000D02*
X124730000Y-120465000D01*
X124730000Y-123225000D02*
X129920000Y-123225000D01*
X129920000Y-123225000D02*
X129920000Y-120465000D01*
%TO.C,C1*%
X102287677Y-122444000D02*
X102287677Y-121246000D01*
X102327677Y-122707000D02*
X102327677Y-120983000D01*
X102367677Y-122907000D02*
X102367677Y-120783000D01*
X102407677Y-123075000D02*
X102407677Y-120615000D01*
X102447677Y-123222000D02*
X102447677Y-120468000D01*
X102487677Y-123354000D02*
X102487677Y-120336000D01*
X102527677Y-123475000D02*
X102527677Y-120215000D01*
X102567677Y-123587000D02*
X102567677Y-120103000D01*
X102607677Y-123691000D02*
X102607677Y-119999000D01*
X102647677Y-123789000D02*
X102647677Y-119901000D01*
X102687677Y-123882000D02*
X102687677Y-119808000D01*
X102727677Y-123969000D02*
X102727677Y-119721000D01*
X102767677Y-124053000D02*
X102767677Y-119637000D01*
X102807677Y-124133000D02*
X102807677Y-119557000D01*
X102847677Y-124210000D02*
X102847677Y-119480000D01*
X102887677Y-124284000D02*
X102887677Y-119406000D01*
X102927677Y-124355000D02*
X102927677Y-119335000D01*
X102967677Y-124423000D02*
X102967677Y-119267000D01*
X103007677Y-124489000D02*
X103007677Y-119201000D01*
X103047677Y-124553000D02*
X103047677Y-119137000D01*
X103087677Y-124615000D02*
X103087677Y-119075000D01*
X103127677Y-124675000D02*
X103127677Y-119015000D01*
X103167677Y-124733000D02*
X103167677Y-118957000D01*
X103207677Y-124790000D02*
X103207677Y-118900000D01*
X103247677Y-124845000D02*
X103247677Y-118845000D01*
X103287677Y-124898000D02*
X103287677Y-118792000D01*
X103327677Y-124950000D02*
X103327677Y-118740000D01*
X103367677Y-125001000D02*
X103367677Y-118689000D01*
X103407677Y-125050000D02*
X103407677Y-118640000D01*
X103447677Y-125099000D02*
X103447677Y-118591000D01*
X103487677Y-125146000D02*
X103487677Y-118544000D01*
X103527677Y-125192000D02*
X103527677Y-118498000D01*
X103567677Y-125236000D02*
X103567677Y-118454000D01*
X103607677Y-125280000D02*
X103607677Y-118410000D01*
X103647677Y-120605000D02*
X103647677Y-118367000D01*
X103647677Y-125323000D02*
X103647677Y-123085000D01*
X103687677Y-120605000D02*
X103687677Y-118325000D01*
X103687677Y-125365000D02*
X103687677Y-123085000D01*
X103727677Y-120605000D02*
X103727677Y-118284000D01*
X103727677Y-125406000D02*
X103727677Y-123085000D01*
X103767677Y-120605000D02*
X103767677Y-118244000D01*
X103767677Y-125446000D02*
X103767677Y-123085000D01*
X103807677Y-120605000D02*
X103807677Y-118205000D01*
X103807677Y-125485000D02*
X103807677Y-123085000D01*
X103847677Y-120605000D02*
X103847677Y-118167000D01*
X103847677Y-125523000D02*
X103847677Y-123085000D01*
X103887677Y-120605000D02*
X103887677Y-118129000D01*
X103887677Y-125561000D02*
X103887677Y-123085000D01*
X103927677Y-120605000D02*
X103927677Y-118093000D01*
X103927677Y-125597000D02*
X103927677Y-123085000D01*
X103967677Y-120605000D02*
X103967677Y-118057000D01*
X103967677Y-125633000D02*
X103967677Y-123085000D01*
X104007677Y-120605000D02*
X104007677Y-118022000D01*
X104007677Y-125668000D02*
X104007677Y-123085000D01*
X104047677Y-120605000D02*
X104047677Y-117987000D01*
X104047677Y-125703000D02*
X104047677Y-123085000D01*
X104087677Y-120605000D02*
X104087677Y-117954000D01*
X104087677Y-125736000D02*
X104087677Y-123085000D01*
X104127677Y-120605000D02*
X104127677Y-117921000D01*
X104127677Y-125769000D02*
X104127677Y-123085000D01*
X104167677Y-120605000D02*
X104167677Y-117888000D01*
X104167677Y-125802000D02*
X104167677Y-123085000D01*
X104207677Y-120605000D02*
X104207677Y-117857000D01*
X104207677Y-125833000D02*
X104207677Y-123085000D01*
X104247677Y-120605000D02*
X104247677Y-117825000D01*
X104247677Y-125865000D02*
X104247677Y-123085000D01*
X104287677Y-120605000D02*
X104287677Y-117795000D01*
X104287677Y-125895000D02*
X104287677Y-123085000D01*
X104327677Y-120605000D02*
X104327677Y-117765000D01*
X104327677Y-125925000D02*
X104327677Y-123085000D01*
X104367677Y-120605000D02*
X104367677Y-117736000D01*
X104367677Y-125954000D02*
X104367677Y-123085000D01*
X104407677Y-120605000D02*
X104407677Y-117707000D01*
X104407677Y-125983000D02*
X104407677Y-123085000D01*
X104447677Y-120605000D02*
X104447677Y-117679000D01*
X104447677Y-126011000D02*
X104447677Y-123085000D01*
X104487677Y-120605000D02*
X104487677Y-117652000D01*
X104487677Y-126038000D02*
X104487677Y-123085000D01*
X104527677Y-120605000D02*
X104527677Y-117625000D01*
X104527677Y-126065000D02*
X104527677Y-123085000D01*
X104567677Y-120605000D02*
X104567677Y-117598000D01*
X104567677Y-126092000D02*
X104567677Y-123085000D01*
X104607677Y-120605000D02*
X104607677Y-117573000D01*
X104607677Y-126117000D02*
X104607677Y-123085000D01*
X104647677Y-120605000D02*
X104647677Y-117547000D01*
X104647677Y-126143000D02*
X104647677Y-123085000D01*
X104687677Y-120605000D02*
X104687677Y-117522000D01*
X104687677Y-126168000D02*
X104687677Y-123085000D01*
X104727677Y-120605000D02*
X104727677Y-117498000D01*
X104727677Y-126192000D02*
X104727677Y-123085000D01*
X104767677Y-120605000D02*
X104767677Y-117474000D01*
X104767677Y-126216000D02*
X104767677Y-123085000D01*
X104807677Y-120605000D02*
X104807677Y-117451000D01*
X104807677Y-126239000D02*
X104807677Y-123085000D01*
X104847677Y-120605000D02*
X104847677Y-117428000D01*
X104847677Y-126262000D02*
X104847677Y-123085000D01*
X104887677Y-120605000D02*
X104887677Y-117406000D01*
X104887677Y-126284000D02*
X104887677Y-123085000D01*
X104927677Y-120605000D02*
X104927677Y-117384000D01*
X104927677Y-126306000D02*
X104927677Y-123085000D01*
X104967677Y-120605000D02*
X104967677Y-117362000D01*
X104967677Y-126328000D02*
X104967677Y-123085000D01*
X105007677Y-120605000D02*
X105007677Y-117341000D01*
X105007677Y-126349000D02*
X105007677Y-123085000D01*
X105047677Y-120605000D02*
X105047677Y-117321000D01*
X105047677Y-126369000D02*
X105047677Y-123085000D01*
X105087677Y-120605000D02*
X105087677Y-117301000D01*
X105087677Y-126389000D02*
X105087677Y-123085000D01*
X105127677Y-120605000D02*
X105127677Y-117281000D01*
X105127677Y-126409000D02*
X105127677Y-123085000D01*
X105167677Y-120605000D02*
X105167677Y-117262000D01*
X105167677Y-126428000D02*
X105167677Y-123085000D01*
X105207677Y-120605000D02*
X105207677Y-117243000D01*
X105207677Y-126447000D02*
X105207677Y-123085000D01*
X105247677Y-120605000D02*
X105247677Y-117225000D01*
X105247677Y-126465000D02*
X105247677Y-123085000D01*
X105287677Y-120605000D02*
X105287677Y-117207000D01*
X105287677Y-126483000D02*
X105287677Y-123085000D01*
X105327677Y-120605000D02*
X105327677Y-117189000D01*
X105327677Y-126501000D02*
X105327677Y-123085000D01*
X105367677Y-120605000D02*
X105367677Y-117172000D01*
X105367677Y-126518000D02*
X105367677Y-123085000D01*
X105407677Y-120605000D02*
X105407677Y-117155000D01*
X105407677Y-126535000D02*
X105407677Y-123085000D01*
X105447677Y-120605000D02*
X105447677Y-117139000D01*
X105447677Y-126551000D02*
X105447677Y-123085000D01*
X105487677Y-120605000D02*
X105487677Y-117123000D01*
X105487677Y-126567000D02*
X105487677Y-123085000D01*
X105527677Y-120605000D02*
X105527677Y-117107000D01*
X105527677Y-126583000D02*
X105527677Y-123085000D01*
X105567677Y-120605000D02*
X105567677Y-117092000D01*
X105567677Y-126598000D02*
X105567677Y-123085000D01*
X105607677Y-120605000D02*
X105607677Y-117077000D01*
X105607677Y-126613000D02*
X105607677Y-123085000D01*
X105647677Y-120605000D02*
X105647677Y-117063000D01*
X105647677Y-126627000D02*
X105647677Y-123085000D01*
X105687677Y-120605000D02*
X105687677Y-117048000D01*
X105687677Y-126642000D02*
X105687677Y-123085000D01*
X105727677Y-120605000D02*
X105727677Y-117035000D01*
X105727677Y-126655000D02*
X105727677Y-123085000D01*
X105767677Y-120605000D02*
X105767677Y-117021000D01*
X105767677Y-126669000D02*
X105767677Y-123085000D01*
X105807677Y-120605000D02*
X105807677Y-117008000D01*
X105807677Y-126682000D02*
X105807677Y-123085000D01*
X105847677Y-120605000D02*
X105847677Y-116996000D01*
X105847677Y-126694000D02*
X105847677Y-123085000D01*
X105887677Y-120605000D02*
X105887677Y-116984000D01*
X105887677Y-126706000D02*
X105887677Y-123085000D01*
X105927677Y-120605000D02*
X105927677Y-116972000D01*
X105927677Y-126718000D02*
X105927677Y-123085000D01*
X105967677Y-120605000D02*
X105967677Y-116960000D01*
X105967677Y-126730000D02*
X105967677Y-123085000D01*
X106007677Y-120605000D02*
X106007677Y-116949000D01*
X106007677Y-126741000D02*
X106007677Y-123085000D01*
X106047677Y-120605000D02*
X106047677Y-116938000D01*
X106047677Y-126752000D02*
X106047677Y-123085000D01*
X106087677Y-120605000D02*
X106087677Y-116928000D01*
X106087677Y-126762000D02*
X106087677Y-123085000D01*
X106127677Y-126773000D02*
X106127677Y-116917000D01*
X106167677Y-126782000D02*
X106167677Y-116908000D01*
X106207677Y-126792000D02*
X106207677Y-116898000D01*
X106247677Y-126801000D02*
X106247677Y-116889000D01*
X106287677Y-126810000D02*
X106287677Y-116880000D01*
X106327677Y-126818000D02*
X106327677Y-116872000D01*
X106367677Y-126826000D02*
X106367677Y-116864000D01*
X106407677Y-126834000D02*
X106407677Y-116856000D01*
X106447677Y-126842000D02*
X106447677Y-116848000D01*
X106487677Y-126849000D02*
X106487677Y-116841000D01*
X106527677Y-126856000D02*
X106527677Y-116834000D01*
X106567677Y-126862000D02*
X106567677Y-116828000D01*
X106607677Y-126868000D02*
X106607677Y-116822000D01*
X106647677Y-126874000D02*
X106647677Y-116816000D01*
X106687677Y-126880000D02*
X106687677Y-116810000D01*
X106727677Y-126885000D02*
X106727677Y-116805000D01*
X106767677Y-126890000D02*
X106767677Y-116800000D01*
X106807677Y-126894000D02*
X106807677Y-116796000D01*
X106847677Y-126899000D02*
X106847677Y-116791000D01*
X106887677Y-126902000D02*
X106887677Y-116788000D01*
X106927677Y-126906000D02*
X106927677Y-116784000D01*
X106967677Y-126909000D02*
X106967677Y-116781000D01*
X107007677Y-126912000D02*
X107007677Y-116778000D01*
X107047677Y-126915000D02*
X107047677Y-116775000D01*
X107087677Y-126917000D02*
X107087677Y-116773000D01*
X107127677Y-126919000D02*
X107127677Y-116771000D01*
X107167677Y-126921000D02*
X107167677Y-116769000D01*
X107207677Y-126922000D02*
X107207677Y-116768000D01*
X107247677Y-126924000D02*
X107247677Y-116766000D01*
X107287677Y-126924000D02*
X107287677Y-116766000D01*
X107327677Y-126925000D02*
X107327677Y-116765000D01*
X107367677Y-126925000D02*
X107367677Y-116765000D01*
X112347323Y-125220000D02*
X112347323Y-124220000D01*
X112847323Y-124720000D02*
X111847323Y-124720000D01*
X112487677Y-121845000D02*
G75*
G02*
X102247677Y-121845000I-5120000J0D01*
G01*
X102247677Y-121845000D02*
G75*
G02*
X112487677Y-121845000I5120000J0D01*
G01*
%TO.C,J1*%
X173580000Y-75725000D02*
X173580000Y-74345000D01*
X174960000Y-75725000D02*
X173580000Y-75725000D01*
X176230000Y-72965000D02*
X178880000Y-72965000D01*
X176230000Y-75725000D02*
X176230000Y-72965000D01*
X176230000Y-75725000D02*
X178880000Y-75725000D01*
X178880000Y-75725000D02*
X178880000Y-72965000D01*
D18*
%TO.C,ESP32 (38 PIN)*%
X124596177Y-61173500D02*
X152536177Y-61173500D01*
X124596177Y-109433500D02*
X124596177Y-61173500D01*
X136026177Y-106893500D02*
X141106177Y-106893500D01*
X136026177Y-109433500D02*
X124596177Y-109433500D01*
X136026177Y-109433500D02*
X136026177Y-106893500D01*
X141106177Y-106893500D02*
X141106177Y-109433500D01*
X141106177Y-109433500D02*
X136026177Y-109433500D01*
X152536177Y-61173500D02*
X152536177Y-109433500D01*
X152536177Y-109433500D02*
X141106177Y-109433500D01*
D17*
%TO.C,D2*%
X137710000Y-40946000D02*
X137710000Y-41265000D01*
X137710000Y-43425000D02*
X137710000Y-43744000D01*
X137710000Y-40946251D02*
G75*
G02*
X142013591Y-41265000I2060000J-1398749D01*
G01*
X138086670Y-41265000D02*
G75*
G02*
X141453330Y-41265000I1683330J-1080000D01*
G01*
X141453330Y-43425000D02*
G75*
G02*
X138086670Y-43425000I-1683330J1080000D01*
G01*
X142013591Y-43425000D02*
G75*
G02*
X137710000Y-43743749I-2243591J1080000D01*
G01*
%TD*%
M02*
