M48
; DRILL file {KiCad 9.0.7} date 2026-02-08T17:37:37+0200
; FORMAT={-:-/ absolute / metric / decimal}
; #@! TF.CreationDate,2026-02-08T17:37:37+02:00
; #@! TF.GenerationSoftware,Kicad,Pcbnew,9.0.7
; #@! TF.FileFunction,Plated,1,2,PTH
FMAT,2
METRIC
; #@! TA.AperFunction,Plated,PTH,ComponentDrill
T1C0.800
; #@! TA.AperFunction,Plated,PTH,ComponentDrill
T2C0.850
; #@! TA.AperFunction,Plated,PTH,ComponentDrill
T3C0.900
; #@! TA.AperFunction,Plated,PTH,ComponentDrill
T4C1.000
; #@! TA.AperFunction,Plated,PTH,ComponentDrill
T5C1.100
%
G90
G05
T1
X107.5Y-54.265
X107.5Y-64.425
X112.0Y-53.685
X112.0Y-63.845
X116.5Y-54.185
X116.5Y-64.345
T2
X125.866Y-62.444
X125.866Y-64.983
X125.866Y-67.523
X125.866Y-70.063
X125.866Y-72.603
X125.866Y-75.144
X125.866Y-77.683
X125.866Y-80.224
X125.866Y-82.763
X125.866Y-85.303
X125.866Y-87.843
X125.866Y-90.383
X125.866Y-92.923
X125.866Y-95.463
X125.866Y-98.004
X125.866Y-100.543
X125.866Y-103.084
X125.866Y-105.623
X125.866Y-108.163
X151.266Y-62.444
X151.266Y-64.983
X151.266Y-67.523
X151.266Y-70.063
X151.266Y-72.603
X151.266Y-75.144
X151.266Y-77.683
X151.266Y-80.224
X151.266Y-82.763
X151.266Y-85.303
X151.266Y-87.843
X151.266Y-90.383
X151.266Y-92.923
X151.266Y-95.463
X151.266Y-98.004
X151.266Y-100.543
X151.266Y-103.084
X151.266Y-105.623
X151.266Y-108.163
T3
X124.73Y-42.845
X127.27Y-42.845
X138.5Y-42.345
X141.04Y-42.345
X151.595Y-41.845
X154.135Y-41.845
T4
X104.868Y-121.845
X109.868Y-121.845
X123.46Y-121.845
X126.0Y-121.845
X128.54Y-121.845
X170.4Y-120.345
X174.96Y-74.345
X177.5Y-74.345
X178.0Y-120.345
T5
X119.59Y-131.345
X129.75Y-131.345
M30
