%TF.GenerationSoftware,KiCad,Pcbnew,9.0.7*%
%TF.CreationDate,2026-02-08T17:37:32+02:00*%
%TF.ProjectId,DoorLock PCB,446f6f72-4c6f-4636-9b20-5043422e6b69,rev?*%
%TF.SameCoordinates,Original*%
%TF.FileFunction,Soldermask,Top*%
%TF.FilePolarity,Negative*%
%FSLAX46Y46*%
G04 Gerber Fmt 4.6, Leading zero omitted, Abs format (unit mm)*
G04 Created by KiCad (PCBNEW 9.0.7) date 2026-02-08 17:37:32*
%MOMM*%
%LPD*%
G01*
G04 APERTURE LIST*
G04 Aperture macros list*
%AMRoundRect*
0 Rectangle with rounded corners*
0 $1 Rounding radius*
0 $2 $3 $4 $5 $6 $7 $8 $9 X,Y pos of 4 corners*
0 Add a 4 corners polygon primitive as box body*
4,1,4,$2,$3,$4,$5,$6,$7,$8,$9,$2,$3,0*
0 Add four circle primitives for the rounded corners*
1,1,$1+$1,$2,$3*
1,1,$1+$1,$4,$5*
1,1,$1+$1,$6,$7*
1,1,$1+$1,$8,$9*
0 Add four rect primitives between the rounded corners*
20,1,$1+$1,$2,$3,$4,$5,0*
20,1,$1+$1,$4,$5,$6,$7,0*
20,1,$1+$1,$6,$7,$8,$9,0*
20,1,$1+$1,$8,$9,$2,$3,0*%
G04 Aperture macros list end*
%ADD10C,1.600000*%
%ADD11R,1.800000X1.800000*%
%ADD12C,1.800000*%
%ADD13RoundRect,0.249999X-0.850001X-0.850001X0.850001X-0.850001X0.850001X0.850001X-0.850001X0.850001X0*%
%ADD14C,2.200000*%
%ADD15R,2.000000X2.000000*%
%ADD16C,2.000000*%
%ADD17R,1.700000X1.700000*%
%ADD18C,1.700000*%
%ADD19RoundRect,0.250000X0.750000X0.750000X-0.750000X0.750000X-0.750000X-0.750000X0.750000X-0.750000X0*%
%ADD20RoundRect,0.102000X-0.679000X-0.679000X0.679000X-0.679000X0.679000X0.679000X-0.679000X0.679000X0*%
%ADD21C,1.562000*%
G04 APERTURE END LIST*
D10*
%TO.C,R3*%
X112000000Y-53685000D03*
X112000000Y-63845000D03*
%TD*%
D11*
%TO.C,D3*%
X151595000Y-41845000D03*
D12*
X154135000Y-41845000D03*
%TD*%
D13*
%TO.C,Diode*%
X119590000Y-131345000D03*
D14*
X129750000Y-131345000D03*
%TD*%
D10*
%TO.C,R2*%
X107500000Y-54265000D03*
X107500000Y-64425000D03*
%TD*%
D15*
%TO.C,BZ1*%
X170400000Y-120345000D03*
D16*
X178000000Y-120345000D03*
%TD*%
D10*
%TO.C,R4*%
X116500000Y-54185000D03*
X116500000Y-64345000D03*
%TD*%
D11*
%TO.C,D1*%
X127270000Y-42845000D03*
D12*
X124730000Y-42845000D03*
%TD*%
D17*
%TO.C,M1*%
X123460000Y-121845000D03*
D18*
X126000000Y-121845000D03*
X128540000Y-121845000D03*
%TD*%
D19*
%TO.C,C1*%
X109867677Y-121845000D03*
D16*
X104867677Y-121845000D03*
%TD*%
D17*
%TO.C,J1*%
X174960000Y-74345000D03*
D18*
X177500000Y-74345000D03*
%TD*%
D20*
%TO.C,ESP32 (38 PIN)*%
X125866177Y-62443500D03*
D21*
X125866177Y-64983500D03*
X125866177Y-67523500D03*
X125866177Y-70063500D03*
X125866177Y-72603500D03*
X125866177Y-75143500D03*
X125866177Y-77683500D03*
X125866177Y-80223500D03*
X125866177Y-82763500D03*
X125866177Y-85303500D03*
X125866177Y-87843500D03*
X125866177Y-90383500D03*
X125866177Y-92923500D03*
X125866177Y-95463500D03*
X125866177Y-98003500D03*
X125866177Y-100543500D03*
X125866177Y-103083500D03*
X125866177Y-105623500D03*
X125866177Y-108163500D03*
X151266177Y-108163500D03*
X151266177Y-105623500D03*
X151266177Y-103083500D03*
X151266177Y-100543500D03*
X151266177Y-98003500D03*
X151266177Y-95463500D03*
X151266177Y-92923500D03*
X151266177Y-90383500D03*
X151266177Y-87843500D03*
X151266177Y-85303500D03*
X151266177Y-82763500D03*
X151266177Y-80223500D03*
X151266177Y-77683500D03*
X151266177Y-75143500D03*
X151266177Y-72603500D03*
X151266177Y-70063500D03*
X151266177Y-67523500D03*
X151266177Y-64983500D03*
X151266177Y-62443500D03*
%TD*%
D11*
%TO.C,D2*%
X138500000Y-42345000D03*
D12*
X141040000Y-42345000D03*
%TD*%
M02*
